<svg width="514" height="418" xmlns="http://www.w3.org/2000/svg" xmlns:xlink="http://www.w3.org/1999/xlink">
  <defs>
    <path id="a" d="M0 417.085h513.94V.762H0z"/>
  </defs>
  <g fill="none" fill-rule="evenodd">
    <path stroke="#3E3E3D" d="M133 342h201V65H133z"/>
    <path stroke="#3E3E3D" d="M186 144l36.029-46 36.945 43.213L283 109.15"/>
    <g>
      <path d="M288.955 108.719a5.563 5.563 0 0 1-5.558 5.568 5.564 5.564 0 0 1-5.559-5.568 5.564 5.564 0 0 1 5.559-5.569 5.563 5.563 0 0 1 5.558 5.569M264.862 140.734a5.563 5.563 0 0 1-5.559 5.569 5.564 5.564 0 0 1-5.558-5.569 5.564 5.564 0 0 1 5.558-5.568 5.563 5.563 0 0 1 5.559 5.568M227.813 97.583a5.563 5.563 0 0 1-5.558 5.568 5.564 5.564 0 0 1-5.559-5.568 5.564 5.564 0 0 1 5.559-5.569 5.563 5.563 0 0 1 5.558 5.569M191.684 143.519a5.563 5.563 0 0 1-5.558 5.568 5.564 5.564 0 0 1-5.559-5.568 5.564 5.564 0 0 1 5.559-5.569 5.563 5.563 0 0 1 5.558 5.569" fill="#5EF288"/>
      <path d="M165.473 230.542H304.05M186.03 230.542v-46.8M199.733 230.542v-21.995M213.437 230.542v-34.785M227.142 230.542v-46.8M240.846 230.542v-13.938M254.55 230.542v-46.8M268.254 230.542v-59.858M281.958 230.542v-29.929" stroke="#3E3E3D"/>
      <mask id="b" fill="#fff">
        <use xlink:href="#a"/>
      </mask>
      <path fill="#5C8098" mask="url(#b)" d="M162.503 272.661H307.02V261.12H162.503zM162.503 292.578H307.02v-11.542H162.503zM162.503 312.495H307.02v-11.543H162.503zM333.027 47.458H136.495a3.214 3.214 0 0 0-3.21 3.217V62.79h202.953V50.675a3.214 3.214 0 0 0-3.21-3.217"/>
      <path d="M418.402 267.369H303.914v-148.34a5.953 5.953 0 0 1 5.948-5.957h104.97c1.972 0 3.57 1.6 3.57 3.576v150.72z" fill="#5C8098" mask="url(#b)"/>
      <path fill="#FFF" mask="url(#b)" d="M319.32 190.548h9.111v-9.126h5.875v9.126h9.11v5.796h-9.11v9.125h-5.74v-9.125h-9.109zM324.9 229.699l6.468 6.478 6.514-6.525 4.145 4.153-6.513 6.525 6.467 6.48-4.076 4.106-6.469-6.479-6.513 6.503-4.145-4.153 6.514-6.571-6.469-6.41zM378.08 196.32v-5.84h24.165v5.863zM378.08 237.776h24.165v-5.864h-24.164zM378.08 248.703v-5.84h24.165v5.863z"/>
      <path stroke="#000" mask="url(#b)" d="M304.829 266.793h55.984v-50.298H304.83zM360.813 266.793h55.985v-50.298h-55.985zM304.829 216.495h55.984v-50.297H304.83zM360.813 216.495h55.985v-50.297h-55.985z"/>
      <path d="M406.151 156.712h-89.165a3.249 3.249 0 0 1-3.246-3.251V125.17a3.248 3.248 0 0 1 3.246-3.25h89.165a3.248 3.248 0 0 1 3.246 3.25v28.291a3.249 3.249 0 0 1-3.246 3.251" fill="#FFF" mask="url(#b)"/>
      <path fill="#E1F4FD" mask="url(#b)" d="M98.194 416.523h362.772V309.63H98.194z"/>
      <path d="M460.966 244.125H98.194l-17.235 61.307c-.596 2.12 1.09 4.198 3.405 4.198h390.431c2.316 0 4.001-2.079 3.405-4.198l-17.234-61.307z" fill="#ABE1FA" mask="url(#b)"/>
      <path d="M98.194 244.125l-42.99 65.505M462.605 244.125l42.99 65.505" stroke="#ABE1FA" mask="url(#b)"/>
      <path d="M55.204 416.523h426.01" stroke="#243746" stroke-linejoin="bevel" mask="url(#b)"/>
      <path d="M370.215 4.391h75.308a4.49 4.49 0 0 1 4.485 4.495v52.06a4.49 4.49 0 0 1-4.485 4.494h-23.47a2.427 2.427 0 0 0-1.56.572L410.3 74.525a4.481 4.481 0 0 1-5.746 0l-10.191-8.513a2.43 2.43 0 0 0-1.561-.572h-22.587a4.49 4.49 0 0 1-4.487-4.495V8.885a4.49 4.49 0 0 1 4.487-4.494z" stroke="#243746" mask="url(#b)"/>
      <path d="M402.957 29h2.184v1.488c.634.272 1.166.77 1.44 1.452l-2.025.819c-.088-.218-.37-.373-.668-.296-.298.08-.42.294-.38.515.041.22.266.413.576.394h.077c1.23.063 2.346.848 2.572 2.095.222 1.225-.488 2.407-1.597 2.885v1.487h-2.184v-1.49a2.671 2.671 0 0 1-1.443-1.455l2.026-.816c.087.218.371.375.668.296.3-.078.42-.298.38-.52-.04-.218-.266-.408-.575-.39h-.077c-1.23-.063-2.348-.848-2.574-2.095-.222-1.226.49-2.408 1.6-2.886V29zm11.436-5.533c.839 0 1.46.405 1.959 1.056.498.652.783 1.558.778 2.231v1.107h-5.435v-1.183c0-.976.291-1.801.748-2.347.665-.67 1.253-.847 1.95-.864zm-12.53-2.16c-3.002 0-5.46 2.42-5.46 5.378V44.31l3.281 3.235 2.178-2.15 2.18 2.15 2.18-2.148 2.179 2.148 3.279-3.235.012-14.277h7.64v-3.262c.01-1.214-.408-2.49-1.221-3.554-.814-1.063-2.036-1.915-3.633-1.922-4.465.05-8.696.042-12.616.01z" fill="#5EF288" mask="url(#b)"/>
      <path d="M103.72 416.043s0-48.373-14.332-49.97" stroke="#243746" stroke-linejoin="bevel" mask="url(#b)"/>
      <path d="M89.388 366.072c-.955-.106-1.974-.005-3.062.333-5.435 1.686-5.375 8.373-3.273 15.11" stroke="#243746" mask="url(#b)"/>
      <path d="M103.72 416.043s-9.218-37.418-20.667-34.527c-11.449 2.89 20.666 34.527 20.666 34.527z" stroke="#243746" stroke-linejoin="bevel" mask="url(#b)"/>
      <path d="M88.705 366.224c-4.377-19.727-5.818-38.265 3.448-40.357 18.295-4.131 11.566 90.176 11.566 90.176" fill="#5C8098" mask="url(#b)"/>
      <path d="M102.687 343.293c1.143-31.832 5.198-61.789 16.49-60.495 23.786 2.725-15.458 133.245-15.458 133.245" stroke="#243746" stroke-linejoin="bevel" mask="url(#b)"/>
      <path d="M103.719 416.043s8.622-40.491 23.112-33.56c6.452 3.087-25.454 30.96-23.112 33.56" fill="#5C8098" mask="url(#b)"/>
      <path d="M103.72 416.043c3.274-109.542 15.456-133.245 15.456-133.245M103.72 416.043c-.592-55.632-11.567-90.176-11.567-90.176M103.72 416.043c10.926-26.36 23.111-33.56 23.111-33.56M81.73 382.101s18.863 19.729 21.688 32.983" stroke="#243746" stroke-linejoin="bevel" mask="url(#b)"/>
      <path d="M0 171.186h20.021a8.436 8.436 0 0 1 7.426-7.093c1.331-5.098 5.959-8.859 11.465-8.859 4.286 0 8.04 2.278 10.122 5.69a6.32 6.32 0 0 1 1.73-.243c3.421 0 6.211 2.685 6.395 6.068.08 0 .156-.013.235-.013 2.823 0 5.212 1.877 5.994 4.45h19.117M513.94 205.981h-15.547a6.55 6.55 0 0 0-5.765-5.507c-1.035-3.96-4.627-6.88-8.903-6.88a9.196 9.196 0 0 0-7.86 4.419 4.909 4.909 0 0 0-1.343-.188 4.977 4.977 0 0 0-4.966 4.71c-.06 0-.12-.009-.182-.009a4.871 4.871 0 0 0-4.655 3.455h-14.843M199.937 1.324h30.728M251.346 1.324h-10.75M41.845 72.033h30.728M93.253 72.033H82.504" stroke="#243746" mask="url(#b)"/>
    </g>
  </g>
</svg>
