<svg height="418" width="514" xmlns="http://www.w3.org/2000/svg" xmlns:xlink="http://www.w3.org/1999/xlink"><mask id="a" fill="#fff"><path d="m0 417.085h513.94v-416.323h-513.94z" fill="none"/></mask><g fill="none" fill-rule="evenodd"><path d="m133 342h201v-277h-201z" stroke="#3e3e3d"/><path d="m186 144 36.029-46 36.945 43.213 24.026-32.063" stroke="#3e3e3d"/><path d="m288.955 108.719a5.563 5.563 0 0 1 -5.558 5.568 5.564 5.564 0 0 1 -5.559-5.568 5.564 5.564 0 0 1 5.559-5.569 5.563 5.563 0 0 1 5.558 5.569m-24.093 32.015a5.563 5.563 0 0 1 -5.559 5.569 5.564 5.564 0 0 1 -5.558-5.569 5.564 5.564 0 0 1 5.558-5.568 5.563 5.563 0 0 1 5.559 5.568m-37.049-43.151a5.563 5.563 0 0 1 -5.558 5.568 5.564 5.564 0 0 1 -5.559-5.568 5.564 5.564 0 0 1 5.559-5.569 5.563 5.563 0 0 1 5.558 5.569m-36.129 45.936a5.563 5.563 0 0 1 -5.558 5.568 5.564 5.564 0 0 1 -5.559-5.568 5.564 5.564 0 0 1 5.559-5.569 5.563 5.563 0 0 1 5.558 5.569" fill="#5ef288"/><path d="m165.473 230.542h138.577m-118.02 0v-46.8m13.703 46.8v-21.995m13.704 21.995v-34.785m13.705 34.785v-46.8m13.704 46.8v-13.938m13.704 13.938v-46.8m13.704 46.8v-59.858m13.704 59.858v-29.929" stroke="#3e3e3d"/><path d="m162.503 272.661h144.517v-11.541h-144.517zm0 19.917h144.517v-11.542h-144.517zm0 19.917h144.517v-11.543h-144.517zm170.524-265.037h-196.532a3.214 3.214 0 0 0 -3.21 3.217v12.115h202.953v-12.115a3.214 3.214 0 0 0 -3.21-3.217" fill="#5c8098" mask="url(#a)"/><path d="m418.402 267.369h-114.488v-148.34a5.953 5.953 0 0 1 5.948-5.957h104.97c1.972 0 3.57 1.6 3.57 3.576v150.72z" fill="#5c8098" mask="url(#a)"/><path d="m319.32 190.548h9.111v-9.126h5.875v9.126h9.11v5.796h-9.11v9.125h-5.74v-9.125h-9.109zm5.58 39.151 6.468 6.478 6.514-6.525 4.145 4.153-6.513 6.525 6.467 6.48-4.076 4.106-6.469-6.479-6.513 6.503-4.145-4.153 6.514-6.571-6.469-6.41zm53.18-33.379v-5.84h24.165v5.863zm0 41.456h24.165v-5.864h-24.164zm0 10.927v-5.84h24.165v5.863z" fill="#fff" mask="url(#a)"/><path d="m304.829 266.793h55.984v-50.298h-55.983zm55.984 0h55.985v-50.298h-55.985zm-55.984-50.298h55.984v-50.297h-55.983zm55.984 0h55.985v-50.297h-55.985z" mask="url(#a)" stroke="#000"/><path d="m406.151 156.712h-89.165a3.249 3.249 0 0 1 -3.246-3.251v-28.291a3.248 3.248 0 0 1 3.246-3.25h89.165a3.248 3.248 0 0 1 3.246 3.25v28.291a3.249 3.249 0 0 1 -3.246 3.251" fill="#fff" mask="url(#a)"/><path d="m98.194 416.523h362.772v-106.893h-362.772z" fill="#e1f4fd" mask="url(#a)"/><path d="m460.966 244.125h-362.772l-17.235 61.307c-.596 2.12 1.09 4.198 3.405 4.198h390.431c2.316 0 4.001-2.079 3.405-4.198z" fill="#abe1fa" mask="url(#a)"/><path d="m98.194 244.125-42.99 65.505m407.401-65.505 42.99 65.505" mask="url(#a)" stroke="#abe1fa"/><path d="m55.204 416.523h426.01" mask="url(#a)" stroke="#243746" stroke-linejoin="bevel"/><path d="m370.215 4.391h75.308a4.49 4.49 0 0 1 4.485 4.495v52.06a4.49 4.49 0 0 1 -4.485 4.494h-23.47a2.427 2.427 0 0 0 -1.56.572l-10.193 8.513a4.481 4.481 0 0 1 -5.746 0l-10.191-8.513a2.43 2.43 0 0 0 -1.561-.572h-22.587a4.49 4.49 0 0 1 -4.487-4.495v-52.06a4.49 4.49 0 0 1 4.487-4.494z" mask="url(#a)" stroke="#243746"/><path d="m402.957 29h2.184v1.488c.634.272 1.166.77 1.44 1.452l-2.025.819c-.088-.218-.37-.373-.668-.296-.298.08-.42.294-.38.515.041.22.266.413.576.394h.077c1.23.063 2.346.848 2.572 2.095.222 1.225-.488 2.407-1.597 2.885v1.487h-2.184v-1.49a2.671 2.671 0 0 1 -1.443-1.455l2.026-.816c.087.218.371.375.668.296.3-.078.42-.298.38-.52-.04-.218-.266-.408-.575-.39h-.077c-1.23-.063-2.348-.848-2.574-2.095-.222-1.226.49-2.408 1.6-2.886zm11.436-5.533c.839 0 1.46.405 1.959 1.056.498.652.783 1.558.778 2.231v1.107h-5.435v-1.183c0-.976.291-1.801.748-2.347.665-.67 1.253-.847 1.95-.864zm-12.53-2.16c-3.002 0-5.46 2.42-5.46 5.378v17.625l3.281 3.235 2.178-2.15 2.18 2.15 2.18-2.148 2.179 2.148 3.279-3.235.012-14.277h7.64v-3.262c.01-1.214-.408-2.49-1.221-3.554-.814-1.063-2.036-1.915-3.633-1.922-4.465.05-8.696.042-12.616.01z" fill="#5ef288" mask="url(#a)"/><g stroke="#243746"><path d="m103.72 416.043s0-48.373-14.332-49.97" mask="url(#a)" stroke-linejoin="bevel"/><path d="m89.388 366.072c-.955-.106-1.974-.005-3.062.333-5.435 1.686-5.375 8.373-3.273 15.11" mask="url(#a)"/><path d="m103.72 416.043s-9.218-37.418-20.667-34.527c-11.449 2.89 20.666 34.527 20.666 34.527z" mask="url(#a)" stroke-linejoin="bevel"/></g><path d="m88.705 366.224c-4.377-19.727-5.818-38.265 3.448-40.357 18.295-4.131 11.566 90.176 11.566 90.176" fill="#5c8098" mask="url(#a)"/><path d="m102.687 343.293c1.143-31.832 5.198-61.789 16.49-60.495 23.786 2.725-15.458 133.245-15.458 133.245" mask="url(#a)" stroke="#243746" stroke-linejoin="bevel"/><path d="m103.719 416.043s8.622-40.491 23.112-33.56c6.452 3.087-25.454 30.96-23.112 33.56" fill="#5c8098" mask="url(#a)"/><path d="m103.72 416.043c3.274-109.542 15.456-133.245 15.456-133.245m-15.456 133.245c-.592-55.632-11.567-90.176-11.567-90.176m11.567 90.176c10.926-26.36 23.111-33.56 23.111-33.56m-45.101-.382s18.863 19.729 21.688 32.983" mask="url(#a)" stroke="#243746" stroke-linejoin="bevel"/><path d="m0 171.186h20.021a8.436 8.436 0 0 1 7.426-7.093c1.331-5.098 5.959-8.859 11.465-8.859 4.286 0 8.04 2.278 10.122 5.69a6.32 6.32 0 0 1 1.73-.243c3.421 0 6.211 2.685 6.395 6.068.08 0 .156-.013.235-.013 2.823 0 5.212 1.877 5.994 4.45h19.117m431.435 34.795h-15.547a6.55 6.55 0 0 0 -5.765-5.507c-1.035-3.96-4.627-6.88-8.903-6.88a9.196 9.196 0 0 0 -7.86 4.419 4.909 4.909 0 0 0 -1.343-.188 4.977 4.977 0 0 0 -4.966 4.71c-.06 0-.12-.009-.182-.009a4.871 4.871 0 0 0 -4.655 3.455h-14.843m-249.939-204.657h30.728m20.681 0h-10.75m-198.751 70.709h30.728m20.68 0h-10.749" mask="url(#a)" stroke="#243746"/></g></svg>