<?xml version="1.0" encoding="UTF-8"?>
<svg width="562px" height="333px" viewBox="0 0 562 333" version="1.1" xmlns="http://www.w3.org/2000/svg" xmlns:xlink="http://www.w3.org/1999/xlink">
    <!-- Generator: Sketch 52.2 (67145) - http://www.bohemiancoding.com/sketch -->
    <title>graphic</title>
    <desc>Created with Sketch.</desc>
    <defs>
        <polygon id="path-1" points="0 338 561.711961 338 561.711961 0.196083333 0 0.196083333"></polygon>
        <path d="M38.3707692,3.07450685 C35.9487692,5.13932877 34.5143077,8.12726027 33.3910769,11.1141096 C32.6016923,13.2135616 31.85,15.4807534 30.1010769,16.877863 C29.2966154,17.5217671 28.3284615,17.9340822 27.5423077,18.5996301 C25.1676923,20.6060137 25.0944615,24.1869863 25.2161538,27.3026164 C25.312,29.7862466 25.4089231,32.2720411 25.5047692,34.7556712 C25.564,36.2718219 25.55,37.9795205 24.4730769,39.0422329 C23.3832308,40.1157671 21.8195385,40.0281096 20.2224615,39.9415342 C19.3490769,39.8939178 18.4670769,39.8463014 17.6464615,39.9869863 C13.4798462,40.7033973 11.9344615,46.0364384 12.4481538,50.2526575 C12.7895385,53.0447123 13.1212308,56.7966712 10.4881538,57.7533288 C9.75153846,58.0217123 8.96646154,57.9600274 8.176,57.8983425 C7.74953846,57.8658767 7.322,57.8323288 6.90092308,57.8496438 C3.17046154,58.0152192 -0.352153846,64.1512466 0.100153846,67.8750685 C0.553538462,71.5978082 3.18015385,77.8983288 8.93630769,79 L47.5192308,79 C51.5070769,77.0931781 53.7793846,72.1486438 52.6389231,67.8620822 C52.0853846,65.784274 50.8393846,63.8947671 50.6207692,61.755274 C50.0995385,56.6949452 55.4033846,52.2850137 54.558,47.270137 C54.0873846,44.4867397 51.8,42.3191096 51.1366154,39.5757534 C50.4323077,36.6581644 51.6718462,33.654 52.9792308,30.9550137 C54.2876923,28.2571096 55.7318462,25.415274 55.454,22.4273425 C55.1783077,19.439411 52.3050769,16.4958493 49.4566154,17.3973151 C50.358,14.6355616 51.2701538,11.8034658 51.1753846,8.89669863 C51.0795385,5.9910137 49.7710769,2.95005479 47.2166154,1.58432877 C46.2646154,1.07569863 45.2167692,0.846273973 44.1549231,0.846273973 C42.0904615,0.846273973 39.9689231,1.7120274 38.3707692,3.07450685 Z" id="path-3"></path>
        <path d="M6.05011765,2.12785714 C3.95894118,3.48535714 2.37176471,5.51571429 1.11705882,7.68642857 L1.12764706,7.77857143 C0.0370588235,8.53607143 -0.224470588,10.1721429 0.344117647,11.3828571 C0.911647059,12.5914286 2.13776471,13.3832143 3.42,13.7132143 C4.70117647,14.0410714 6.04905882,13.9692857 7.36729412,13.8417857 C9.666,13.62 12.0144706,13.2225 14.0029412,12.0321429 C15.9924706,10.845 17.5690588,8.71285714 17.5372941,6.37607143 C17.5034118,3.86357143 15.5414118,1.61892857 13.1654118,0.886071429 C12.4761176,0.673928571 11.7635294,0.575357143 11.0477647,0.575357143 C9.29964706,0.575357143 7.53458824,1.16571429 6.05011765,2.12785714 Z" id="path-5"></path>
        <path d="M11.5803529,0.872142857 C6.99882353,1.04785714 2.69258824,4.34357143 1.27694118,8.75678571 L1.52576471,8.37535714 C1.97576471,7.4775 2.57929412,6.64071429 3.18176471,5.83285714 L1.52576471,8.37535714 C1.23247059,8.96035714 1.00482353,9.57107143 0.885176471,10.2182143 C0.581294118,11.8585714 1.17847059,13.7914286 2.66823529,14.5060714 C3.55976471,14.9335714 4.59423529,14.8660714 5.57364706,14.7707143 C7.93376471,14.5457143 10.3224706,14.2114286 12.4856471,13.2289286 C14.6477647,12.2485714 16.5843529,10.5364286 17.3594118,8.27035714 C18.1344706,6.00321429 17.5044706,3.18428571 15.5467059,1.83321429 C14.508,1.11642857 13.2225882,0.864642857 11.9583529,0.864642857 C11.8323529,0.864642857 11.7063529,0.866785714 11.5803529,0.872142857 Z" id="path-7"></path>
        <path d="M8.7375,0.852 C6.36642857,1.23163636 4.33392857,2.72945455 2.41821429,4.2 L3.12642857,4.76945455 C1.83,5.736 0.387857143,7.02218182 0.571071429,8.64872727 C0.701785714,9.81818182 1.70571429,10.7334545 2.80714286,11.0923636 C3.90857143,11.4490909 5.09785714,11.3563636 6.24857143,11.2298182 C8.34214286,11.0007273 10.5032143,10.6450909 12.2485714,9.44836364 C13.9960714,8.25163636 15.2078571,5.99236364 14.5928571,3.94254545 C13.9842857,1.90254545 11.7825,0.78 9.65678571,0.78 C9.34714286,0.78 9.03857143,0.804 8.7375,0.852 Z" id="path-9"></path>
        <path d="M4.382,1.287 C2.67184615,2.43533333 1.484,4.25316667 0.772153846,6.19341667 L0.534153846,7.28866667 C-0.426461538,8.49766667 0.00107692308,10.44225 1.19538462,11.4183333 C2.38753846,12.3955 4.102,12.5168333 5.58276923,12.0954167 C7.06246154,11.6729167 8.35907692,10.7759167 9.59861538,9.86158333 C11.116,8.74141667 12.6969231,7.40891667 13.0663077,5.55316667 C13.4701538,3.52516667 12.1444615,1.37908333 10.2566154,0.561166667 C9.57276923,0.265416667 8.83830769,0.128916667 8.09846154,0.127833333 C6.79430769,0.127833333 5.474,0.554666667 4.382,1.287 Z" id="path-11"></path>
        <path d="M6.4537,0.598909091 C4.8367,0.802909091 3.4023,1.73890909 2.1923,2.82436364 L1.6412,5.02363636 C0.0143,5.88872727 -0.2321,8.36945455 0.9548,9.77127273 C2.1406,11.1741818 4.3076,11.4872727 6.0335,10.8381818 C7.7605,10.188 9.0772,8.74472727 9.9858,7.14981818 C10.7855,5.74363636 11.3091,3.99054545 10.5974,2.53963636 C9.9671,1.25127273 8.4755,0.564 7.0191,0.564 C6.8299,0.564 6.6407,0.576 6.4537,0.598909091 Z" id="path-13"></path>
        <path d="M5.94981818,0.685090909 C4.44763636,1.29054545 3.25745455,2.472 2.19709091,3.69818182 L2.44036364,3.69272727 C1.78363636,4.92 1.11490909,6.18436364 0.954545455,7.56654545 C0.795272727,8.94872727 1.26109091,10.4967273 2.44363636,11.2298182 C3.45490909,11.8592727 4.76290909,11.7741818 5.90072727,11.4207273 C8.28109091,10.6789091 10.2850909,8.81127273 11.1927273,6.48872727 C11.8658182,4.75963636 11.8505455,2.56909091 10.5076364,1.28945455 C9.80072727,0.615272727 8.83527273,0.314181818 7.85018182,0.314181818 C7.20218182,0.314181818 6.54654545,0.444 5.94981818,0.685090909 Z" id="path-15"></path>
        <path d="M5.5297,0.0516363636 C3.2824,0.252363636 1.3838,2.03163636 0.616,4.13490909 C-0.0847,6.05818182 0.0396,8.18981818 0.5918,10.1698182 C1.1836,10.7294545 2.1109,10.9170909 2.937,10.784 C3.9094,10.6258182 4.7784,10.1098182 5.621,9.60254545 C6.7408,8.92945455 7.876,8.24327273 8.7758,7.29854545 C9.6756,6.35381818 10.3268,5.10145455 10.263,3.80327273 C10.1574,1.68909091 8.0234,0.0363636364 5.8894,0.0363636364 C5.7695,0.0363636364 5.6496,0.0407272727 5.5297,0.0516363636 Z M0.759,10.7250909 C0.6996,10.5418182 0.6435,10.3563636 0.5918,10.1698182 C0.4873,10.0705455 0.3927,9.95927273 0.3113,9.83709091 L0.759,10.7250909 Z" id="path-17"></path>
        <path d="M1.05272727,3.304125 C0.195272727,5.252625 1.12581818,7.947 3.11672727,8.55225 C4.77272727,9.055125 6.48654545,8.121375 7.97672727,7.221375 C9.00109091,6.6015 10.0625455,5.947875 10.7192727,4.926375 C11.1109091,4.316625 11.3094545,3.53475 11.2265455,2.81925 C9.81163636,1.524375 8.07272727,0.55575 6.19636364,0.42975 C6.07527273,0.421875 5.95418182,0.417375 5.832,0.417375 C3.87163636,0.417375 1.86,1.470375 1.05272727,3.304125 Z M11.1218182,2.329875 C11.0258182,2.034 10.8709091,1.76175 10.6505455,1.533375 L11.1218182,2.329875 Z M11.2265455,2.81925 C11.3716364,2.952 11.5134545,3.088125 11.652,3.227625 L11.1218182,2.329875 C11.1730909,2.487375 11.208,2.651625 11.2265455,2.81925 Z" id="path-19"></path>
        <path d="M7.60523077,0.5027 C5.59030769,0.583 3.62492308,1.5675 2.32723077,3.1471 C1.58738462,4.048 1.05323077,5.1612 0.999384615,6.336 C0.945538462,7.5119 1.42153846,8.7395 2.35953846,9.4204 C3.85538462,10.5039 5.92415385,9.9539 7.61384615,9.2268 C8.98153846,8.635 10.3492308,7.9277 11.3410769,6.7969 C12.3329231,5.6661 12.8875385,4.0293 12.4083077,2.5927 L13.0706154,2.717 C11.7201538,1.3112 9.80323077,0.4972 7.87553846,0.4972 C7.78507692,0.4972 7.69569231,0.4994 7.60523077,0.5027 Z" id="path-21"></path>
        <path d="M4.85464286,0.1792 C3.18964286,0.4102 1.44964286,1.2308 0.768214286,2.8071 C-0.166071429,4.9686 1.40571429,7.5822 3.51964286,8.5271 C5.63357143,9.4709 8.05607143,9.1849 10.3285714,8.7944 C11.5167857,8.5909 12.7575,8.3357 13.6810714,7.5426 C14.2864286,7.0223 14.6914286,6.194 14.6946429,5.4053 C13.0521429,2.1944 9.5625,0.0978 6.04392857,0.0978 C5.64642857,0.0978 5.25,0.1242 4.85464286,0.1792 Z M14.6935714,5.3272 C14.6817857,4.9422 14.5725,4.5693 14.3421429,4.2492 L14.6935714,5.3272 Z M14.6946429,5.4053 C14.7182143,5.4526 14.7417857,5.4988 14.7653571,5.5461 L14.6935714,5.3272 C14.6946429,5.3536 14.6946429,5.3789 14.6946429,5.4053 Z" id="path-23"></path>
        <path d="M2.7146875,0.900363636 C0.524875,2.25309091 -0.53125,5.54 0.9658125,7.66509091 C2.3258125,9.59818182 4.97675,9.872 7.2961875,9.97345455 C9.0620625,10.0487273 10.894875,10.1130909 12.522625,9.40727273 C14.150375,8.69927273 15.5050625,6.98327273 15.2288125,5.192 L16.0341875,5.86181818 C14.2215625,4.01272727 12.3643125,2.12872727 10.066125,0.985454545 C8.8304375,0.370181818 7.43325,0.00145454545 6.06475,0.00145454545 C4.885375,0.00145454545 3.7283125,0.275272727 2.7146875,0.900363636 Z" id="path-25"></path>
        <path d="M8.83394444,0.884153846 C6.39772222,0.996153846 3.86755556,1.75753846 2.21455556,3.58830769 C0.562611111,5.41907692 0.101333333,8.484 1.65088889,10.4052308 C2.6695,11.6706154 4.29822222,12.2241538 5.86572222,12.5687692 C7.8945,13.0135385 9.97605556,13.2106154 12.0512778,13.1503077 C13.6831667,13.1050769 15.4100556,12.8584615 16.6725,11.802 C17.6056111,11.0201538 18.1407778,9.66538462 17.9222778,8.50338462 L17.3966111,7.38446154 C17.6752778,7.71076923 17.8452222,8.09523077 17.9222778,8.50338462 L18.1713889,9.03430769 C18.7065556,6.67369231 17.4979444,4.13753846 15.5905556,2.69446154 C13.8562778,1.38169231 11.6501667,0.870153846 9.47888889,0.870153846 C9.26355556,0.870153846 9.04822222,0.874461538 8.83394444,0.884153846 Z" id="path-27"></path>
        <path d="M1.79152941,3.34208333 C0.238235294,5.10575 -0.157764706,7.9885 1.23035294,9.89191667 C2.78470588,12.0206667 5.75576471,12.2730833 8.35305882,12.34025 C9.98894118,12.3825 11.6258824,12.42475 13.2617647,12.4659167 C14.4137647,12.4951667 15.7182353,12.4626667 16.4954118,11.5916667 C17.0703529,10.94925 17.1910588,9.98508333 17.0163529,9.1325 C16.8395294,8.27991667 16.4075294,7.50858333 15.9808235,6.75458333 L17.7649412,8.12825 C16.1534118,4.17625 12.2961176,1.22958333 8.118,0.98475 C7.93694118,0.973916667 7.75694118,0.9685 7.57482353,0.9685 C5.42435294,0.9685 3.22517647,1.716 1.79152941,3.34208333 Z" id="path-29"></path>
        <path d="M1.61222222,2.76763636 C0.576666667,4.46072727 0.821111111,6.73963636 1.97222222,8.35854545 C3.12444444,9.97854545 5.05888889,10.9625455 7.04777778,11.2538182 L7.39777778,11.1196364 C8.23666667,9.44072727 9.09222222,7.70727273 9.21444444,5.84072727 C9.33555556,3.97418182 8.54222222,1.92109091 6.83333333,1.09418182 C6.34333333,0.857454545 5.80888889,0.747272727 5.27222222,0.747272727 C3.83333333,0.747272727 2.36555556,1.53381818 1.61222222,2.76763636 Z" id="path-31"></path>
        <path d="M0.7744,3.02 C-0.1452,4.68 0.2013,7.00888889 1.6918,8.17111111 C2.8094,9.04333333 4.3318,9.18222222 5.7354,9.02222222 C7.0213,8.87666667 8.338,8.47333333 9.2565,7.55222222 C10.1739,6.63111111 10.5699,5.09444444 9.9066,3.97333333 L10.197,3.53222222 C9.1399,1.95888889 7.4294,0.793333333 5.555,0.62 C5.4021,0.605555556 5.2492,0.597777778 5.0963,0.597777778 C3.3649,0.597777778 1.6181,1.49555556 0.7744,3.02 Z" id="path-33"></path>
        <polygon id="path-35" points="0 338 561.711961 338 561.711961 0.196083333 0 0.196083333"></polygon>
    </defs>
    <g id="Page-1" stroke="none" stroke-width="1" fill="none" fill-rule="evenodd">
        <g id="Homepage" transform="translate(-140.000000, -1897.000000)">
            <g id="graphic" transform="translate(140.000000, 1897.000000)">
                <g id="Group-13">
                    <path d="M456.128513,117.418167 C456.128513,117.418167 472.371287,86.1824167 472.912713,85.2789167 C473.454139,84.3765 477.244119,88.1681667 477.244119,88.1681667 C477.244119,88.1681667 479.049233,89.7931667 479.770412,78.9598333 C480.492674,68.1265 482.477541,69.9324167 485.726096,65.9598333 C488.974651,61.98725 498.17889,50.7931667 498.17889,47.5431667 C498.17889,44.2931667 491.140355,38.6955833 492.223206,37.4324167 C493.306058,36.1681667 504.676,43.5705833 505.037672,52.7789167 C505.398262,61.98725 505.939688,67.9455833 503.593148,70.8348333 C501.247692,73.7240833 496.194023,72.2789167 495.833434,75.5289167 C495.471761,78.7789167 505.758852,77.1539167 502.330543,88.7098333 C498.901152,100.26575 496.374859,103.334833 492.584879,103.8765 C488.794898,104.418167 486.989784,107.849083 490.057503,110.918167 C493.126304,113.98725 494.930335,113.6265 492.404042,121.028917 C489.87775,128.432417 475.980432,154.61225 475.980432,154.61225 L456.128513,167.2515 L456.128513,155.696667 L456.128513,117.418167 Z" id="Fill-1" fill="#C7EAFB"></path>
                    <path d="M476.161268,114.348758 C479.328609,105.050508 491.502027,74.8070917 492.584879,75.3487583 C493.66773,75.890425 476.161268,123.557092 476.161268,123.557092 L470.024748,139.626175 C470.024748,139.626175 478.507807,132.404675 479.409823,134.209508 C480.311838,136.015425 466.957029,148.473758 466.957029,148.473758 L456.128513,167.251175 L456.128513,155.696342 C456.128513,155.696342 474.564062,119.037425 476.161268,114.348758" id="Fill-3" fill="#ABE1FA"></path>
                    <path d="M560.730356,142.0783 C560.730356,142.0783 562.938291,145.707467 560.730356,146.655383 C558.522422,147.602217 557.258734,142.709883 551.264067,144.367383 C545.269401,146.0238 518.763358,150.442717 499.199478,166.54105 C479.635597,182.639383 461.020295,217.677633 456.129054,250.821133 L457.233563,180.745717 L468.592676,165.278967 L485.63243,154.547467 L493.835031,155.4943 L502.354908,145.076967 L521.918788,139.395967 L535.171809,135.9228 L560.730356,142.0783 Z" id="Fill-5" fill="#E1F4FD"></path>
                    <path d="M456.128513,166.699433 C456.128513,166.699433 487.366617,151.547933 489.73373,145.86585 L495.413287,149.654267 C495.413287,149.654267 495.886493,139.71035 502.513545,139.71035 C509.139514,139.71035 517.659391,136.396433 527.12568,134.02935 C536.590886,131.661183 560.729815,138.2901 560.729815,142.078517 C560.729815,142.078517 546.846574,137.1851 542.271526,137.658517 C537.696478,138.131933 536.748983,143.498767 535.329364,143.656933 C533.909746,143.814017 535.171268,138.2901 532.490127,137.97485 C529.806821,137.658517 523.023838,138.763517 521.919329,139.3951 C520.813738,140.0256 520.656724,145.234267 519.552216,145.234267 C518.447707,145.234267 516.869992,141.446933 515.450374,141.6051 C514.030755,141.763267 500.304528,149.812433 499.515129,151.389767 C498.726813,152.968183 500.461541,157.703433 499.200019,158.17685 C497.938497,158.650267 495.886493,155.1771 493.835572,155.493433 C491.784651,155.809767 482.00217,159.438933 481.528963,160.7021 C481.055757,161.964183 487.366617,168.27785 485.631888,169.539933 C483.896077,170.8031 478.847823,163.385517 475.849407,164.490517 C472.852073,165.594433 457.233021,180.745933 457.233021,180.745933 L456.128513,166.699433 Z" id="Fill-7" fill="#ABE1FA"></path>
                    <mask id="mask-2" fill="white">
                        <use xlink:href="#path-1"></use>
                    </mask>
                    <g id="Clip-10"></g>
                    <polygon id="Fill-9" fill="#5C8098" mask="url(#mask-2)" points="68.5737457 101.320917 458.582254 101.320917 458.582254 79.6271667 68.5737457 79.6271667"></polygon>
                    <polygon id="Fill-11" fill="#FFFFFF" mask="url(#mask-2)" points="69.520158 331.566083 457.634759 331.566083 457.634759 101.184417 69.520158 101.184417"></polygon>
                    <polygon id="Stroke-12" stroke="#243746" mask="url(#mask-2)" points="69.520158 331.566083 457.634759 331.566083 457.634759 101.184417 69.520158 101.184417"></polygon>
                </g>
                <g id="Group-16" transform="translate(63.000000, 253.000000)">
                    <mask id="mask-4" fill="white">
                        <use xlink:href="#path-3"></use>
                    </mask>
                    <g id="Clip-15"></g>
                    <polygon id="Fill-14" fill="#C7EAFB" mask="url(#mask-4)" points="-5.32323077 84.4109589 60.8741538 84.4109589 60.8741538 -4.56468493 -5.32323077 -4.56468493"></polygon>
                </g>
                <g id="Group-21" transform="translate(32.000000, 254.000000)">
                    <path d="M77.8315417,0.502678082 C77.8315417,0.502678082 56.288375,43.9494315 55.8842917,77.9183493" id="Stroke-17" stroke="#8ED8F8"></path>
                    <path d="M44.1380333,78.0026521 C44.1380333,78.0026521 41.29645,23.136611 0.57395,0.433309589" id="Stroke-19" stroke="#243746"></path>
                </g>
                <g id="Group-24" transform="translate(80.000000, 316.000000)">
                    <mask id="mask-6" fill="white">
                        <use xlink:href="#path-5"></use>
                    </mask>
                    <g id="Clip-23"></g>
                    <polygon id="Fill-22" fill="#5C8098" mask="url(#mask-6)" points="-5.24223529 19.3060714 22.8314118 19.3060714 22.8314118 -4.78178571 -5.24223529 -4.78178571"></polygon>
                </g>
                <g id="Group-27" transform="translate(76.000000, 297.000000)">
                    <mask id="mask-8" fill="white">
                        <use xlink:href="#path-7"></use>
                    </mask>
                    <g id="Clip-26"></g>
                    <polygon id="Fill-25" fill="#5C8098" mask="url(#mask-8)" points="-4.48623529 20.1985714 22.9754118 20.1985714 22.9754118 -4.4925 -4.48623529 -4.4925"></polygon>
                </g>
                <g id="Group-30" transform="translate(70.000000, 283.000000)">
                    <mask id="mask-10" fill="white">
                        <use xlink:href="#path-9"></use>
                    </mask>
                    <g id="Clip-29"></g>
                    <polygon id="Fill-28" fill="#5C8098" mask="url(#mask-10)" points="-4.80214286 16.7967273 20.1128571 16.7967273 20.1128571 -4.67563636 -4.80214286 -4.67563636"></polygon>
                </g>
                <g id="Group-33" transform="translate(64.000000, 268.000000)">
                    <mask id="mask-12" fill="white">
                        <use xlink:href="#path-11"></use>
                    </mask>
                    <g id="Clip-32"></g>
                    <polygon id="Fill-31" fill="#5C8098" mask="url(#mask-12)" points="-5.37815385 17.74175 18.5241538 17.74175 18.5241538 -5.28775 -5.37815385 -5.28775"></polygon>
                </g>
                <g id="Group-36" transform="translate(55.000000, 258.000000)">
                    <mask id="mask-14" fill="white">
                        <use xlink:href="#path-13"></use>
                    </mask>
                    <g id="Clip-35"></g>
                    <polygon id="Fill-34" fill="#5C8098" mask="url(#mask-14)" points="-5.2866 16.6167273 16.4329 16.6167273 16.4329 -4.89054545 -5.2866 -4.89054545"></polygon>
                </g>
                <g id="Group-39" transform="translate(44.000000, 248.000000)">
                    <mask id="mask-16" fill="white">
                        <use xlink:href="#path-15"></use>
                    </mask>
                    <g id="Clip-38"></g>
                    <polygon id="Fill-37" fill="#5C8098" mask="url(#mask-16)" points="-4.52945455 17.1501818 17.0836364 17.1501818 17.0836364 -5.14036364 -4.52945455 -5.14036364"></polygon>
                </g>
                <g id="Group-42" transform="translate(35.000000, 239.000000)">
                    <mask id="mask-18" fill="white">
                        <use xlink:href="#path-17"></use>
                    </mask>
                    <g id="Clip-41"></g>
                    <polygon id="Fill-40" fill="#5C8098" mask="url(#mask-18)" points="-5.3669 16.2789091 15.7674 16.2789091 15.7674 -5.41818182 -5.3669 -5.41818182"></polygon>
                </g>
                <g id="Group-45" transform="translate(21.000000, 255.000000)">
                    <mask id="mask-20" fill="white">
                        <use xlink:href="#path-19"></use>
                    </mask>
                    <g id="Clip-44"></g>
                    <polygon id="Fill-43" fill="#5C8098" mask="url(#mask-20)" points="-4.72145455 14.319 17.1054545 14.319 17.1054545 -5.207625 -4.72145455 -5.207625"></polygon>
                </g>
                <g id="Group-48" transform="translate(29.000000, 264.000000)">
                    <mask id="mask-22" fill="white">
                        <use xlink:href="#path-21"></use>
                    </mask>
                    <g id="Clip-47"></g>
                    <polygon id="Fill-46" fill="#5C8098" mask="url(#mask-22)" points="-4.38953846 15.5298 18.4563077 15.5298 18.4563077 -5.0028 -4.38953846 -5.0028"></polygon>
                </g>
                <g id="Group-51" transform="translate(39.000000, 277.000000)">
                    <mask id="mask-24" fill="white">
                        <use xlink:href="#path-23"></use>
                    </mask>
                    <g id="Clip-50"></g>
                    <polygon id="Fill-49" fill="#5C8098" mask="url(#mask-24)" points="-4.86428571 14.6607 20.1214286 14.6607 20.1214286 -5.4022 -4.86428571 -5.4022"></polygon>
                </g>
                <g id="Group-54" transform="translate(45.000000, 289.000000)">
                    <mask id="mask-26" fill="white">
                        <use xlink:href="#path-25"></use>
                    </mask>
                    <g id="Clip-53"></g>
                    <polygon id="Fill-52" fill="#5C8098" mask="url(#mask-26)" points="-5.0458125 15.4716364 21.345625 15.4716364 21.345625 -5.45309091 -5.0458125 -5.45309091"></polygon>
                </g>
                <g id="Group-57" transform="translate(48.000000, 302.000000)">
                    <mask id="mask-28" fill="white">
                        <use xlink:href="#path-27"></use>
                    </mask>
                    <g id="Clip-56"></g>
                    <polygon id="Fill-55" fill="#5C8098" mask="url(#mask-28)" points="-4.57583333 18.5456923 23.5768889 18.5456923 23.5768889 -4.51446154 -4.57583333 -4.51446154"></polygon>
                </g>
                <g id="Group-60" transform="translate(54.000000, 319.000000)">
                    <mask id="mask-30" fill="white">
                        <use xlink:href="#path-29"></use>
                    </mask>
                    <g id="Clip-59"></g>
                    <polygon id="Fill-58" fill="#5C8098" mask="url(#mask-30)" points="-4.91505882 17.8890833 23.0601176 17.8890833 23.0601176 -4.44816667 -4.91505882 -4.44816667"></polygon>
                </g>
                <g id="Group-63" transform="translate(22.000000, 235.000000)">
                    <mask id="mask-32" fill="white">
                        <use xlink:href="#path-31"></use>
                    </mask>
                    <g id="Clip-62"></g>
                    <polygon id="Fill-61" fill="#5EF288" mask="url(#mask-32)" points="-4.59888889 16.7083636 14.7822222 16.7083636 14.7822222 -4.70727273 -4.59888889 -4.70727273"></polygon>
                </g>
                <g id="Group-66" transform="translate(13.000000, 245.000000)">
                    <mask id="mask-34" fill="white">
                        <use xlink:href="#path-33"></use>
                    </mask>
                    <g id="Clip-65"></g>
                    <polygon id="Fill-64" fill="#5EF288" mask="url(#mask-34)" points="-5.2327 14.6355556 15.7366 14.6355556 15.7366 -4.95777778 -5.2327 -4.95777778"></polygon>
                </g>
                <g id="Group-117">
                    <path d="M375.216322,166.193408 C375.831382,166.808742 376.95863,166.399242 376.95863,165.475158 L376.95863,134.094242 C376.95863,133.478908 376.447524,133.068325 375.934253,133.068325 C367.117675,133.375992 359.120815,136.863242 353.073089,142.503075 C352.662688,142.913658 352.662688,143.528992 353.073089,143.939575 L375.216322,166.193408 Z" id="Fill-67" fill="#5EF288"></path>
                    <path d="M375.216322,173.372333 L352.047629,150.1955 C351.638311,149.784917 351.022168,149.784917 350.61285,150.1955 C344.666912,156.450667 341.078341,164.860583 341.078341,174.090583 C341.078341,183.320583 344.666912,191.729417 350.511062,197.984583 C350.92038,198.395167 351.534357,198.395167 351.94584,197.984583 L375.114534,174.80775 C375.62564,174.39825 375.62564,173.781833 375.216322,173.372333" id="Fill-69" fill="#5C8098"></path>
                    <path d="M383.110311,140.247358 C382.597039,140.247358 382.08485,140.656858 382.08485,141.273275 L382.08485,174.706025 C382.08485,175.012608 381.983062,175.218442 381.77732,175.423192 L358.199309,199.010608 C357.788908,199.421192 357.788908,200.036525 358.199309,200.446025 C364.963883,206.804108 374.190862,210.496108 384.339347,209.880775 C401.563185,208.753025 415.607771,194.806192 416.837891,177.576858 C418.273752,157.578525 402.690434,140.862692 383.110311,140.247358" id="Fill-71" fill="#5C8098"></path>
                    <mask id="mask-36" fill="white">
                        <use xlink:href="#path-35"></use>
                    </mask>
                    <g id="Clip-74"></g>
                    <polygon id="Fill-73" fill="#5C8098" mask="url(#mask-36)" points="132.837742 292.092667 156.71462 292.092667 156.71462 244.036 132.837742 244.036"></polygon>
                    <polygon id="Fill-75" fill="#5C8098" mask="url(#mask-36)" points="165.396925 292.092667 189.273803 292.092667 189.273803 202.690583 165.396925 202.690583"></polygon>
                    <polygon id="Fill-76" fill="#5C8098" mask="url(#mask-36)" points="197.956108 292.092667 221.832987 292.092667 221.832987 178.052333 197.956108 178.052333"></polygon>
                    <path d="M125.263411,292.332083 L224.673523,292.332083" id="Stroke-77" stroke="#243746" stroke-linejoin="bevel" mask="url(#mask-36)"></path>
                    <path d="M138.732678,69.5781667 C138.732678,107.895667 107.676493,138.96025 69.3662848,138.96025 C31.0560767,138.96025 -0.000108285164,107.895667 -0.000108285164,69.5781667 C-0.000108285164,31.2606667 31.0560767,0.196083333 69.3662848,0.196083333 C107.676493,0.196083333 138.732678,31.2606667 138.732678,69.5781667" id="Fill-78" fill="#FFFFFF" mask="url(#mask-36)"></path>
                    <path d="M92.8510628,69.578275 C92.8510628,100.532358 83.2039376,127.158525 69.3683422,138.960358 C55.5327468,127.167192 45.8812902,100.541025 45.8812902,69.578275 C45.8812902,38.615525 55.5327468,11.9893583 69.3683422,0.196191667 C83.2039376,11.998025 92.8510628,38.6241917 92.8510628,69.578275" id="Fill-79" fill="#5EF288" mask="url(#mask-36)"></path>
                    <path d="M18.1217387,69.5781667 C18.1217387,95.3084167 27.7807753,118.313 42.9666867,133.63675 C17.9094998,123.175 0.296917919,98.4338333 0.296917919,69.5781667 C0.296917919,40.7225 17.9094998,15.9813333 42.9666867,5.51958333 C27.7807753,20.8433333 18.1217387,43.8479167 18.1217387,69.5781667" id="Fill-80" fill="#5EF288" mask="url(#mask-36)"></path>
                    <path d="M119.944011,69.5781667 C119.944011,95.3084167 110.284974,118.313 95.0990628,133.63675 C120.15625,123.175 137.768832,98.4338333 137.768832,69.5781667 C137.768832,40.7225 120.15625,15.9813333 95.0990628,5.51958333 C110.284974,20.8433333 119.944011,43.8479167 119.944011,69.5781667" id="Fill-81" fill="#5EF288" mask="url(#mask-36)"></path>
                    <path d="M52.6101303,203.992858 L63.0758913,203.992858 L63.0758913,180.396775 L51.2803884,180.396775 L51.2803884,202.662525 C51.2803884,203.397025 51.8759568,203.992858 52.6101303,203.992858" id="Fill-82" fill="#5C8098" mask="url(#mask-36)"></path>
                    <path d="M63.0762162,203.992858 L85.3569715,203.992858 C86.0803164,203.992858 86.667222,203.405692 86.667222,202.682025 L86.667222,180.396775 L63.0762162,180.396775 L63.0762162,203.992858 Z" id="Fill-83" fill="#FFFFFF" mask="url(#mask-36)"></path>
                    <path d="M63.0762162,203.992858 L85.3569715,203.992858 C86.0803164,203.992858 86.667222,203.405692 86.667222,202.682025 L86.667222,180.396775 L63.0762162,180.396775 L63.0762162,203.992858 Z" id="Stroke-84" stroke="#243746" stroke-linejoin="bevel" mask="url(#mask-36)"></path>
                    <path d="M48.0940975,180.396233 L90.6382555,180.396233 C91.0334963,180.396233 91.3540204,180.07665 91.3540204,179.681233 L91.3540204,171.887733 C91.3540204,171.492317 91.0334963,171.172733 90.6382555,171.172733 L48.0940975,171.172733 C47.6988566,171.172733 47.3794154,171.492317 47.3794154,171.887733 L47.3794154,179.681233 C47.3794154,180.07665 47.6988566,180.396233 48.0940975,180.396233" id="Fill-85" fill="#FFFFFF" mask="url(#mask-36)"></path>
                    <path d="M48.0940975,180.396233 L90.6382555,180.396233 C91.0334963,180.396233 91.3540204,180.07665 91.3540204,179.681233 L91.3540204,171.887733 C91.3540204,171.492317 91.0334963,171.172733 90.6382555,171.172733 L48.0940975,171.172733 C47.6988566,171.172733 47.3794154,171.492317 47.3794154,171.887733 L47.3794154,179.681233 C47.3794154,180.07665 47.6988566,180.396233 48.0940975,180.396233 Z" id="Stroke-86" stroke="#243746" stroke-linejoin="bevel" mask="url(#mask-36)"></path>
                    <polyline id="Stroke-87" stroke="#243746" stroke-linejoin="bevel" mask="url(#mask-36)" points="23.2970116 121.1743 52.065131 171.173383 87.4527225 171.173383 115.741139 121.1743"></polyline>
                    <path d="M69.5190751,171.172842 L69.5190751,133.636425" id="Stroke-88" stroke="#243746" stroke-linejoin="bevel" mask="url(#mask-36)"></path>
                    <polygon id="Fill-89" fill="#C7EAFB" mask="url(#mask-36)" points="261.2542 235.191667 416.997503 235.191667 416.997503 224.537083 261.2542 224.537083"></polygon>
                    <polygon id="Fill-90" fill="#C7EAFB" mask="url(#mask-36)" points="261.2542 254.339583 416.997503 254.339583 416.997503 243.685 261.2542 243.685"></polygon>
                    <polygon id="Fill-91" fill="#C7EAFB" mask="url(#mask-36)" points="261.2542 273.488583 416.997503 273.488583 416.997503 262.834 261.2542 262.834"></polygon>
                    <polygon id="Fill-92" fill="#C7EAFB" mask="url(#mask-36)" points="261.255283 292.635417 356.648015 292.635417 356.648015 281.980833 261.255283 281.980833"></polygon>
                    <polygon id="Fill-93" fill="#C7EAFB" mask="url(#mask-36)" points="261.2542 156.951167 323.266948 156.951167 323.266948 146.296583 261.2542 146.296583"></polygon>
                    <polygon id="Fill-94" fill="#C7EAFB" mask="url(#mask-36)" points="261.2542 176.099083 323.266948 176.099083 323.266948 165.4445 261.2542 165.4445"></polygon>
                    <polygon id="Fill-95" fill="#C7EAFB" mask="url(#mask-36)" points="261.2542 195.248083 323.266948 195.248083 323.266948 184.5935 261.2542 184.5935"></polygon>
                    <polygon id="Fill-96" fill="#C7EAFB" mask="url(#mask-36)" points="261.2542 214.394917 299.237387 214.394917 299.237387 203.740333 261.2542 203.740333"></polygon>
                    <path d="M444.638266,91.1129917 C444.638266,93.4064083 442.780092,95.2654083 440.487695,95.2654083 C438.195298,95.2654083 436.336042,93.4064083 436.336042,91.1129917 C436.336042,88.819575 438.195298,86.960575 440.487695,86.960575 C442.780092,86.960575 444.638266,88.819575 444.638266,91.1129917 Z" id="Stroke-97" stroke="#243746" mask="url(#mask-36)"></path>
                    <path d="M432.185472,91.1129917 C432.185472,93.4064083 430.327298,95.2654083 428.034901,95.2654083 C425.742504,95.2654083 423.883248,93.4064083 423.883248,91.1129917 C423.883248,88.819575 425.742504,86.960575 428.034901,86.960575 C430.327298,86.960575 432.185472,88.819575 432.185472,91.1129917 Z" id="Stroke-98" stroke="#243746" mask="url(#mask-36)"></path>
                    <path d="M419.732678,91.1129917 C419.732678,93.4064083 417.874504,95.2654083 415.582108,95.2654083 C413.289711,95.2654083 411.430454,93.4064083 411.430454,91.1129917 C411.430454,88.819575 413.289711,86.960575 415.582108,86.960575 C417.874504,86.960575 419.732678,88.819575 419.732678,91.1129917 Z" id="Stroke-99" stroke="#243746" mask="url(#mask-36)"></path>
                    <path d="M412.288073,332.058567 C409.823503,324.97465 413.383919,315.0329 420.375892,312.32565 C423.380805,311.163233 426.851345,310.946567 429.352732,308.91315 C433.593179,305.467067 433.376608,298.16865 438.027456,295.299983 C441.247857,293.314233 445.465564,294.365067 448.867884,296.021483 C452.269121,297.6779 455.546913,299.922567 459.315237,300.254067 C462.645005,300.54765 465.900057,299.2964 469.221163,298.9194 C472.542269,298.541317 476.496844,299.43615 477.891556,302.4749 C479.036131,304.96765 478.107044,308.21115 479.774635,310.38865 C481.18126,312.223817 483.781187,312.474067 485.958801,313.24865 C493.257221,315.84215 496.02499,324.51965 497.818192,332.058567 L412.288073,332.058567 Z" id="Fill-100" fill="#E1F4FD" mask="url(#mask-36)"></path>
                    <path d="M457.256303,332.158017 C457.256303,332.158017 459.261744,293.387683 487.998461,277.343517" id="Stroke-101" stroke="#243746" mask="url(#mask-36)"></path>
                    <path d="M453.951656,326.179208 C454.738889,326.719792 454.927305,327.888708 454.517987,328.751042 C454.107587,329.613375 453.22398,330.178875 452.298141,330.413958 C451.37122,330.650125 450.39882,330.597042 449.446993,330.506042 C447.785899,330.348958 446.091236,330.065125 444.655375,329.214708 C443.219513,328.366458 442.081436,326.845458 442.104176,325.178208 C442.127999,323.384208 443.544369,321.781958 445.260689,321.259792 C446.975926,320.737625 448.888242,321.177458 450.397737,322.145958 C451.906149,323.114458 453.052889,324.565042 453.959236,326.113125" id="Fill-102" fill="#5C8098" mask="url(#mask-36)"></path>
                    <path d="M455.52688,311.02565 C456.244811,311.976817 456.964907,312.983233 457.184726,314.154317 C457.404545,315.3254 456.97357,316.705567 455.897215,317.215817 C455.254002,317.520233 454.506834,317.471483 453.798649,317.4054 C452.096406,317.243983 450.370341,317.004567 448.808869,316.304733 C447.247397,315.6049 445.849435,314.381817 445.289601,312.7644 C444.729766,311.146983 445.185647,309.13415 446.599851,308.171067 C447.424984,307.607733 448.464522,307.446317 449.462911,307.484233 C452.771023,307.6099 455.880973,309.961817 456.902102,313.11215" id="Fill-103" fill="#5C8098" mask="url(#mask-36)"></path>
                    <path d="M461.24033,302.982658 C461.380018,303.796242 460.430357,304.445158 459.643124,304.695408 C458.856974,304.946742 458.009101,304.881742 457.188299,304.792908 C455.695047,304.632575 454.153066,304.382325 452.905621,303.543825 C451.660342,302.705325 450.795143,301.120408 451.232615,299.683908 C451.73181,298.044825 453.721008,297.250742 455.412423,297.517242 C457.103837,297.783742 458.554858,298.833492 459.921417,299.864825 C459.921417,299.864825 460.877575,300.862575 461.24033,302.982658" id="Fill-104" fill="#5C8098" mask="url(#mask-36)"></path>
                    <path d="M465.854469,292.123758 C466.535583,292.977425 466.233467,294.350008 465.385595,295.039008 C464.538805,295.729092 463.320597,295.814675 462.271313,295.516758 C461.219864,295.218842 460.29944,294.586175 459.419082,293.940508 C458.342728,293.149675 457.21981,292.210425 456.95776,290.899592 C456.671887,289.467425 457.611803,287.951842 458.952373,287.375508 C460.294026,286.798092 461.908558,287.077592 463.122435,287.887925 C464.336311,288.698258 465.179853,289.982008 465.685545,291.351342" id="Fill-105" fill="#5C8098" mask="url(#mask-36)"></path>
                    <path d="M471.209171,282.853242 C472.339668,283.459908 472.510758,285.198658 471.686708,286.182325 C470.861575,287.164908 469.356412,287.384825 468.156612,286.929825 C466.956812,286.474825 466.04072,285.460825 465.4105,284.343908 C464.854997,283.359158 464.490076,282.128492 464.983857,281.111242 C465.479803,280.091825 466.739159,279.607575 467.864242,279.751658 C468.988242,279.895742 469.985548,280.551158 470.825841,281.311658" id="Fill-106" fill="#5C8098" mask="url(#mask-36)"></path>
                    <path d="M478.284848,275.037858 C478.74506,275.898025 479.213935,276.784192 479.325469,277.753775 C479.437002,278.722275 479.109981,279.806692 478.282682,280.322358 C477.573415,280.763275 476.656239,280.702608 475.860343,280.454525 C474.191669,279.935608 472.788293,278.626942 472.151576,276.997608 C471.679453,275.786442 471.689199,274.251358 472.63128,273.353275 C473.452081,272.570025 474.770995,272.505025 475.825692,272.928608 C476.878224,273.354358 477.71202,274.183108 478.454856,275.041108" id="Fill-107" fill="#5C8098" mask="url(#mask-36)"></path>
                    <path d="M486.658973,273.163367 C486.283224,273.735367 485.510067,273.936867 484.834368,273.82745 C484.158669,273.71695 483.554437,273.355117 482.969697,272.999783 C482.190044,272.52745 481.401728,272.04645 480.77584,271.384533 C480.151035,270.722617 479.698403,269.844033 479.7428,268.934033 C479.819682,267.367533 481.469948,266.162867 483.03142,266.304783 C484.593975,266.444533 485.913971,267.69145 486.446734,269.165867 C486.979497,270.641367 486.825732,272.292367 486.347112,273.786283" id="Fill-108" fill="#5C8098" mask="url(#mask-36)"></path>
                    <path d="M489.350184,278.844475 C488.762196,279.434892 488.842327,280.456475 489.301456,281.150892 C489.761668,281.845308 490.505587,282.290558 491.223518,282.710892 C492.268469,283.324058 493.469352,283.956725 494.630169,283.615475 C496.024882,283.204892 496.677841,281.372975 496.075776,280.049142 C495.474793,278.725308 493.921984,277.999475 492.472045,278.094808 C491.021024,278.189058 489.688034,278.979892 488.648496,279.996058" id="Fill-109" fill="#5C8098" mask="url(#mask-36)"></path>
                    <path d="M481.418837,285.808792 C482.422641,284.787208 483.867165,284.213042 485.298695,284.270458 C486.729142,284.325708 488.124938,285.010375 489.045361,286.106708 C489.571627,286.733958 489.949543,287.508542 489.988525,288.325375 C490.026425,289.142208 489.688575,289.995875 489.022622,290.469292 C487.960344,291.222208 486.491997,290.839792 485.293281,290.333875 C484.32088,289.923292 483.350645,289.431458 482.646791,288.644958 C481.941855,287.858458 481.54878,286.722042 481.888795,285.722125" id="Fill-110" fill="#5C8098" mask="url(#mask-36)"></path>
                    <path d="M473.282074,296.883167 C474.559839,294.341667 477.535515,292.771917 480.354178,293.152167 C481.542066,293.313583 482.783014,293.883417 483.268131,294.978667 C483.936251,296.48125 482.814417,298.299083 481.306004,298.955583 C479.797592,299.611 478.069361,299.41275 476.447249,299.141917 C475.599376,299 474.714686,298.822333 474.05523,298.270917 C473.395773,297.720583 473.072,296.671917 473.583106,295.981833" id="Fill-111" fill="#5C8098" mask="url(#mask-36)"></path>
                    <path d="M467.693693,305.554167 C468.997446,304.257417 470.333685,302.937917 471.9872,302.135167 C473.640714,301.3335 475.701381,301.12875 477.27693,302.076667 C478.852479,303.024583 479.612641,305.328833 478.535203,306.8195 C477.556306,308.173667 475.649404,308.365417 473.980729,308.435833 C472.709462,308.49 471.390548,308.5355 470.221069,308.039333 C469.049423,307.54425 468.074857,306.340667 468.273018,305.084" id="Fill-112" fill="#5C8098" mask="url(#mask-36)"></path>
                    <path d="M464.539996,317.101417 C464.152335,315.4255 465.027279,313.622833 466.408998,312.599083 C467.791799,311.57425 469.583919,311.237333 471.302404,311.313167 C473.067452,311.393333 474.90072,311.935 476.097271,313.233917 C477.293822,314.533917 477.627341,316.710333 476.505506,318.075333 C475.768084,318.972333 474.587776,319.365583 473.452948,319.610417 C471.983518,319.92675 470.476188,320.0665 468.97319,320.02425 C467.791799,319.990667 466.541106,319.81625 465.626096,319.066583 C464.712169,318.315833 464.325591,316.821917 465.100913,315.930333" id="Fill-113" fill="#5C8098" mask="url(#mask-36)"></path>
                    <path d="M460.287096,328.659283 C461.451161,325.870783 464.236256,323.788617 467.253081,323.615283 C468.926086,323.521033 470.697632,324.035617 471.820549,325.280367 C472.942383,326.5262 473.228256,328.5607 472.225535,329.904033 C471.102618,331.406617 468.958572,331.585367 467.084156,331.633033 C465.902765,331.662283 464.720291,331.691533 463.538899,331.720783 C462.707269,331.741367 461.765188,331.717533 461.203188,331.104367 C460.788456,330.649367 460.701828,329.969033 460.828522,329.367783 C460.955215,328.76545 461.26816,328.221617 461.575689,327.688617" id="Fill-114" fill="#5C8098" mask="url(#mask-36)"></path>
                    <path d="M490.959193,271.06755 C490.382034,269.889967 489.794045,268.674467 489.709583,267.366883 C489.626203,266.058217 490.170877,264.61955 491.346854,264.039967 C492.588885,263.427883 494.228323,264.025883 494.939756,265.212133 C495.652272,266.399467 495.483348,267.997383 494.691783,269.131633 C493.899136,270.266967 492.568311,270.95705 491.199587,271.1618" id="Fill-115" fill="#5EF288" mask="url(#mask-36)"></path>
                    <path d="M495.078361,272.586275 C495.812534,271.504025 497.002588,270.701275 498.305259,270.581025 C499.607929,270.460775 500.988565,271.092358 501.627448,272.234192 C502.26633,273.374942 502.024854,274.979358 500.988565,275.779942 C500.213244,276.380108 499.154215,276.475442 498.178565,276.366025 C497.285213,276.264192 496.370203,275.987942 495.732403,275.353108 C495.094604,274.719358 494.818477,273.662025 495.279771,272.889608" id="Fill-116" fill="#5EF288" mask="url(#mask-36)"></path>
                </g>
                <path d="M17.4989965,331.5 L515.734807,331.5" id="Line-3" stroke="#33495B" stroke-linecap="square"></path>
            </g>
        </g>
    </g>
</svg>