<svg height="333" viewBox="0 0 562 333" width="562" xmlns="http://www.w3.org/2000/svg" xmlns:xlink="http://www.w3.org/1999/xlink"><mask id="a" fill="#fff"><path d="m0 338h561.711961v-337.80391667h-561.711961z" fill="none"/></mask><mask id="b" fill="#fff"><path d="m38.3707692 3.07450685c-2.422 2.06482192-3.8564615 5.05275342-4.9796923 8.03960275-.7893846 2.099452-1.5410769 4.3666438-3.29 5.7637534-.8044615.6439041-1.7726154 1.0562192-2.5587692 1.7217671-2.3746154 2.0063836-2.4478462 5.5873562-2.3261539 8.7029863.0958462 2.4836302.1927693 4.9694247.2886154 7.4530548.0592308 1.5161507.0452308 3.2238493-1.0316923 4.2865617-1.0898461 1.0735342-2.6535384.9858767-4.2506154.8993013-.8733846-.0476164-1.7553846-.0952328-2.576.0454521-4.1666153.716411-5.712 6.0494521-5.1983077 10.2656712.3413847 2.7920548.673077 6.5440137-1.96 7.5006713-.73661534.2683835-1.52169226.2066986-2.3121538.1450137-.42646154-.0324658-.854-.0660137-1.27507692-.0486987-3.73046154.1655754-7.25307693 6.3016028-6.80076923 10.0254247.45338461 3.7227397 3.08 10.0232603 8.83615384 11.1249315h38.58292311c3.9878461-1.9068219 6.2601538-6.8513562 5.1196923-11.1379178-.5535385-2.0778082-1.7995385-3.9673151-2.0181539-6.1068082-.5212307-5.0603288 4.7826154-9.4702603 3.9372308-14.485137-.4706154-2.7833973-2.758-4.9510274-3.4213846-7.6943836-.7043077-2.917589.5352308-5.9217534 1.8426154-8.6207397 1.3084615-2.6979041 2.7526154-5.5397397 2.4747692-8.5276712-.2756923-2.9879315-3.1489231-5.9314932-5.9973846-5.0300274.9013846-2.7617535 1.8135384-5.5938493 1.7187692-8.50061647-.0958461-2.90568493-1.4043077-5.94664384-3.9587692-7.31236986-.952-.50863014-1.9998462-.7380548-3.0616923-.7380548-2.0644616 0-4.186.86575343-5.7841539 2.22823288z" fill="none"/></mask><mask id="c" fill="#fff"><path d="m6.05011765 2.12785714c-2.09117647 1.3575-3.67835294 3.38785715-4.93305883 5.55857143l.01058824.09214286c-1.09058824.7575-1.35211765 2.39357147-.78352941 3.60428567.56752941 1.2085715 1.79364706 2.0003572 3.07588235 2.3303572 1.28117647.3278571 2.62905882.2560714 3.94729412.1285714 2.29870588-.2217857 4.64717648-.6192857 6.63564708-1.8096428 1.9895294-1.1871429 3.5661176-3.31928576 3.5343529-5.65607147-.0338823-2.5125-1.9958823-4.75714286-4.3718823-5.49-.6892942-.21214286-1.4018824-.31071429-2.1176471-.31071429-1.74811764 0-3.51317646.59035715-4.99764705 1.5525z" fill="none"/></mask><mask id="d" fill="#fff"><path d="m11.5803529.87214286c-4.58152937.17571428-8.88776466 3.47142857-10.30341172 7.88464285l.24882353-.38142857c.45-.89785714 1.05352941-1.73464285 1.656-2.5425l-1.656 2.5425c-.29329412.585-.52094118 1.19571429-.64058824 1.84285716-.30388235 1.6403571.29329412 3.5732143 1.78305882 4.2878571.89152942.4275 1.926.36 2.90541177.2646429 2.36011765-.225 4.74882354-.5592857 6.91200004-1.5417857 2.1621176-.9803572 4.0987058-2.6925 4.8737647-4.95857146.7750588-2.26714285.1450588-5.08607143-1.8127059-6.43714285-1.0387059-.71678572-2.3241177-.96857143-3.588353-.96857143-.126 0-.252.00214285-.378.0075z" fill="none"/></mask><mask id="e" fill="#fff"><path d="m8.7375.852c-2.37107143.37963636-4.40357143 1.87745455-6.31928571 3.348l.70821428.56945455c-1.29642857.96654545-2.73857143 2.25272727-2.55535714 3.87927272.13071428 1.16945455 1.13464286 2.08472723 2.23607143 2.44363633 1.10142857.3567273 2.29071428.264 3.44142857.1374546 2.09357143-.2290909 4.25464287-.5847273 5.99999997-1.78145456 1.7475-1.19672728 2.9592857-3.456 2.3442857-5.50581819-.6085714-2.04-2.8103571-3.16254545-4.93607139-3.16254545-.30964285 0-.61821428.024-.91928571.072z" fill="none"/></mask><mask id="f" fill="#fff"><path d="m4.382 1.287c-1.71015385 1.14833333-2.898 2.96616667-3.60984615 4.90641667l-.238 1.09525c-.96061539 1.209-.53307693 3.15358333.66123077 4.12966663 1.19215384.9771667 2.90661538 1.0985 4.38738461.6770834 1.47969231-.4225 2.77630769-1.3195 4.01584615-2.23383337 1.51738462-1.12016666 3.09830772-2.45266666 3.46769232-4.30841666.4038461-2.028-.9218462-4.17408334-2.8096923-4.992-.68384617-.29575-1.41830771-.43225-2.15815386-.43333334-1.30415385 0-2.62446154.42683334-3.71646154 1.15916667z" fill="none"/></mask><mask id="g" fill="#fff"><path d="m6.4537.59890909c-1.617.204-3.0514 1.14-4.2614 2.22545455l-.5511 2.19927272c-1.6269.86509091-1.8733 3.34581819-.6864 4.74763637 1.1858 1.40290907 3.3528 1.71599997 5.0787 1.06690907 1.727-.6501818 3.0437-2.09345453 3.9523-3.68836362.7997-1.40618182 1.3233-3.15927273.6116-4.61018182-.6303-1.28836363-2.1219-1.97563636-3.5783-1.97563636-.1892 0-.3784.012-.5654.03490909z" fill="none"/></mask><mask id="h" fill="#fff"><path d="m5.94981818.68509091c-1.50218182.60545454-2.69236363 1.78690909-3.75272727 3.01309091l.24327273-.00545455c-.65672728 1.22727273-1.32545455 2.49163637-1.48581818 3.87381818-.15927273 1.38218182.30654545 2.93018185 1.4890909 3.66327275 1.01127273.6294545 2.31927273.5443636 3.45709091.1909091 2.38036364-.7418182 4.38436363-2.60945457 5.29200003-4.93200003.6730909-1.72909091.6578182-3.91963636-.6850909-5.19927272-.70690913-.67418182-1.67236367-.97527273-2.65745458-.97527273-.648 0-1.30363637.12981818-1.90036364.37090909z" fill="none"/></mask><mask id="i" fill="#fff"><path d="m5.5297.05163636c-2.2473.20072728-4.1459 1.98-4.9137 4.08327273-.7007 1.92327273-.5764 4.05490909-.0242 6.03490911.5918.5596363 1.5191.7472727 2.3452.6141818.9724-.1581818 1.8414-.6741818 2.684-1.18145455 1.1198-.6730909 2.255-1.35927272 3.1548-2.304.8998-.94472727 1.551-2.1970909 1.4872-3.49527272-.1056-2.11418182-2.2396-3.76690909-4.3736-3.76690909-.1199 0-.2398.00436363-.3597.01527272zm-4.7707 10.67345454c-.0594-.1832727-.1155-.3687273-.1672-.5552727-.1045-.0992727-.1991-.21054547-.2805-.33272729z" fill="none"/></mask><mask id="j" fill="#fff"><path d="m1.05272727 3.304125c-.85745454 1.9485.07309091 4.642875 2.064 5.248125 1.656.502875 3.36981818-.430875 4.86-1.330875 1.02436364-.619875 2.08581823-1.2735 2.74254543-2.295.3916364-.60975.5901818-1.391625.5072728-2.107125-1.41490914-1.294875-3.15381823-2.2635-5.03018186-2.3895-.12109091-.007875-.24218182-.012375-.36436364-.012375-1.96036364 0-3.972 1.053-4.77927273 2.88675zm10.06909093-.97425c-.096-.295875-.2509091-.568125-.4712727-.7965zm.1047273.489375c.1450909.13275.286909.268875.4254545.408375l-.5301818-.89775c.0512727.1575.0861818.32175.1047273.489375z" fill="none"/></mask><mask id="k" fill="#fff"><path d="m7.60523077.5027c-2.01492308.0803-3.98030769 1.0648-5.278 2.6444-.73984615.9009-1.274 2.0141-1.32784615 3.1889-.05384616 1.1759.42215384 2.4035 1.36015384 3.0844 1.49584616 1.0835 3.56461539.5335 5.25430769-.1936 1.36769231-.5918 2.73538465-1.2991 3.72723075-2.4299.9918462-1.1308 1.5464616-2.7676 1.0672308-4.2042l.6623077.1243c-1.3504616-1.4058-3.26738463-2.2198-5.19507694-2.2198-.09046154 0-.17984615.0022-.27030769.0055z" fill="none"/></mask><mask id="l" fill="#fff"><path d="m4.85464286.1792c-1.665.231-3.405 1.0516-4.08642857 2.6279-.93428572 2.1615.6375 4.7751 2.75142857 5.72 2.11392857.9438 4.53642857.6578 6.80892854.2673 1.1882143-.2035 2.4289286-.4587 3.3525-1.2518.6053572-.5203 1.0103572-1.3486 1.0135715-2.1373-1.6425-3.2109-5.1321429-5.3075-8.65071433-5.3075-.3975 0-.79392857.0264-1.18928571.0814zm9.83892854 5.148c-.0117857-.385-.1210714-.7579-.3514285-1.078zm.0010715.0781c.0235714.0473.0471428.0935.0707142.1408l-.0717857-.2189c.0010715.0264.0010715.0517.0010715.0781z" fill="none"/></mask><mask id="m" fill="#fff"><path d="m2.7146875.90036364c-2.1898125 1.35272727-3.2459375 4.63963636-1.748875 6.76472727 1.36 1.93309091 4.0109375 2.20690909 6.330375 2.30836364 1.765875.07527275 3.5986875.13963635 5.2264375-.56618182 1.62775-.708 2.9824375-2.424 2.7061875-4.21527273l.805375.66981818c-1.812625-1.84909091-3.669875-3.73309091-5.9680625-4.87636363-1.2356875-.61527273-2.632875-.984-4.001375-.984-1.179375 0-2.3364375.27381818-3.3500625.89890909z" fill="none"/></mask><mask id="n" fill="#fff"><path d="m8.83394444.88415385c-2.43622222.112-4.96638888.87338461-6.61938888 2.70415384-1.65194445 1.83076923-2.11322223 4.89569231-.56366667 6.81692311 1.01861111 1.2653846 2.64733333 1.818923 4.21483333 2.1635384 2.02877778.4447693 4.11033334.6418462 6.18555558.5815385 1.6318889-.0452308 3.3587778-.2918462 4.6212222-1.3483077.9331111-.7818462 1.4682778-2.13661538 1.2497778-3.29861538l-.5256667-1.11892308c.2786667.32630769.4486111.71076923.5256667 1.11892308l.2491111.53092307c.5351667-2.36061538-.6734445-4.89676923-2.5808333-6.33984615-1.7342778-1.31276923-3.9403889-1.82430769-6.11166671-1.82430769-.21533333 0-.43066667.00430769-.64494445.014z" fill="none"/></mask><mask id="o" fill="#fff"><path d="m1.79152941 3.34208333c-1.55329412 1.76366667-1.94929412 4.64641667-.56117647 6.54983334 1.55435294 2.12875003 4.52541177 2.38116663 7.12270588 2.44833333 1.63588236.04225 3.27282358.0845 4.90870588.1256667 1.152.02925 2.4564706-.00325 3.2336471-.87425.5749411-.6424167.695647-1.60658337.5209411-2.4591667-.1768235-.85258333-.6088235-1.62391667-1.0355294-2.37791667l1.7841177 1.37366667c-1.6115294-3.952-5.4688236-6.89866667-9.6469412-7.1435-.18105882-.01083333-.36105882-.01625-.54317647-.01625-2.15047059 0-4.34964706.7475-5.78329412 2.37358333z" fill="none"/></mask><mask id="p" fill="#fff"><path d="m1.61222222 2.76763636c-1.03555555 1.69309091-.79111111 3.972.36 5.59090909 1.15222222 1.62 3.08666667 2.60400005 5.07555556 2.89527275l.35-.1341818c.83888889-1.67890913 1.69444444-3.41236367 1.81666666-5.27890913.12111112-1.86654545-.67222222-3.91963636-2.38111111-4.74654545-.49-.23672727-1.02444444-.34690909-1.56111111-.34690909-1.43888889 0-2.90666666.78654545-3.66 2.02036363z" fill="none"/></mask><mask id="q" fill="#fff"><path d="m.7744 3.02c-.9196 1.66-.5731 3.98888889.9174 5.15111111 1.1176.87222222 2.64 1.01111111 4.0436.85111111 1.2859-.14555555 2.6026-.54888889 3.5211-1.47.9174-.92111111 1.3134-2.45777778.6501-3.57888889l.2904-.44111111c-1.0571-1.57333333-2.7676-2.73888889-4.642-2.91222222-.1529-.01444444-.3058-.02222222-.4587-.02222222-1.7314 0-3.4782.89777778-4.3219 2.42222222z" fill="none"/></mask><mask id="r" fill="#fff"><path d="m0 338h561.711961v-337.80391667h-561.711961z" fill="none"/></mask><g fill="none" fill-rule="evenodd" transform=""><path d="m456.128513 117.418167s16.242774-31.2357503 16.7842-32.1392503c.541426-.9024167 4.331406 2.88925 4.331406 2.88925s1.805114 1.625 2.526293-9.2083334c.722262-10.8333333 2.707129-9.0274166 5.955684-13 3.248555-3.9725833 12.452794-15.1666666 12.452794-18.4166666s-7.038535-8.8475834-5.955684-10.11075c1.082852-1.26425 12.452794 6.1381666 12.814466 15.3465.36059 9.2083333.902016 15.1666666-1.444524 18.0559166-2.345456 2.88925-7.399125 1.4440834-7.759714 4.6940834-.361673 3.25 9.925418 1.625 6.497109 13.1809166-3.429391 11.5559167-5.955684 14.6249997-9.745664 15.1666667-3.789981.541667-5.595095 3.972583-2.527376 7.041667 3.068801 3.069083 4.872832 2.708333 2.346539 10.11075-2.526292 7.4035-16.42361 33.583333-16.42361 33.583333l-19.851919 12.63925v-11.554833z" fill="#c7eafb"/><path d="m476.161268 114.348758c3.167341-9.29825 15.340759-39.5416663 16.423611-38.9999997 1.082851.5416667-16.423611 48.2083337-16.423611 48.2083337l-6.13652 16.069083s8.483059-7.2215 9.385075-5.416667c.902015 1.805917-12.452794 14.26425-12.452794 14.26425l-10.828516 18.777417v-11.554833s18.435549-36.658917 20.032755-41.347584" fill="#abe1fa"/><path d="m560.730356 142.0783s2.207935 3.629167 0 4.577083c-2.207934.946834-3.471622-3.9455-9.466289-2.288-5.994666 1.656417-32.500709 6.075334-52.064589 22.173667-19.563881 16.098333-38.179183 51.136583-43.070424 84.280083l1.104509-70.075416 11.359113-15.46675 17.039754-10.7315 8.202601.946833 8.519877-10.417333 19.56388-5.681 13.253021-3.473167z" fill="#e1f4fd"/><path d="m456.128513 166.699433s31.238104-15.1515 33.605217-20.833583l5.679557 3.788417s.473206-9.943917 7.100258-9.943917c6.625969 0 15.145846-3.313917 24.612135-5.681 9.465206-2.368167 33.604135 4.26075 33.604135 8.049167 0 0-13.883241-4.893417-18.458289-4.42-4.575048.473416-5.522543 5.84025-6.942162 5.998416-1.419618.157084-.158096-5.366833-2.839237-5.682083-2.683306-.316333-9.466289.788667-10.570798 1.42025-1.105591.6305-1.262605 5.839167-2.367113 5.839167-1.104509 0-2.682224-3.787334-4.101842-3.629167-1.419619.158167-15.145846 8.207333-15.935245 9.784667-.788316 1.578416.946412 6.313666-.31511 6.787083s-3.313526-2.99975-5.364447-2.683417c-2.050921.316334-11.833402 3.9455-12.306609 5.208667-.473206 1.262083 5.837654 7.57575 4.102925 8.837833-1.735811 1.263167-6.784065-6.154416-9.782481-5.049416-2.997334 1.103916-18.616386 16.255416-18.616386 16.255416z" fill="#abe1fa"/><path d="m68.5737457 101.320917h390.0085083v-21.6937503h-390.0085083z" fill="#5c8098" mask="url(#a)"/><path d="m69.520158 331.566083h388.114601v-230.381666h-388.114601z" fill="#fff" mask="url(#a)"/><path d="m69.520158 331.566083h388.114601v-230.381666h-388.114601z" mask="url(#a)" stroke="#243746"/><path d="m-5.32323077 84.4109589h66.19738457v-88.97564383h-66.19738457z" fill="#c7eafb" mask="url(#b)" transform="translate(63 253)"/><g transform="translate(32 254)"><path d="m77.8315417.50267808s-21.5431667 43.44675342-21.94725 77.41567122" stroke="#8ed8f8"/><path d="m44.1380333 78.0026521s-2.8415833-54.8660411-43.5640833-77.56934251" stroke="#243746"/></g><g fill="#5c8098"><path d="m-5.24223529 19.3060714h28.07364709v-24.08785711h-28.07364709z" mask="url(#c)" transform="translate(80 316)"/><path d="m-4.48623529 20.1985714h27.46164709v-24.6910714h-27.46164709z" mask="url(#d)" transform="translate(76 297)"/><path d="m-4.80214286 16.7967273h24.91499996v-21.47236366h-24.91499996z" mask="url(#e)" transform="translate(70 283)"/><path d="m-5.37815385 17.74175h23.90230765v-23.0295h-23.90230765z" mask="url(#f)" transform="translate(64 268)"/><path d="m-5.2866 16.6167273h21.7195v-21.50727275h-21.7195z" mask="url(#g)" transform="translate(55 258)"/><path d="m-4.52945455 17.1501818h21.61309095v-22.29054544h-21.61309095z" mask="url(#h)" transform="translate(44 248)"/><path d="m-5.3669 16.2789091h21.1343v-21.69709092h-21.1343z" mask="url(#i)" transform="translate(35 239)"/><path d="m-4.72145455 14.319h21.82690905v-19.526625h-21.82690905z" mask="url(#j)" transform="translate(21 255)"/><path d="m-4.38953846 15.5298h22.84584616v-20.5326h-22.84584616z" mask="url(#k)" transform="translate(29 264)"/><path d="m-4.86428571 14.6607h24.98571431v-20.0629h-24.98571431z" mask="url(#l)" transform="translate(39 277)"/><path d="m-5.0458125 15.4716364h26.3914375v-20.92472731h-26.3914375z" mask="url(#m)" transform="translate(45 289)"/><path d="m-4.57583333 18.5456923h28.15272223v-23.06015384h-28.15272223z" mask="url(#n)" transform="translate(48 302)"/><path d="m-4.91505882 17.8890833h27.97517642v-22.33724997h-27.97517642z" mask="url(#o)" transform="translate(54 319)"/></g><path d="m-4.59888889 16.7083636h19.38111109v-21.41563633h-19.38111109z" fill="#5ef288" mask="url(#p)" transform="translate(22 235)"/><path d="m-5.2327 14.6355556h20.9693v-19.59333338h-20.9693z" fill="#5ef288" mask="url(#q)" transform="translate(13 245)"/><path d="m375.216322 166.193408c.61506.615334 1.742308.205834 1.742308-.71825v-31.380916c0-.615334-.511106-1.025917-1.024377-1.025917-8.816578.307667-16.813438 3.794917-22.861164 9.43475-.410401.410583-.410401 1.025917 0 1.4365z" fill="#5ef288"/><path d="m375.216322 173.372333-23.168693-23.176833c-.409318-.410583-1.025461-.410583-1.434779 0-5.945938 6.255167-9.534509 14.665083-9.534509 23.895083s3.588571 17.638834 9.432721 23.894c.409318.410584 1.023295.410584 1.434778 0l23.168694-23.176833c.511106-.4095.511106-1.025917.101788-1.435417" fill="#5c8098"/><path d="m383.110311 140.247358c-.513272 0-1.025461.4095-1.025461 1.025917v33.43275c0 .306583-.101788.512417-.30753.717167l-23.578011 23.587416c-.410401.410584-.410401 1.025917 0 1.435417 6.764574 6.358083 15.991553 10.050083 26.140038 9.43475 17.223838-1.12775 31.268424-15.074583 32.498544-32.303917 1.435861-19.998333-14.147457-36.714166-33.72758-37.3295" fill="#5c8098"/><path d="m132.837742 292.092667h23.876878v-48.056667h-23.876878z" fill="#5c8098" mask="url(#r)"/><path d="m165.396925 292.092667h23.876878v-89.402084h-23.876878z" fill="#5c8098" mask="url(#r)"/><path d="m197.956108 292.092667h23.876879v-114.040334h-23.876879z" fill="#5c8098" mask="url(#r)"/><path d="m125.263411 292.332083h99.410112" mask="url(#r)" stroke="#243746" stroke-linejoin="bevel"/><path d="m138.732678 69.5781667c0 38.3175003-31.056185 69.3820833-69.3663932 69.3820833-38.3102081 0-69.36639309-31.064583-69.36639309-69.3820833 0-38.3175 31.05618499-69.38208337 69.36639309-69.38208337 38.3102082 0 69.3663932 31.06458337 69.3663932 69.38208337" fill="#fff" mask="url(#r)"/><path d="m92.8510628 69.578275c0 30.954083-9.6471252 57.58025-23.4827206 69.382083-13.8355954-11.793166-23.487052-38.419333-23.487052-69.382083s9.6514566-57.5889167 23.487052-69.38208333c13.8355954 11.80183333 23.4827206 38.42800003 23.4827206 69.38208333" fill="#5ef288" mask="url(#r)"/><path d="m18.1217387 69.5781667c0 25.73025 9.6590366 48.7348333 24.844948 64.0585833-25.0571869-10.46175-42.66976878-35.2029167-42.66976878-64.0585833 0-28.8556667 17.61258188-53.5968334 42.66976878-64.05858337-15.1859114 15.32374997-24.844948 38.32833337-24.844948 64.05858337" fill="#5ef288" mask="url(#r)"/><path d="m119.944011 69.5781667c0 25.73025-9.659037 48.7348333-24.8449482 64.0585833 25.0571872-10.46175 42.6697692-35.2029167 42.6697692-64.0585833 0-28.8556667-17.612582-53.5968334-42.6697692-64.05858337 15.1859112 15.32374997 24.8449482 38.32833337 24.8449482 64.05858337" fill="#5ef288" mask="url(#r)"/><path d="m52.6101303 203.992858h10.465761v-23.596083h-11.7955029v22.26575c0 .7345.5955684 1.330333 1.3297419 1.330333" fill="#5c8098" mask="url(#r)"/><path d="m63.0762162 203.992858h22.2807553c.7233449 0 1.3102505-.587166 1.3102505-1.310833v-22.28525h-23.5910058z" fill="#fff" mask="url(#r)"/><path d="m63.0762162 203.992858h22.2807553c.7233449 0 1.3102505-.587166 1.3102505-1.310833v-22.28525h-23.5910058z" mask="url(#r)" stroke="#243746" stroke-linejoin="bevel"/><path d="m48.0940975 180.396233h42.544158c.3952408 0 .7157649-.319583.7157649-.715v-7.7935c0-.395416-.3205241-.715-.7157649-.715h-42.544158c-.3952409 0-.7146821.319584-.7146821.715v7.7935c0 .395417.3194412.715.7146821.715" fill="#fff" mask="url(#r)"/><path d="m48.0940975 180.396233h42.544158c.3952408 0 .7157649-.319583.7157649-.715v-7.7935c0-.395416-.3205241-.715-.7157649-.715h-42.544158c-.3952409 0-.7146821.319584-.7146821.715v7.7935c0 .395417.3194412.715.7146821.715z" mask="url(#r)" stroke="#243746" stroke-linejoin="bevel"/><path d="m23.2970116 121.1743 28.7681194 49.999083h35.3875915l28.2884165-49.999083" mask="url(#r)" stroke="#243746" stroke-linejoin="bevel"/><path d="m69.5190751 171.172842v-37.536417" mask="url(#r)" stroke="#243746" stroke-linejoin="bevel"/><path d="m261.2542 235.191667h155.743303v-10.654584h-155.743303z" fill="#c7eafb" mask="url(#r)"/><path d="m261.2542 254.339583h155.743303v-10.654583h-155.743303z" fill="#c7eafb" mask="url(#r)"/><path d="m261.2542 273.488583h155.743303v-10.654583h-155.743303z" fill="#c7eafb" mask="url(#r)"/><path d="m261.255283 292.635417h95.392732v-10.654584h-95.392732z" fill="#c7eafb" mask="url(#r)"/><path d="m261.2542 156.951167h62.012748v-10.654584h-62.012748z" fill="#c7eafb" mask="url(#r)"/><path d="m261.2542 176.099083h62.012748v-10.654583h-62.012748z" fill="#c7eafb" mask="url(#r)"/><path d="m261.2542 195.248083h62.012748v-10.654583h-62.012748z" fill="#c7eafb" mask="url(#r)"/><path d="m261.2542 214.394917h37.983187v-10.654584h-37.983187z" fill="#c7eafb" mask="url(#r)"/><path d="m444.638266 91.1129917c0 2.2934166-1.858174 4.1524166-4.150571 4.1524166s-4.151653-1.859-4.151653-4.1524166c0-2.2934167 1.859256-4.1524167 4.151653-4.1524167s4.150571 1.859 4.150571 4.1524167z" mask="url(#r)" stroke="#243746"/><path d="m432.185472 91.1129917c0 2.2934166-1.858174 4.1524166-4.150571 4.1524166s-4.151653-1.859-4.151653-4.1524166c0-2.2934167 1.859256-4.1524167 4.151653-4.1524167s4.150571 1.859 4.150571 4.1524167z" mask="url(#r)" stroke="#243746"/><path d="m419.732678 91.1129917c0 2.2934166-1.858174 4.1524166-4.15057 4.1524166-2.292397 0-4.151654-1.859-4.151654-4.1524166 0-2.2934167 1.859257-4.1524167 4.151654-4.1524167 2.292396 0 4.15057 1.859 4.15057 4.1524167z" mask="url(#r)" stroke="#243746"/><path d="m412.288073 332.058567c-2.46457-7.083917 1.095846-17.025667 8.087819-19.732917 3.004913-1.162417 6.475453-1.379083 8.97684-3.4125 4.240447-3.446083 4.023876-10.7445 8.674724-13.613167 3.220401-1.98575 7.438108-.934916 10.840428.7215 3.401237 1.656417 6.679029 3.901084 10.447353 4.232584 3.329768.293583 6.58482-.957667 9.905926-1.334667 3.321106-.378083 7.275681.51675 8.670393 3.5555 1.144575 2.49275.215488 5.73625 1.883079 7.91375 1.406625 1.835167 4.006552 2.085417 6.184166 2.86 7.29842 2.5935 10.066189 11.271 11.859391 18.809917z" fill="#e1f4fd" mask="url(#r)"/><path d="m457.256303 332.158017s2.005441-38.770334 30.742158-54.8145" mask="url(#r)" stroke="#243746"/><path d="m453.951656 326.179208c.787233.540584.975649 1.7095.566331 2.571834-.4104.862333-1.294007 1.427833-2.219846 1.662916-.926921.236167-1.899321.183084-2.851148.092084-1.661094-.157084-3.355757-.440917-4.791618-1.291334-1.435862-.84825-2.573939-2.36925-2.551199-4.0365.023823-1.794 1.440193-3.39625 3.156513-3.918416 1.715237-.522167 3.627553-.082334 5.137048.886166 1.508412.9685 2.655152 2.419084 3.561499 3.967167" fill="#5c8098" mask="url(#r)"/><path d="m455.52688 311.02565c.717931.951167 1.438027 1.957583 1.657846 3.128667.219819 1.171083-.211156 2.55125-1.287511 3.0615-.643213.304416-1.390381.255666-2.098566.189583-1.702243-.161417-3.428308-.400833-4.98978-1.100667-1.561472-.699833-2.959434-1.922916-3.519268-3.540333-.559835-1.617417-.103954-3.63025 1.31025-4.593333.825133-.563334 1.864671-.72475 2.86306-.686834 3.308112.125667 6.418062 2.477584 7.439191 5.627917" fill="#5c8098" mask="url(#r)"/><path d="m461.24033 302.982658c.139688.813584-.809973 1.4625-1.597206 1.71275-.78615.251334-1.634023.186334-2.454825.0975-1.493252-.160333-3.035233-.410583-4.282678-1.249083-1.245279-.8385-2.110478-2.423417-1.673006-3.859917.499195-1.639083 2.488393-2.433166 4.179808-2.166666 1.691414.2665 3.142435 1.31625 4.508994 2.347583 0 0 .956158.99775 1.318913 3.117833" fill="#5c8098" mask="url(#r)"/><path d="m465.854469 292.123758c.681114.853667.378998 2.22625-.468874 2.91525-.84679.690084-2.064998.775667-3.114282.47775-1.051449-.297916-1.971873-.930583-2.852231-1.57625-1.076354-.790833-2.199272-1.730083-2.461322-3.040916-.285873-1.432167.654043-2.94775 1.994613-3.524084 1.341653-.577416 2.956185-.297916 4.170062.512417 1.213876.810333 2.057418 2.094083 2.56311 3.463417" fill="#5c8098" mask="url(#r)"/><path d="m471.209171 282.853242c1.130497.606666 1.301587 2.345416.477537 3.329083-.825133.982583-2.330296 1.2025-3.530096.7475s-2.115892-1.469-2.746112-2.585917c-.555503-.98475-.920424-2.215416-.426643-3.232666.495946-1.019417 1.755302-1.503667 2.880385-1.359584 1.124.144084 2.121306.7995 2.961599 1.56" fill="#5c8098" mask="url(#r)"/><path d="m478.284848 275.037858c.460212.860167.929087 1.746334 1.040621 2.715917.111533.9685-.215488 2.052917-1.042787 2.568583-.709267.440917-1.626443.38025-2.422339.132167-1.668674-.518917-3.07205-1.827583-3.708767-3.456917-.472123-1.211166-.462377-2.74625.479704-3.644333.820801-.78325 2.139715-.84825 3.194412-.424667 1.052532.42575 1.886328 1.2545 2.629164 2.1125" fill="#5c8098" mask="url(#r)"/><path d="m486.658973 273.163367c-.375749.572-1.148906.7735-1.824605.664083-.675699-.1105-1.279931-.472333-1.864671-.827667-.779653-.472333-1.567969-.953333-2.193857-1.61525-.624805-.661916-1.077437-1.5405-1.03304-2.4505.076882-1.5665 1.727148-2.771166 3.28862-2.62925 1.562555.13975 2.882551 1.386667 3.415314 2.861084.532763 1.4755.378998 3.1265-.099622 4.620416" fill="#5c8098" mask="url(#r)"/><path d="m489.350184 278.844475c-.587988.590417-.507857 1.612-.048728 2.306417.460212.694416 1.204131 1.139666 1.922062 1.56 1.044951.613166 2.245834 1.245833 3.406651.904583 1.394713-.410583 2.047672-2.2425 1.445607-3.566333-.600983-1.323834-2.153792-2.049667-3.603731-1.954334-1.451021.09425-2.784011.885084-3.823549 1.90125" fill="#5c8098" mask="url(#r)"/><path d="m481.418837 285.808792c1.003804-1.021584 2.448328-1.59575 3.879858-1.538334 1.430447.05525 2.826243.739917 3.746666 1.83625.526266.62725.904182 1.401834.943164 2.218667.0379.816833-.29995 1.6705-.965903 2.143917-1.062278.752916-2.530625.3705-3.729341-.135417-.972401-.410583-1.942636-.902417-2.64649-1.688917-.704936-.7865-1.098011-1.922916-.757996-2.922833" fill="#5c8098" mask="url(#r)"/><path d="m473.282074 296.883167c1.277765-2.5415 4.253441-4.11125 7.072104-3.731 1.187888.161416 2.428836.73125 2.913953 1.8265.66812 1.502583-.453714 3.320416-1.962127 3.976916-1.508412.655417-3.236643.457167-4.858755.186334-.847873-.141917-1.732563-.319584-2.392019-.871-.659457-.550334-.98323-1.599-.472124-2.289084" fill="#5c8098" mask="url(#r)"/><path d="m467.693693 305.554167c1.303753-1.29675 2.639992-2.61625 4.293507-3.419 1.653514-.801667 3.714181-1.006417 5.28973-.0585 1.575549.947916 2.335711 3.252166 1.258273 4.742833-.978897 1.354167-2.885799 1.545917-4.554474 1.616333-1.271267.054167-2.590181.099667-3.75966-.3965-1.171646-.495083-2.146212-1.698666-1.948051-2.955333" fill="#5c8098" mask="url(#r)"/><path d="m464.539996 317.101417c-.387661-1.675917.487283-3.478584 1.869002-4.502334 1.382801-1.024833 3.174921-1.36175 4.893406-1.285916 1.765048.080166 3.598316.621833 4.794867 1.92075 1.196551 1.3 1.53007 3.476416.408235 4.841416-.737422.897-1.91773 1.29025-3.052558 1.535084-1.46943.316333-2.97676.456083-4.479758.413833-1.181391-.033583-2.432084-.208-3.347094-.957667-.913927-.75075-1.300505-2.244666-.525183-3.13625" fill="#5c8098" mask="url(#r)"/><path d="m460.287096 328.659283c1.164065-2.7885 3.94916-4.870666 6.965985-5.044 1.673005-.09425 3.444551.420334 4.567468 1.665084 1.121834 1.245833 1.407707 3.280333.404986 4.623666-1.122917 1.502584-3.266963 1.681334-5.141379 1.729-1.181391.02925-2.363865.0585-3.545257.08775-.83163.020584-1.773711-.00325-2.335711-.616416-.414732-.455-.50136-1.135334-.374666-1.736584.126693-.602333.439638-1.146166.747167-1.679166" fill="#5c8098" mask="url(#r)"/><path d="m490.959193 271.06755c-.577159-1.177583-1.165148-2.393083-1.24961-3.700667-.08338-1.308666.461294-2.747333 1.637271-3.326916 1.242031-.612084 2.881469-.014084 3.592902 1.172166.712516 1.187334.543592 2.78525-.247973 3.9195-.792647 1.135334-2.123472 1.825417-3.492196 2.030167" fill="#5ef288" mask="url(#r)"/><path d="m495.078361 272.586275c.734173-1.08225 1.924227-1.885 3.226898-2.00525 1.30267-.12025 2.683306.511333 3.322189 1.653167.638882 1.14075.397406 2.745166-.638883 3.54575-.775321.600166-1.83435.6955-2.81.586083-.893352-.101833-1.808362-.378083-2.446162-1.012917-.637799-.63375-.913926-1.691083-.452632-2.4635" fill="#5ef288" mask="url(#r)"/><path d="m17.4989965 331.5h498.2358105" stroke="#33495b" stroke-linecap="square"/></g></svg>