<?xml version="1.0" encoding="utf-8"?>
<!-- Generator: Adobe Illustrator 23.0.3, SVG Export Plug-In . SVG Version: 6.00 Build 0)  -->
<svg version="1.1" id="Layer_1" xmlns="http://www.w3.org/2000/svg" xmlns:xlink="http://www.w3.org/1999/xlink" x="0px" y="0px"
	 viewBox="0 0 884 843" style="enable-background:new 0 0 884 843;" xml:space="preserve">
<style type="text/css">
	.st0{fill:none;stroke:#979797;}
	.st1{fill:none;stroke:#979797;stroke-linecap:square;}
	.st2{fill-rule:evenodd;clip-rule:evenodd;fill:#F4F4F4;stroke:url(#SVGID_1_);stroke-width:3;}
	.st3{fill:none;stroke:#F3F3F3;stroke-width:4;}
	.st4{fill-rule:evenodd;clip-rule:evenodd;fill:#EFF9FE;}
	.st5{fill:none;stroke:#243746;stroke-linejoin:bevel;}
	.st6{fill-rule:evenodd;clip-rule:evenodd;fill:#FFFFFF;}
	.st7{fill:none;stroke:#8ED8F8;}
	.st8{fill-rule:evenodd;clip-rule:evenodd;fill:#5C8098;}
	.st9{fill-rule:evenodd;clip-rule:evenodd;fill:#ABE1FA;}
	.st10{fill:none;stroke:#243746;}
	.st11{fill-rule:evenodd;clip-rule:evenodd;fill:#5EF288;}
	.st12{fill:#F4F4F4;stroke:#DEDEDE;}
	.st13{fill:none;stroke:#F3F3F3;stroke-width:6;}
	.st14{fill:#F4F4F4;}
	.st15{fill-rule:evenodd;clip-rule:evenodd;fill:#33495B;}
	.st16{fill:#ABE1FA;}
	.st17{fill:#5C8098;}
	.st18{fill:#FFFFFF;}
	.st19{fill:none;}
	.st20{fill:url(#SVGID_2_);enable-background:new    ;}
	.st21{fill:url(#SVGID_3_);enable-background:new    ;}
	.st22{fill:url(#SVGID_4_);enable-background:new    ;}
	.st23{fill:#677E7E;}
</style>
<title>Group 18</title>
<desc>Created with Sketch.</desc>
<g id="Page-1">
	<g transform="translate(-278.000000, -799.000000)">
		<g id="Group-18" transform="translate(285.000000, 805.000000)">
			<circle id="Oval" class="st0" cx="435" cy="435" r="369"/>
			<path id="Line-10" class="st1" d="M626,546L435.5,435"/>
			<path id="Line-10-Copy" class="st1" d="M244,546l190.5-111"/>
			<path id="Line-9" class="st1" d="M654,351h113.5"/>
			<path id="Line-9-Copy" class="st1" d="M102,351h113.5"/>
			<path id="Line-8" class="st1" d="M435.5,120.5v51.2"/>
			<path id="Line-8-Copy" class="st1" d="M435.5,291.5v51.2"/>
			<path id="Line-8-Copy-2" class="st1" d="M435.5,530.5v89.7"/>
			<g>
				<g>
					<circle id="path-2" cx="435" cy="435" r="103"/>
				</g>
				
					<linearGradient id="SVGID_1_" gradientUnits="userSpaceOnUse" x1="273.5522" y1="9.818258e-03" x2="272.6091" y2="0.9914" gradientTransform="matrix(203 0 0 203 -55000.5 333.5019)">
					<stop  offset="0" style="stop-color:#92FECB"/>
					<stop  offset="1" style="stop-color:#00DBFF"/>
				</linearGradient>
				<circle class="st2" cx="435" cy="435" r="101.5"/>
				<circle class="st3" cx="435" cy="435" r="105"/>
			</g>
			<g id="Group-126" transform="translate(254.000000, 629.000000)">
				<path id="Fill-1" class="st4" d="M50,176c0-72.3,58.7-131,131-131s131,58.7,131,131"/>
				<g id="Group-5" transform="translate(0.000000, 176.000000)">
					<g id="Clip-4">
					</g>
					<path id="Stroke-3" class="st5" d="M0,0.5h362.8"/>
				</g>
				<g id="Group-9" transform="translate(180.000000, 0.000000)">
					<path id="Fill-6" class="st6" d="M0.5,33V0.7"/>
					<path id="Stroke-8" class="st7" d="M0.5,33V0.7"/>
				</g>
				<g id="Group-13" transform="translate(158.000000, 19.000000)">
					<path id="Fill-10" class="st6" d="M2.6,15.7L0.5,0.2"/>
					<path id="Stroke-12" class="st7" d="M2.6,15.7L0.5,0.2"/>
				</g>
				<g id="Group-17" transform="translate(131.000000, 8.000000)">
					<path id="Fill-14" class="st6" d="M9.4,31.4L0.2,0.6"/>
					<path id="Stroke-16" class="st7" d="M9.4,31.4L0.2,0.6"/>
				</g>
				<g id="Group-21" transform="translate(116.000000, 32.000000)">
					<path id="Fill-18" class="st6" d="M6.5,14.8L0.6,0.3"/>
					<path id="Stroke-20" class="st7" d="M6.5,14.8L0.6,0.3"/>
				</g>
				<g id="Group-25" transform="translate(88.000000, 30.000000)">
					<path id="Fill-22" class="st6" d="M16.9,25.7L0.4,0.1"/>
					<path id="Stroke-24" class="st7" d="M16.9,25.7L0.4,0.1"/>
				</g>
				<g id="Group-29" transform="translate(78.000000, 56.000000)">
					<path id="Fill-26" class="st6" d="M10.4,12.9L0.1,0.2"/>
					<path id="Stroke-28" class="st7" d="M10.4,12.9L0.1,0.2"/>
				</g>
				<g id="Group-33" transform="translate(50.000000, 61.000000)">
					<path id="Fill-30" class="st6" d="M23.4,21.7L0.2,0.2"/>
					<path id="Stroke-32" class="st7" d="M23.4,21.7L0.2,0.2"/>
				</g>
				<g id="Group-37" transform="translate(47.000000, 88.000000)">
					<path id="Fill-34" class="st6" d="M15.6,10.4L0.3,0.1"/>
					<path id="Stroke-36" class="st7" d="M15.6,10.4L0.3,0.1"/>
				</g>
				<g id="Group-41" transform="translate(23.000000, 102.000000)">
					<path id="Fill-38" class="st6" d="M29.6,14.4L0,0.3"/>
					<path id="Stroke-40" class="st7" d="M29.6,14.4L0,0.3"/>
				</g>
				<g id="Group-45" transform="translate(29.000000, 129.000000)">
					<path id="Fill-42" class="st6" d="M15.6,5.3l-15-4.8"/>
					<path id="Stroke-44" class="st7" d="M15.6,5.3l-15-4.8"/>
				</g>
				<g id="Group-49" transform="translate(8.000000, 149.000000)">
					<path id="Fill-46" class="st6" d="M31.7,5.4L0,0.4"/>
					<path id="Stroke-48" class="st7" d="M31.7,5.4L0,0.4"/>
				</g>
				<g id="Group-53" transform="translate(202.000000, 21.000000)">
					<path id="Fill-50" class="st6" d="M0.5,15.4L2.7,0.2"/>
					<path id="Stroke-52" class="st7" d="M0.5,15.4L2.7,0.2"/>
				</g>
				<g id="Group-57" transform="translate(223.000000, 9.000000)">
					<path id="Fill-54" class="st6" d="M0.6,31.5L11,0.4"/>
					<path id="Stroke-56" class="st7" d="M0.6,31.5L11,0.4"/>
				</g>
				<g id="Group-61" transform="translate(246.000000, 35.000000)">
					<path id="Fill-58" class="st6" d="M0.1,14.5L6.6,0.3"/>
					<path id="Stroke-60" class="st7" d="M0.1,14.5L6.6,0.3"/>
				</g>
				<g id="Group-65" transform="translate(264.000000, 34.000000)">
					<path id="Fill-62" class="st6" d="M0,25.4L18.8,0.2"/>
					<path id="Stroke-64" class="st7" d="M0,25.4L18.8,0.2"/>
				</g>
				<g id="Group-69" transform="translate(279.000000, 63.000000)">
					<path id="Fill-66" class="st6" d="M0.5,12.4L11.4,0.5"/>
					<path id="Stroke-68" class="st7" d="M0.5,12.4L11.4,0.5"/>
				</g>
				<g id="Group-73" transform="translate(294.000000, 73.000000)">
					<path id="Fill-70" class="st6" d="M0.5,18.4L25.6,0"/>
					<path id="Stroke-72" class="st7" d="M0.5,18.4L25.6,0"/>
				</g>
				<g id="Group-77" transform="translate(306.000000, 104.000000)">
					<path id="Fill-74" class="st6" d="M0.3,7l14.2-6.5"/>
					<path id="Stroke-76" class="st7" d="M0.3,7l14.2-6.5"/>
				</g>
				<g id="Group-81" transform="translate(314.000000, 121.000000)">
					<path id="Fill-78" class="st6" d="M0.3,10.6L31,0.6"/>
					<path id="Stroke-80" class="st7" d="M0.3,10.6L31,0.6"/>
				</g>
				<g id="Group-85" transform="translate(320.000000, 151.000000)">
					<path id="Fill-82" class="st6" d="M0.2,2.6l15.5-2.4"/>
					<path id="Stroke-84" class="st7" d="M0.2,2.6l15.5-2.4"/>
				</g>
				<polygon id="Fill-86" class="st8" points="79.8,175 65,175 85.2,144 100,144 				"/>
				<polygon id="Fill-88" class="st8" points="191.2,175 206,175 185.8,144 171,144 				"/>
				<polygon id="Fill-90" class="st8" points="58.6,78 49,78 72.4,127 82,127 				"/>
				<polygon id="Fill-92" class="st9" points="156,127 81,127 58,78 133,78 				"/>
				<g id="Clip-95">
				</g>
				<polygon id="Fill-94" class="st9" points="235,144 270,144 270,126 235,126 				"/>
				<polygon id="Stroke-96" class="st10" points="235,144 270,144 270,126 235,126 				"/>
				<polygon id="Fill-97" class="st6" points="46,144 233,144 233,126 46,126 				"/>
				<polygon id="Stroke-98" class="st10" points="46,144 233,144 233,126 46,126 				"/>
				<polygon id="Fill-99" class="st11" points="166,15 103,56.4 103,70 138.7,70 				"/>
				<polygon id="Fill-100" class="st11" points="166,15 229,56.4 229,70 193.5,70 				"/>
				<polygon id="Fill-101" class="st6" points="140,70 195,70 167.4,15 				"/>
				<polygon id="Fill-102" class="st8" points="164,127 170,127 170,70 164,70 				"/>
				<path id="Stroke-103" class="st10" d="M104.5,69v5"/>
				<path id="Stroke-104" class="st10" d="M109.5,69v5"/>
				<path id="Stroke-105" class="st10" d="M115.5,69v5"/>
				<path id="Stroke-106" class="st10" d="M122.5,69v5"/>
				<path id="Stroke-107" class="st10" d="M126.5,69v5"/>
				<path id="Stroke-108" class="st10" d="M132.5,69v5"/>
				<path id="Stroke-109" class="st10" d="M139.5,69v5"/>
				<path id="Stroke-110" class="st10" d="M145.5,69v5"/>
				<path id="Stroke-111" class="st10" d="M150.5,69v5"/>
				<path id="Stroke-112" class="st10" d="M157.5,69v5"/>
				<path id="Stroke-113" class="st10" d="M163.5,69v5"/>
				<path id="Stroke-114" class="st10" d="M169.5,69v5"/>
				<path id="Stroke-115" class="st10" d="M175.5,69v5"/>
				<path id="Stroke-116" class="st10" d="M181.5,69v5"/>
				<path id="Stroke-117" class="st10" d="M187.5,69v5"/>
				<path id="Stroke-118" class="st10" d="M193.5,69v5"/>
				<path id="Stroke-119" class="st10" d="M199.5,69v5"/>
				<path id="Stroke-120" class="st10" d="M205.5,69v5"/>
				<path id="Stroke-121" class="st10" d="M212.5,69v5"/>
				<path id="Stroke-122" class="st10" d="M217.5,69v5"/>
				<path id="Stroke-123" class="st10" d="M222.5,69v5"/>
				<path id="Stroke-124" class="st10" d="M229.5,69v5"/>
				<path id="Stroke-125" class="st10" d="M230,69.5H104"/>
			</g>
			<path id="Shape" class="st0" d="M599.4,579.7c34-38.6,54.6-89.2,54.6-144.7c0-42.2-11.9-81.5-32.6-115 M250.5,317
				c-21.8,34-34.5,74.5-34.5,118c0,56.7,21.5,108.3,56.8,147.2"/>
			<g transform="translate(175.000000, 280.000000)">
				<g>
					<g>
						<circle id="path-8" class="st12" cx="71" cy="69" r="69"/>
					</g>
					<circle class="st13" cx="71" cy="69" r="72"/>
				</g>
				<g id="Oval-Copy-10">
					<g>
						<circle id="path-9" cx="71" cy="69" r="63"/>
					</g>
					<g>
						<circle class="st14" cx="71" cy="69" r="63"/>
					</g>
				</g>
				<path id="Accounts-payable" class="st15" d="M37.3,61.3h-5.8L30.3,64h-3l5.6-12.6h2.9L41.5,64h-3.1L37.3,61.3z M36.4,59.1
					l-2-4.8l-2,4.8H36.4z M46.8,64.1c-1,0-2-0.2-2.8-0.6c-0.8-0.4-1.5-1-1.9-1.8c-0.5-0.8-0.7-1.6-0.7-2.6s0.2-1.8,0.7-2.6
					s1.1-1.3,1.9-1.8c0.8-0.4,1.7-0.6,2.8-0.6c1,0,1.9,0.2,2.7,0.6s1.3,1,1.7,1.8L49,57.8c-0.5-0.9-1.2-1.3-2.2-1.3
					c-0.7,0-1.3,0.2-1.8,0.7s-0.7,1.1-0.7,2c0,0.8,0.2,1.5,0.7,2s1.1,0.7,1.8,0.7c1,0,1.7-0.4,2.2-1.3l2.2,1.2
					c-0.3,0.8-0.9,1.4-1.7,1.8C48.7,63.9,47.8,64.1,46.8,64.1z M57,64.1c-1,0-2-0.2-2.8-0.6c-0.8-0.4-1.5-1-1.9-1.8
					c-0.5-0.8-0.7-1.6-0.7-2.6s0.2-1.8,0.7-2.6s1.1-1.3,1.9-1.8c0.8-0.4,1.7-0.6,2.8-0.6c1,0,1.9,0.2,2.7,0.6c0.8,0.4,1.3,1,1.7,1.8
					l-2.2,1.2c-0.5-0.9-1.2-1.3-2.2-1.3c-0.7,0-1.3,0.2-1.8,0.7s-0.7,1.1-0.7,2c0,0.8,0.2,1.5,0.7,2s1.1,0.7,1.8,0.7
					c1,0,1.7-0.4,2.2-1.3l2.2,1.2c-0.3,0.8-0.9,1.4-1.7,1.8C58.9,63.9,58,64.1,57,64.1z M67.1,64.1c-1,0-1.9-0.2-2.7-0.6
					c-0.8-0.4-1.4-1-1.9-1.8s-0.7-1.6-0.7-2.6s0.2-1.8,0.7-2.6s1.1-1.3,1.9-1.8c0.8-0.4,1.7-0.6,2.7-0.6s1.9,0.2,2.7,0.6
					c0.8,0.4,1.4,1,1.9,1.8s0.7,1.6,0.7,2.6s-0.2,1.8-0.7,2.6s-1.1,1.3-1.9,1.8C69,63.9,68.1,64.1,67.1,64.1z M67.1,61.8
					c0.7,0,1.3-0.2,1.8-0.7s0.7-1.1,0.7-2c0-0.8-0.2-1.5-0.7-2s-1.1-0.7-1.8-0.7s-1.3,0.2-1.8,0.7s-0.7,1.1-0.7,2
					c0,0.8,0.2,1.5,0.7,2S66.4,61.8,67.1,61.8z M83.7,54.3V64H81v-1.2c-0.4,0.4-0.8,0.7-1.3,1c-0.5,0.2-1.1,0.3-1.7,0.3
					c-1.3,0-2.3-0.4-3-1.1c-0.7-0.7-1.1-1.8-1.1-3.3v-5.5h2.8v5.1c0,1.6,0.7,2.3,2,2.3c0.7,0,1.2-0.2,1.6-0.7c0.4-0.4,0.6-1.1,0.6-2
					v-4.8h2.8V54.3z M91.9,54.2c1.2,0,2.2,0.4,2.9,1.1c0.7,0.7,1.1,1.8,1.1,3.2V64h-2.8v-5.1c0-0.8-0.2-1.3-0.5-1.7
					s-0.8-0.6-1.5-0.6s-1.3,0.2-1.7,0.7c-0.4,0.4-0.6,1.1-0.6,2V64H86v-9.7h2.7v1.1c0.4-0.4,0.8-0.7,1.4-0.9
					C90.6,54.3,91.2,54.2,91.9,54.2z M104.3,63.5c-0.3,0.2-0.6,0.4-1,0.5s-0.8,0.2-1.3,0.2c-1.2,0-2-0.3-2.7-0.9
					c-0.6-0.6-0.9-1.5-0.9-2.6v-4h-1.5v-2.2h1.5v-2.4h2.8v2.4h2.4v2.2h-2.4v3.9c0,0.4,0.1,0.7,0.3,0.9c0.2,0.2,0.5,0.3,0.9,0.3
					s0.8-0.1,1.1-0.4L104.3,63.5z M108.8,64.1c-0.8,0-1.6-0.1-2.4-0.3s-1.4-0.4-1.8-0.7l0.9-2c0.4,0.3,1,0.5,1.6,0.7
					s1.2,0.3,1.8,0.3c1.2,0,1.8-0.3,1.8-0.9c0-0.3-0.2-0.5-0.5-0.6s-0.8-0.2-1.5-0.3c-0.8-0.1-1.4-0.3-2-0.4c-0.5-0.2-1-0.4-1.3-0.8
					c-0.4-0.4-0.6-1-0.6-1.7c0-0.6,0.2-1.2,0.5-1.6c0.4-0.5,0.9-0.8,1.5-1.1c0.7-0.3,1.5-0.4,2.4-0.4c0.7,0,1.4,0.1,2,0.2
					c0.7,0.2,1.2,0.4,1.7,0.6l-0.9,2c-0.9-0.5-1.8-0.7-2.8-0.7c-0.6,0-1,0.1-1.3,0.3s-0.4,0.4-0.4,0.6c0,0.3,0.2,0.5,0.5,0.6
					s0.8,0.2,1.5,0.3c0.8,0.1,1.4,0.3,1.9,0.4s0.9,0.4,1.3,0.8s0.6,0.9,0.6,1.7c0,0.6-0.2,1.1-0.5,1.6s-0.9,0.8-1.6,1.1
					C110.6,64,109.8,64.1,108.8,64.1z M41.7,76.2c0.9,0,1.7,0.2,2.5,0.6s1.3,1,1.7,1.7c0.4,0.8,0.6,1.6,0.6,2.6s-0.2,1.9-0.6,2.6
					c-0.4,0.8-1,1.3-1.7,1.7S42.6,86,41.7,86c-1.2,0-2.2-0.4-2.9-1.2v4.5H36v-13h2.7v1.1C39.4,76.6,40.4,76.2,41.7,76.2z M41.2,83.8
					c0.7,0,1.3-0.2,1.8-0.7s0.7-1.1,0.7-2c0-0.8-0.2-1.5-0.7-2s-1.1-0.7-1.8-0.7s-1.3,0.2-1.8,0.7s-0.7,1.1-0.7,2
					c0,0.8,0.2,1.5,0.7,2S40.5,83.8,41.2,83.8z M51.8,76.2c1.5,0,2.7,0.4,3.5,1.1s1.2,1.8,1.2,3.2V86h-2.6v-1.2
					c-0.5,0.9-1.5,1.3-3,1.3c-0.7,0-1.4-0.1-1.9-0.4s-1-0.6-1.3-1s-0.4-0.9-0.4-1.5c0-0.9,0.3-1.6,1-2.1s1.7-0.8,3.1-0.8h2.2
					c0-0.6-0.2-1.1-0.6-1.4s-0.9-0.5-1.7-0.5c-0.5,0-1,0.1-1.5,0.2c-0.5,0.2-0.9,0.4-1.3,0.7l-1-2c0.5-0.4,1.2-0.7,1.9-0.9
					C50.3,76.3,51.1,76.2,51.8,76.2z M51.6,84.3c0.5,0,0.9-0.1,1.3-0.3s0.6-0.5,0.8-1v-1h-1.9c-1.2,0-1.7,0.4-1.7,1.1
					c0,0.4,0.1,0.6,0.4,0.9C50.7,84.1,51.1,84.3,51.6,84.3z M68.1,76.3l-4.4,10.3c-0.4,1.1-1,1.9-1.6,2.4c-0.7,0.5-1.4,0.7-2.4,0.7
					c-0.5,0-1-0.1-1.5-0.2c-0.5-0.2-0.9-0.4-1.2-0.6l1-2c0.2,0.2,0.5,0.3,0.7,0.5s0.6,0.2,0.8,0.2c0.4,0,0.7-0.1,0.9-0.3
					c0.2-0.2,0.5-0.5,0.6-0.9v-0.1l-4.2-9.8H60l2.7,6.6l2.7-6.6h2.7V76.3z M72.5,76.2c1.5,0,2.7,0.4,3.5,1.1s1.2,1.8,1.2,3.2V86
					h-2.6v-1.2c-0.5,0.9-1.5,1.3-3,1.3c-0.7,0-1.4-0.1-1.9-0.4s-1-0.6-1.3-1S68,83.8,68,83.2c0-0.9,0.3-1.6,1-2.1s1.7-0.8,3.1-0.8
					h2.2c0-0.6-0.2-1.1-0.6-1.4s-0.9-0.5-1.7-0.5c-0.5,0-1,0.1-1.5,0.2c-0.5,0.2-0.9,0.4-1.3,0.7l-1-2c0.5-0.4,1.2-0.7,1.9-0.9
					C71,76.3,71.8,76.2,72.5,76.2z M72.3,84.3c0.5,0,0.9-0.1,1.3-0.3s0.6-0.5,0.8-1v-1h-1.9c-1.2,0-1.7,0.4-1.7,1.1
					c0,0.4,0.1,0.6,0.4,0.9C71.4,84.1,71.8,84.3,72.3,84.3z M85.1,76.2c0.9,0,1.7,0.2,2.5,0.6s1.3,1,1.7,1.7
					c0.4,0.8,0.6,1.6,0.6,2.6s-0.2,1.9-0.6,2.6c-0.4,0.8-1,1.3-1.7,1.7S86,86,85.1,86c-1.3,0-2.3-0.4-3-1.3V86h-2.7V72.6h2.8v4.7
					C82.9,76.6,83.9,76.2,85.1,76.2z M84.6,83.8c0.7,0,1.3-0.2,1.8-0.7s0.7-1.1,0.7-2c0-0.8-0.2-1.5-0.7-2s-1.1-0.7-1.8-0.7
					s-1.3,0.2-1.8,0.7s-0.7,1.1-0.7,2c0,0.8,0.2,1.5,0.7,2C83.3,83.6,83.9,83.8,84.6,83.8z M91.5,72.6h2.8V86h-2.8V72.6z M106,81.2
					c0,0,0,0.3-0.1,0.8h-7.3c0.1,0.6,0.4,1.1,0.9,1.4s1.1,0.5,1.8,0.5c0.5,0,1-0.1,1.3-0.2c0.4-0.2,0.8-0.4,1.1-0.7l1.5,1.6
					c-0.9,1-2.2,1.6-4,1.6c-1.1,0-2.1-0.2-2.9-0.6s-1.5-1-1.9-1.8c-0.5-0.8-0.7-1.6-0.7-2.6c0-0.9,0.2-1.8,0.7-2.6
					c0.4-0.8,1.1-1.4,1.9-1.8s1.7-0.6,2.6-0.6s1.8,0.2,2.6,0.6c0.8,0.4,1.4,1,1.8,1.8C105.8,79.3,106,80.2,106,81.2z M101,78.3
					c-0.6,0-1.2,0.2-1.6,0.5s-0.7,0.9-0.8,1.5h4.8c-0.1-0.6-0.4-1.1-0.8-1.5C102.2,78.5,101.7,78.3,101,78.3z"/>
			</g>
			<g id="Group-9-Copy-2" transform="translate(175.000000, 476.000000)">
				<g>
					<g>
						<circle id="path-11" class="st12" cx="71" cy="69" r="69"/>
					</g>
					<circle class="st13" cx="71" cy="69" r="72"/>
				</g>
				<g>
					<g>
						<circle id="path-12" cx="71" cy="69" r="63"/>
					</g>
					<g>
						<circle class="st16" cx="71" cy="69" r="63"/>
					</g>
				</g>
				<path id="Reports" class="st15" d="M44.1,76l-2.4-3.5H39V76h-2.9V63.4h5.5c1.1,0,2.1,0.2,2.9,0.6c0.8,0.4,1.5,0.9,1.9,1.6
					C46.8,66.2,47,67,47,68s-0.2,1.7-0.7,2.4c-0.5,0.7-1.1,1.2-1.9,1.6l2.8,4.1L44.1,76L44.1,76z M44,68c0-0.7-0.2-1.3-0.7-1.6
					c-0.5-0.4-1.1-0.6-2-0.6H39v4.4h2.4c0.9,0,1.5-0.2,2-0.6C43.8,69.2,44,68.7,44,68z M58.2,71.2c0,0,0,0.3-0.1,0.8h-7.3
					c0.1,0.6,0.4,1.1,0.9,1.4s1.1,0.5,1.8,0.5c0.5,0,1-0.1,1.3-0.2c0.4-0.2,0.8-0.4,1.1-0.7l1.5,1.6c-0.9,1-2.2,1.6-4,1.6
					c-1.1,0-2.1-0.2-2.9-0.6s-1.5-1-1.9-1.8S48,72.1,48,71.2s0.2-1.8,0.7-2.6c0.5-0.8,1.1-1.4,1.9-1.8c0.8-0.4,1.7-0.6,2.6-0.6
					c0.9,0,1.8,0.2,2.6,0.6s1.4,1,1.8,1.8C58,69.3,58.2,70.2,58.2,71.2z M53.2,68.3c-0.6,0-1.2,0.2-1.6,0.5s-0.7,0.9-0.8,1.5h4.8
					c-0.1-0.6-0.4-1.1-0.8-1.5C54.4,68.5,53.8,68.3,53.2,68.3z M65.5,66.2c0.9,0,1.7,0.2,2.5,0.6c0.7,0.4,1.3,1,1.7,1.7
					c0.4,0.8,0.6,1.6,0.6,2.6s-0.2,1.9-0.6,2.6c-0.4,0.8-1,1.3-1.7,1.7c-0.7,0.4-1.6,0.6-2.5,0.6c-1.2,0-2.2-0.4-2.9-1.2v4.5h-2.8
					v-13h2.7v1.1C63.2,66.6,64.2,66.2,65.5,66.2z M65,73.8c0.7,0,1.3-0.2,1.8-0.7s0.7-1.1,0.7-2c0-0.8-0.2-1.5-0.7-2
					s-1.1-0.7-1.8-0.7c-0.7,0-1.3,0.2-1.8,0.7s-0.7,1.1-0.7,2c0,0.8,0.2,1.5,0.7,2S64.3,73.8,65,73.8z M76.5,76.1
					c-1,0-1.9-0.2-2.7-0.6s-1.4-1-1.9-1.8s-0.7-1.6-0.7-2.6s0.2-1.8,0.7-2.6s1.1-1.3,1.9-1.8s1.7-0.6,2.7-0.6s1.9,0.2,2.7,0.6
					c0.8,0.4,1.4,1,1.9,1.8s0.7,1.6,0.7,2.6s-0.2,1.8-0.7,2.6c-0.5,0.8-1.1,1.3-1.9,1.8C78.4,75.9,77.5,76.1,76.5,76.1z M76.5,73.8
					c0.7,0,1.3-0.2,1.8-0.7s0.7-1.1,0.7-2c0-0.8-0.2-1.5-0.7-2s-1.1-0.7-1.8-0.7c-0.7,0-1.3,0.2-1.8,0.7s-0.7,1.1-0.7,2
					c0,0.8,0.2,1.5,0.7,2S75.8,73.8,76.5,73.8z M86,67.6c0.3-0.5,0.8-0.8,1.4-1.1c0.6-0.2,1.2-0.4,2-0.4v2.6c-0.3,0-0.5,0-0.6,0
					c-0.8,0-1.4,0.2-1.9,0.7s-0.7,1.1-0.7,2V76h-2.8v-9.7H86V67.6z M97.3,75.5c-0.3,0.2-0.6,0.4-1,0.5s-0.8,0.2-1.3,0.2
					c-1.2,0-2-0.3-2.7-0.9s-0.9-1.5-0.9-2.6v-4h-1.5v-2.2h1.5v-2.4h2.8v2.4h2.4v2.2h-2.4v3.9c0,0.4,0.1,0.7,0.3,0.9s0.5,0.3,0.9,0.3
					s0.8-0.1,1.1-0.4L97.3,75.5z M101.8,76.1c-0.8,0-1.6-0.1-2.4-0.3s-1.4-0.4-1.8-0.7l0.9-2c0.4,0.3,1,0.5,1.6,0.7s1.2,0.3,1.8,0.3
					c1.2,0,1.8-0.3,1.8-0.9c0-0.3-0.2-0.5-0.5-0.6s-0.8-0.2-1.5-0.3c-0.8-0.1-1.4-0.3-2-0.4c-0.5-0.2-1-0.4-1.3-0.8
					c-0.4-0.4-0.6-1-0.6-1.7c0-0.6,0.2-1.2,0.5-1.6c0.4-0.5,0.9-0.8,1.5-1.1s1.5-0.4,2.4-0.4c0.7,0,1.4,0.1,2,0.2
					c0.7,0.1,1.2,0.4,1.7,0.6l-0.9,2c-0.9-0.5-1.8-0.7-2.8-0.7c-0.6,0-1,0.1-1.3,0.3c-0.3,0.2-0.4,0.4-0.4,0.6
					c0,0.3,0.2,0.5,0.5,0.6s0.8,0.2,1.5,0.3c0.8,0.1,1.4,0.3,1.9,0.4s0.9,0.4,1.3,0.8s0.6,0.9,0.6,1.7c0,0.6-0.2,1.1-0.5,1.6
					s-0.9,0.8-1.6,1.1C103.5,76,102.7,76.1,101.8,76.1z"/>
			</g>
			<g id="Group-9-Copy" transform="translate(555.000000, 280.000000)">
				<g>
					<g>
						<circle id="path-14" class="st12" cx="71" cy="69" r="69"/>
					</g>
					<circle class="st13" cx="71" cy="69" r="72"/>
				</g>
				<g>
					<g>
						<circle id="path-15" cx="71" cy="69" r="63"/>
					</g>
					<g>
						<circle class="st14" cx="71" cy="69" r="63"/>
					</g>
				</g>
				<path id="Payroll" class="st15" d="M46.2,64.4c1.1,0,2.1,0.2,2.9,0.6c0.8,0.4,1.5,0.9,1.9,1.6s0.7,1.5,0.7,2.4s-0.2,1.7-0.7,2.4
					c-0.4,0.7-1.1,1.2-1.9,1.6c-0.8,0.4-1.8,0.5-2.9,0.5h-2.5V77h-2.9V64.4H46.2z M46,71.1c0.9,0,1.5-0.2,2-0.6s0.7-0.9,0.7-1.6
					s-0.2-1.3-0.7-1.6c-0.5-0.4-1.1-0.6-2-0.6h-2.4v4.4C43.6,71.1,46,71.1,46,71.1z M57,67.2c1.5,0,2.7,0.4,3.5,1.1s1.2,1.8,1.2,3.2
					V77h-2.6v-1.2c-0.5,0.9-1.5,1.3-3,1.3c-0.7,0-1.4-0.1-1.9-0.4s-1-0.6-1.3-1s-0.4-0.9-0.4-1.5c0-0.9,0.3-1.6,1-2.1
					s1.7-0.8,3.1-0.8h2.2c0-0.6-0.2-1.1-0.6-1.4s-0.9-0.5-1.7-0.5c-0.5,0-1,0.1-1.5,0.2c-0.5,0.2-0.9,0.4-1.3,0.7l-1-2
					c0.5-0.4,1.2-0.7,1.9-0.9C55.5,67.3,56.3,67.2,57,67.2z M56.8,75.3c0.5,0,0.9-0.1,1.3-0.3s0.6-0.5,0.8-1v-1H57
					c-1.2,0-1.7,0.4-1.7,1.1c0,0.4,0.1,0.6,0.4,0.9C55.9,75.1,56.3,75.3,56.8,75.3z M73.3,67.3L69,77.6c-0.4,1.1-1,1.9-1.6,2.4
					c-0.7,0.5-1.4,0.7-2.4,0.7c-0.5,0-1-0.1-1.5-0.2c-0.5-0.2-0.9-0.4-1.2-0.6l1-2c0.2,0.2,0.5,0.3,0.7,0.5c0.3,0.1,0.6,0.2,0.8,0.2
					c0.4,0,0.7-0.1,0.9-0.3c0.2-0.2,0.5-0.5,0.6-0.9v-0.1l-4.2-9.8H65l2.7,6.6l2.7-6.6h2.9V67.3z M76.8,68.6
					c0.3-0.5,0.8-0.8,1.4-1.1c0.6-0.2,1.2-0.4,2-0.4v2.6c-0.3,0-0.5,0-0.6,0c-0.8,0-1.4,0.2-1.9,0.7s-0.7,1.1-0.7,2V77h-2.8v-9.7
					h2.7L76.8,68.6L76.8,68.6z M86,77.1c-1,0-1.9-0.2-2.7-0.6s-1.4-1-1.9-1.8s-0.7-1.6-0.7-2.6s0.2-1.8,0.7-2.6
					c0.5-0.8,1.1-1.3,1.9-1.8s1.7-0.6,2.7-0.6s1.9,0.2,2.7,0.6c0.8,0.4,1.4,1,1.9,1.8s0.7,1.6,0.7,2.6s-0.2,1.8-0.7,2.6
					s-1.1,1.3-1.9,1.8C88,76.9,87,77.1,86,77.1z M86,74.8c0.7,0,1.3-0.2,1.8-0.7s0.7-1.1,0.7-2c0-0.8-0.2-1.5-0.7-2
					s-1.1-0.7-1.8-0.7s-1.3,0.2-1.8,0.7s-0.7,1.1-0.7,2c0,0.8,0.2,1.5,0.7,2S85.3,74.8,86,74.8z M92.9,63.6h2.8V77h-2.8V63.6z
					 M97.9,63.6h2.8V77h-2.8V63.6z"/>
			</g>
			<g id="Group-9-Copy-3" transform="translate(555.000000, 477.000000)">
				<g>
					<g>
						<circle id="path-17" class="st12" cx="71" cy="69" r="69"/>
					</g>
					<circle class="st13" cx="71" cy="69" r="72"/>
				</g>
				<g>
					<g>
						<circle id="path-18" cx="71" cy="69" r="63"/>
					</g>
					<g>
						<circle class="st16" cx="71" cy="69" r="63"/>
					</g>
				</g>
				<path id="BAS" class="st15" d="M62.2,69.4c0.7,0.2,1.3,0.6,1.7,1.1s0.6,1.2,0.6,2c0,1.1-0.4,2-1.3,2.5s-2.1,1-3.7,1H53V63.4h6.2
					c1.5,0,2.7,0.3,3.5,0.9c0.8,0.6,1.2,1.4,1.2,2.4c0,0.6-0.1,1.2-0.4,1.6C63.2,68.8,62.8,69.2,62.2,69.4z M55.9,65.6v3h2.9
					c0.7,0,1.3-0.1,1.6-0.4c0.4-0.3,0.6-0.6,0.6-1.1s-0.2-0.9-0.6-1.1c-0.4-0.2-0.9-0.4-1.6-0.4H55.9z M59.3,73.8
					c0.8,0,1.3-0.1,1.7-0.4s0.6-0.6,0.6-1.2c0-1-0.8-1.6-2.3-1.6h-3.4v3.1L59.3,73.8L59.3,73.8z M74.7,73.3h-5.9L67.7,76h-3
					l5.6-12.6h2.9L78.9,76h-3.1L74.7,73.3z M73.8,71.1l-2-4.8l-2,4.8H73.8z M84,76.2c-1,0-2-0.1-2.9-0.4s-1.7-0.6-2.2-1.1l1-2.2
					c0.5,0.4,1.2,0.7,1.9,1c0.7,0.2,1.5,0.4,2.2,0.4c0.8,0,1.4-0.1,1.8-0.4c0.4-0.2,0.6-0.6,0.6-1c0-0.3-0.1-0.5-0.4-0.7
					s-0.5-0.4-0.9-0.5s-0.9-0.3-1.5-0.4c-1-0.2-1.7-0.5-2.4-0.7c-0.6-0.2-1.1-0.6-1.6-1.1s-0.7-1.2-0.7-2c0-0.7,0.2-1.4,0.6-2
					s1-1.1,1.8-1.4c0.8-0.3,1.8-0.5,2.9-0.5c0.8,0,1.6,0.1,2.4,0.3s1.4,0.5,2,0.8l-0.9,2.2c-1.2-0.7-2.3-1-3.5-1
					c-0.8,0-1.4,0.1-1.8,0.4s-0.6,0.6-0.6,1s0.2,0.8,0.7,1c0.4,0.2,1.1,0.4,2.1,0.6s1.7,0.5,2.4,0.7c0.6,0.2,1.1,0.6,1.6,1.1
					c0.4,0.5,0.7,1.2,0.7,2c0,0.7-0.2,1.4-0.6,2s-1,1.1-1.8,1.4S85.2,76.2,84,76.2z"/>
			</g>
			<g transform="translate(365.000000, 162.000000)">
				<g>
					<g>
						<circle id="path-20" class="st12" cx="70" cy="69" r="69"/>
					</g>
					<circle class="st13" cx="70" cy="69" r="72"/>
				</g>
				<g id="Group-12" transform="translate(0.000000, 6.000000)">
					<g id="Group-2">
						<g id="Oval-Copy-9">
							<g>
								<circle id="path-21" cx="70" cy="63" r="63"/>
							</g>
							<g>
								<circle class="st14" cx="70" cy="63" r="63"/>
							</g>
						</g>
						<path id="Accounts-receivable" class="st15" d="M37.3,57.3h-5.8L30.3,60h-3l5.6-12.6h2.9L41.5,60h-3.1L37.3,57.3z M36.4,55.1
							l-2-4.8l-2,4.8H36.4z M46.8,60.1c-1,0-2-0.2-2.8-0.6c-0.8-0.4-1.5-1-1.9-1.8c-0.5-0.8-0.7-1.6-0.7-2.6s0.2-1.8,0.7-2.6
							s1.1-1.3,1.9-1.8c0.8-0.4,1.7-0.6,2.8-0.6c1,0,1.9,0.2,2.7,0.6s1.3,1,1.7,1.8L49,53.8c-0.5-0.9-1.2-1.3-2.2-1.3
							c-0.7,0-1.3,0.2-1.8,0.7s-0.7,1.1-0.7,2c0,0.8,0.2,1.5,0.7,2s1.1,0.7,1.8,0.7c1,0,1.7-0.4,2.2-1.3l2.2,1.2
							c-0.3,0.8-0.9,1.4-1.7,1.8C48.7,59.9,47.8,60.1,46.8,60.1z M57,60.1c-1,0-2-0.2-2.8-0.6c-0.8-0.4-1.5-1-1.9-1.8
							c-0.5-0.8-0.7-1.6-0.7-2.6s0.2-1.8,0.7-2.6s1.1-1.3,1.9-1.8c0.8-0.4,1.7-0.6,2.8-0.6c1,0,1.9,0.2,2.7,0.6
							c0.8,0.4,1.3,1,1.7,1.8l-2.2,1.2c-0.5-0.9-1.2-1.3-2.2-1.3c-0.7,0-1.3,0.2-1.8,0.7s-0.7,1.1-0.7,2c0,0.8,0.2,1.5,0.7,2
							s1.1,0.7,1.8,0.7c1,0,1.7-0.4,2.2-1.3l2.2,1.2c-0.3,0.8-0.9,1.4-1.7,1.8C58.9,59.9,58,60.1,57,60.1z M67.1,60.1
							c-1,0-1.9-0.2-2.7-0.6c-0.8-0.4-1.4-1-1.9-1.8s-0.7-1.6-0.7-2.6s0.2-1.8,0.7-2.6s1.1-1.3,1.9-1.8c0.8-0.4,1.7-0.6,2.7-0.6
							s1.9,0.2,2.7,0.6c0.8,0.4,1.4,1,1.9,1.8s0.7,1.6,0.7,2.6s-0.2,1.8-0.7,2.6s-1.1,1.3-1.9,1.8C69,59.9,68.1,60.1,67.1,60.1z
							 M67.1,57.8c0.7,0,1.3-0.2,1.8-0.7s0.7-1.1,0.7-2c0-0.8-0.2-1.5-0.7-2s-1.1-0.7-1.8-0.7s-1.3,0.2-1.8,0.7s-0.7,1.1-0.7,2
							c0,0.8,0.2,1.5,0.7,2S66.4,57.8,67.1,57.8z M83.7,50.3V60H81v-1.2c-0.4,0.4-0.8,0.7-1.3,1c-0.5,0.2-1.1,0.3-1.7,0.3
							c-1.3,0-2.3-0.4-3-1.1c-0.7-0.7-1.1-1.8-1.1-3.3v-5.5h2.8v5.1c0,1.6,0.7,2.3,2,2.3c0.7,0,1.2-0.2,1.6-0.7
							c0.4-0.4,0.6-1.1,0.6-2v-4.8h2.8V50.3z M91.9,50.2c1.2,0,2.2,0.4,2.9,1.1c0.7,0.7,1.1,1.8,1.1,3.2V60h-2.8v-5.1
							c0-0.8-0.2-1.3-0.5-1.7s-0.8-0.6-1.5-0.6s-1.3,0.2-1.7,0.7c-0.4,0.4-0.6,1.1-0.6,2V60H86v-9.7h2.7v1.1
							c0.4-0.4,0.8-0.7,1.4-0.9C90.6,50.3,91.2,50.2,91.9,50.2z M104.3,59.5c-0.3,0.2-0.6,0.4-1,0.5s-0.8,0.2-1.3,0.2
							c-1.2,0-2-0.3-2.7-0.9c-0.6-0.6-0.9-1.5-0.9-2.6v-4h-1.5v-2.2h1.5v-2.4h2.8v2.4h2.4v2.2h-2.4v3.9c0,0.4,0.1,0.7,0.3,0.9
							c0.2,0.2,0.5,0.3,0.9,0.3s0.8-0.1,1.1-0.4L104.3,59.5z M108.8,60.1c-0.8,0-1.6-0.1-2.4-0.3s-1.4-0.4-1.8-0.7l0.9-2
							c0.4,0.3,1,0.5,1.6,0.7s1.2,0.3,1.8,0.3c1.2,0,1.8-0.3,1.8-0.9c0-0.3-0.2-0.5-0.5-0.6s-0.8-0.2-1.5-0.3
							c-0.8-0.1-1.4-0.3-2-0.4c-0.5-0.2-1-0.4-1.3-0.8c-0.4-0.4-0.6-1-0.6-1.7c0-0.6,0.2-1.2,0.5-1.6c0.4-0.5,0.9-0.8,1.5-1.1
							c0.7-0.3,1.5-0.4,2.4-0.4c0.7,0,1.4,0.1,2,0.2c0.7,0.2,1.2,0.4,1.7,0.6l-0.9,2c-0.9-0.5-1.8-0.7-2.8-0.7c-0.6,0-1,0.1-1.3,0.3
							s-0.4,0.4-0.4,0.6c0,0.3,0.2,0.5,0.5,0.6s0.8,0.2,1.5,0.3c0.8,0.1,1.4,0.3,1.9,0.4s0.9,0.4,1.3,0.8s0.6,0.9,0.6,1.7
							c0,0.6-0.2,1.1-0.5,1.6s-0.9,0.8-1.6,1.1C110.6,60,109.8,60.1,108.8,60.1z M27.7,73.6c0.3-0.5,0.8-0.8,1.4-1.1
							c0.6-0.2,1.2-0.4,2-0.4v2.6c-0.3,0-0.5,0-0.6,0c-0.8,0-1.4,0.2-1.9,0.7s-0.7,1.1-0.7,2V82H25v-9.7h2.7V73.6z M41.7,77.2
							c0,0,0,0.3-0.1,0.8h-7.3c0.1,0.6,0.4,1.1,0.9,1.4s1.1,0.5,1.8,0.5c0.5,0,1-0.1,1.3-0.2c0.4-0.2,0.8-0.4,1.1-0.7l1.5,1.6
							c-0.9,1-2.2,1.6-4,1.6c-1.1,0-2.1-0.2-2.9-0.6s-1.5-1-1.9-1.8c-0.5-0.8-0.7-1.6-0.7-2.6c0-0.9,0.2-1.8,0.7-2.6
							c0.5-0.8,1.1-1.4,1.9-1.8s1.7-0.6,2.6-0.6c0.9,0,1.8,0.2,2.6,0.6s1.4,1,1.8,1.8C41.5,75.3,41.7,76.2,41.7,77.2z M36.7,74.3
							c-0.6,0-1.2,0.2-1.6,0.5s-0.7,0.9-0.8,1.5h4.8c-0.1-0.6-0.4-1.1-0.8-1.5C37.9,74.5,37.3,74.3,36.7,74.3z M47.9,82.1
							c-1,0-2-0.2-2.8-0.6s-1.5-1-1.9-1.8s-0.7-1.6-0.7-2.6s0.2-1.8,0.7-2.6s1.1-1.3,1.9-1.8c0.8-0.4,1.7-0.6,2.8-0.6
							c1,0,1.9,0.2,2.7,0.6s1.3,1,1.7,1.8l-2.2,1.2c-0.5-0.9-1.2-1.3-2.2-1.3c-0.7,0-1.3,0.2-1.8,0.7s-0.7,1.1-0.7,2
							c0,0.8,0.2,1.5,0.7,2s1.1,0.7,1.8,0.7c1,0,1.7-0.4,2.2-1.3l2.2,1.2c-0.3,0.8-0.9,1.4-1.7,1.8C49.9,81.9,49,82.1,47.9,82.1z
							 M62.9,77.2c0,0,0,0.3-0.1,0.8h-7.3c0.1,0.6,0.4,1.1,0.9,1.4s1.1,0.5,1.8,0.5c0.5,0,1-0.1,1.3-0.2s0.8-0.4,1.1-0.7l1.5,1.6
							c-0.9,1-2.2,1.6-4,1.6c-1.1,0-2.1-0.2-2.9-0.6s-1.5-1-1.9-1.8s-0.7-1.6-0.7-2.6c0-0.9,0.2-1.8,0.7-2.6
							c0.5-0.8,1.1-1.4,1.9-1.8s1.7-0.6,2.6-0.6c0.9,0,1.8,0.2,2.6,0.6s1.4,1,1.8,1.8C62.7,75.3,62.9,76.2,62.9,77.2z M57.9,74.3
							c-0.6,0-1.2,0.2-1.6,0.5c-0.4,0.4-0.7,0.9-0.8,1.5h4.8c-0.1-0.6-0.4-1.1-0.8-1.5C59.1,74.5,58.5,74.3,57.9,74.3z M64.5,72.3
							h2.8V82h-2.8V72.3z M65.9,71c-0.5,0-0.9-0.2-1.3-0.5c-0.3-0.3-0.5-0.7-0.5-1.1s0.2-0.8,0.5-1.1c0.3-0.3,0.7-0.4,1.3-0.4
							c0.5,0,0.9,0.1,1.3,0.4c0.3,0.3,0.5,0.6,0.5,1.1s-0.2,0.9-0.5,1.2C66.8,70.8,66.4,71,65.9,71z M79.2,72.3L75.1,82h-2.9
							l-4.1-9.7H71l2.7,6.6l2.8-6.6H79.2z M83.6,72.2c1.5,0,2.7,0.4,3.5,1.1s1.2,1.8,1.2,3.2V82h-2.6v-1.2c-0.5,0.9-1.5,1.3-3,1.3
							c-0.7,0-1.4-0.1-1.9-0.4s-1-0.6-1.3-1S79,79.8,79,79.2c0-0.9,0.3-1.6,1-2.1s1.7-0.8,3.1-0.8h2.2c0-0.6-0.2-1.1-0.6-1.4
							s-0.9-0.5-1.7-0.5c-0.5,0-1,0.1-1.5,0.2c-0.5,0.2-0.9,0.4-1.3,0.7l-1-2c0.5-0.4,1.2-0.7,1.9-0.9C82,72.3,82.8,72.2,83.6,72.2z
							 M83.3,80.3c0.5,0,0.9-0.1,1.3-0.3s0.6-0.5,0.8-1v-1h-1.9c-1.2,0-1.7,0.4-1.7,1.1c0,0.4,0.1,0.6,0.4,0.9
							C82.5,80.1,82.8,80.3,83.3,80.3z M96.1,72.2c0.9,0,1.7,0.2,2.5,0.6c0.7,0.4,1.3,1,1.7,1.7c0.4,0.8,0.6,1.6,0.6,2.6
							s-0.2,1.9-0.6,2.6c-0.4,0.8-1,1.3-1.7,1.7C97.9,81.8,97,82,96.1,82c-1.3,0-2.3-0.4-3-1.3V82h-2.7V68.6h2.8v4.7
							C93.9,72.6,94.9,72.2,96.1,72.2z M95.7,79.8c0.7,0,1.3-0.2,1.8-0.7s0.7-1.1,0.7-2c0-0.8-0.2-1.5-0.7-2s-1.1-0.7-1.8-0.7
							c-0.7,0-1.3,0.2-1.8,0.7s-0.7,1.1-0.7,2c0,0.8,0.2,1.5,0.7,2C94.3,79.6,94.9,79.8,95.7,79.8z M102.5,68.6h2.8V82h-2.8V68.6z
							 M117.1,77.2c0,0,0,0.3-0.1,0.8h-7.3c0.1,0.6,0.4,1.1,0.9,1.4s1.1,0.5,1.8,0.5c0.5,0,1-0.1,1.3-0.2c0.4-0.2,0.8-0.4,1.1-0.7
							l1.5,1.6c-0.9,1-2.2,1.6-4,1.6c-1.1,0-2.1-0.2-2.9-0.6s-1.5-1-1.9-1.8s-0.7-1.6-0.7-2.6c0-0.9,0.2-1.8,0.7-2.6
							c0.5-0.8,1.1-1.4,1.9-1.8s1.7-0.6,2.6-0.6s1.8,0.2,2.6,0.6c0.8,0.4,1.4,1,1.8,1.8C116.9,75.3,117.1,76.2,117.1,77.2z
							 M112.1,74.3c-0.6,0-1.2,0.2-1.6,0.5c-0.4,0.4-0.7,0.9-0.8,1.5h4.8c-0.1-0.6-0.4-1.1-0.8-1.5
							C113.2,74.5,112.7,74.3,112.1,74.3z"/>
					</g>
				</g>
			</g>
			<g id="Group-17-Copy" transform="translate(366.000000, 0.000000)">
				<g>
					<g>
						<circle id="path-23" class="st12" cx="69" cy="69" r="69"/>
					</g>
					<circle class="st13" cx="69" cy="69" r="72"/>
				</g>
				<g transform="translate(6.000000, 6.000000)">
					<g>
						<g>
							<g>
								<circle id="path-24" cx="63" cy="63" r="63"/>
							</g>
							<g>
								<circle class="st17" cx="63" cy="63" r="63"/>
							</g>
						</g>
						<g>
							<path id="Colection-of-sales-d" class="st6" d="M35.3,71.1c-1,0-1.9-0.2-2.7-0.6s-1.4-1-1.9-1.8C30.2,68,30,67.1,30,66.2
								c0-1,0.2-1.8,0.7-2.6c0.5-0.8,1.1-1.3,1.9-1.8c0.8-0.5,1.7-0.6,2.7-0.6s1.9,0.2,2.7,0.6s1.4,1,1.9,1.8
								c0.5,0.8,0.7,1.6,0.7,2.6s-0.2,1.8-0.7,2.6c-0.5,0.8-1.1,1.3-1.9,1.8S36.3,71.1,35.3,71.1z M35.3,68.8c0.7,0,1.3-0.2,1.8-0.7
								s0.7-1.1,0.7-2c0-0.8-0.2-1.5-0.7-2s-1.1-0.7-1.8-0.7s-1.3,0.2-1.8,0.7s-0.7,1.1-0.7,2c0,0.8,0.2,1.5,0.7,2
								S34.6,68.8,35.3,68.8z M45.2,61.5h2.5v2.2h-2.4V71h-2.8v-7.3H41v-2.2h1.5v-0.4c0-1.1,0.3-2,1-2.6s1.6-1,2.8-1
								c0.4,0,0.8,0,1.2,0.1s0.7,0.2,0.9,0.4l-0.7,2c-0.3-0.2-0.7-0.3-1.1-0.3c-0.9,0-1.3,0.5-1.3,1.4v0.4H45.2z M56.8,71.1
								c-0.8,0-1.6-0.1-2.4-0.3c-0.8-0.2-1.4-0.4-1.8-0.7l0.9-2c0.4,0.3,1,0.5,1.6,0.7s1.2,0.3,1.8,0.3c1.2,0,1.8-0.3,1.8-0.9
								c0-0.3-0.2-0.5-0.5-0.6s-0.8-0.2-1.5-0.3c-0.8-0.1-1.4-0.3-2-0.4c-0.5-0.2-1-0.4-1.3-0.8c-0.4-0.4-0.6-1-0.6-1.7
								c0-0.6,0.2-1.2,0.5-1.6c0.4-0.5,0.9-0.8,1.5-1.1c0.7-0.3,1.5-0.4,2.4-0.4c0.7,0,1.4,0.1,2,0.2c0.7,0.2,1.2,0.4,1.7,0.6
								l-0.9,2c-0.9-0.5-1.8-0.7-2.8-0.7c-0.6,0-1,0.1-1.4,0.3c-0.3,0.2-0.5,0.4-0.5,0.6c0,0.3,0.2,0.5,0.5,0.6s0.8,0.2,1.5,0.3
								c0.8,0.1,1.4,0.3,1.9,0.4s0.9,0.4,1.3,0.8c0.4,0.4,0.6,0.9,0.6,1.7c0,0.6-0.2,1.1-0.5,1.6s-0.9,0.8-1.6,1.1
								C58.6,71,57.8,71.1,56.8,71.1z M66.7,61.2c1.5,0,2.7,0.4,3.5,1.1c0.8,0.7,1.2,1.8,1.2,3.2V71h-2.6v-1.2
								c-0.5,0.9-1.5,1.3-3,1.3c-0.7,0-1.4-0.1-1.9-0.4s-1-0.6-1.3-1s-0.4-0.9-0.4-1.5c0-0.9,0.3-1.6,1-2.1s1.7-0.8,3.1-0.8h2.2
								c0-0.6-0.2-1.1-0.6-1.4c-0.4-0.3-0.9-0.5-1.7-0.5c-0.5,0-1,0.1-1.5,0.2c-0.5,0.2-0.9,0.4-1.3,0.7l-1-2
								c0.5-0.4,1.2-0.7,1.9-0.9C65.1,61.3,65.9,61.2,66.7,61.2z M66.5,69.3c0.5,0,0.9-0.1,1.3-0.3s0.6-0.5,0.8-1v-1h-1.9
								c-1.2,0-1.7,0.4-1.7,1.1c0,0.4,0.1,0.6,0.4,0.9C65.6,69.1,66,69.3,66.5,69.3z M73.6,57.6h2.8V71h-2.8V57.6z M88.1,66.2
								c0,0,0,0.3-0.1,0.8h-7.3c0.1,0.6,0.4,1.1,0.9,1.4s1.1,0.5,1.8,0.5c0.5,0,1-0.1,1.3-0.2c0.4-0.2,0.8-0.4,1.1-0.7l1.5,1.6
								c-0.9,1-2.2,1.6-4,1.6c-1.1,0-2.1-0.2-2.9-0.6s-1.5-1-1.9-1.8s-0.7-1.6-0.7-2.6c0-0.9,0.2-1.8,0.7-2.6
								c0.5-0.8,1.1-1.4,1.9-1.8s1.7-0.6,2.6-0.6s1.8,0.2,2.6,0.6s1.4,1,1.8,1.8C87.9,64.3,88.1,65.2,88.1,66.2z M83.1,63.3
								c-0.6,0-1.2,0.2-1.6,0.5c-0.4,0.4-0.7,0.9-0.8,1.5h4.8c-0.1-0.6-0.4-1.1-0.8-1.5C84.2,63.5,83.7,63.3,83.1,63.3z M92.9,71.1
								c-0.8,0-1.6-0.1-2.4-0.3s-1.4-0.4-1.8-0.7l0.9-2c0.4,0.3,1,0.5,1.6,0.7s1.2,0.3,1.8,0.3c1.2,0,1.8-0.3,1.8-0.9
								c0-0.3-0.2-0.5-0.5-0.6s-0.8-0.2-1.5-0.3c-0.8-0.1-1.4-0.3-2-0.4c-0.5-0.2-1-0.4-1.3-0.8c-0.4-0.4-0.6-1-0.6-1.7
								c0-0.6,0.2-1.2,0.5-1.6s0.9-0.8,1.5-1.1c0.7-0.3,1.5-0.4,2.4-0.4c0.7,0,1.4,0.1,2,0.2c0.7,0.2,1.2,0.4,1.7,0.6l-0.9,2
								c-0.9-0.5-1.8-0.7-2.8-0.7c-0.6,0-1,0.1-1.3,0.3s-0.4,0.4-0.4,0.6c0,0.3,0.2,0.5,0.5,0.6s0.8,0.2,1.5,0.3
								c0.8,0.1,1.4,0.3,1.9,0.4s0.9,0.4,1.3,0.8s0.6,0.9,0.6,1.7c0,0.6-0.2,1.1-0.5,1.6s-0.9,0.8-1.6,1.1
								C94.7,71,93.9,71.1,92.9,71.1z M54.1,79.6V93h-2.7v-1.1c-0.7,0.8-1.7,1.3-3,1.3c-0.9,0-1.7-0.2-2.5-0.6
								c-0.7-0.4-1.3-1-1.7-1.7c-0.4-0.8-0.6-1.6-0.6-2.6s0.2-1.9,0.6-2.6c0.4-0.8,1-1.3,1.7-1.7c0.7-0.4,1.6-0.6,2.5-0.6
								c1.2,0,2.2,0.4,2.9,1.2v-4.7h2.8V79.6z M48.9,90.8c0.7,0,1.3-0.2,1.8-0.7s0.7-1.1,0.7-2c0-0.8-0.2-1.5-0.7-2
								s-1.1-0.7-1.8-0.7s-1.3,0.2-1.8,0.7s-0.7,1.1-0.7,2c0,0.8,0.2,1.5,0.7,2S48.1,90.8,48.9,90.8z M60.2,83.2
								c1.5,0,2.7,0.4,3.5,1.1s1.2,1.8,1.2,3.2V93h-2.6v-1.2c-0.5,0.9-1.5,1.3-3,1.3c-0.7,0-1.4-0.1-1.9-0.4s-1-0.6-1.3-1
								s-0.4-0.9-0.4-1.5c0-0.9,0.3-1.6,1-2.1s1.7-0.8,3.1-0.8H62c0-0.6-0.2-1.1-0.6-1.4s-0.9-0.5-1.7-0.5c-0.5,0-1,0.1-1.5,0.2
								c-0.5,0.2-0.9,0.4-1.3,0.7l-1-2c0.5-0.4,1.2-0.7,1.9-0.9C58.7,83.3,59.5,83.2,60.2,83.2z M60,91.3c0.5,0,0.9-0.1,1.3-0.3
								s0.6-0.5,0.8-1v-1h-1.9c-1.2,0-1.7,0.4-1.7,1.1c0,0.4,0.1,0.6,0.4,0.9C59.1,91.1,59.5,91.3,60,91.3z M73.4,92.5
								c-0.3,0.2-0.6,0.4-1,0.5s-0.8,0.2-1.3,0.2c-1.2,0-2-0.3-2.7-0.9c-0.6-0.6-0.9-1.5-0.9-2.6v-4H66v-2.2h1.5v-2.4h2.8v2.4h2.4
								v2.2h-2.4v3.9c0,0.4,0.1,0.7,0.3,0.9c0.2,0.2,0.5,0.3,0.9,0.3s0.8-0.1,1.1-0.4L73.4,92.5z M78.5,83.2c1.5,0,2.7,0.4,3.5,1.1
								s1.2,1.8,1.2,3.2V93h-2.6v-1.2c-0.5,0.9-1.5,1.3-3,1.3c-0.7,0-1.4-0.1-1.9-0.4s-1-0.6-1.3-1S74,90.8,74,90.2
								c0-0.9,0.3-1.6,1-2.1s1.7-0.8,3.1-0.8h2.2c0-0.6-0.2-1.1-0.6-1.4s-0.9-0.5-1.7-0.5c-0.5,0-1,0.1-1.5,0.2
								c-0.5,0.2-0.9,0.4-1.3,0.7l-1-2c0.5-0.4,1.2-0.7,1.9-0.9C77,83.3,77.7,83.2,78.5,83.2z M78.3,91.3c0.5,0,0.9-0.1,1.3-0.3
								s0.6-0.5,0.8-1v-1h-1.9c-1.2,0-1.7,0.4-1.7,1.1c0,0.4,0.1,0.6,0.4,0.9C77.4,91.1,77.8,91.3,78.3,91.3z"/>
							<path class="st18" d="M21.1,48.4c-1-0.6-1.9-1.3-2.4-2.3c-0.6-1-0.9-2.1-0.9-3.4s0.3-2.4,0.9-3.4s1.4-1.8,2.4-2.3
								c1-0.6,2.2-0.8,3.5-0.8c1.1,0,2.1,0.2,3,0.6c0.9,0.4,1.6,0.9,2.2,1.7l-1.9,1.7c-0.9-1-1.9-1.5-3.2-1.5
								c-0.8,0-1.5,0.2-2.1,0.5s-1.1,0.8-1.4,1.4c-0.3,0.6-0.5,1.3-0.5,2.1s0.2,1.5,0.5,2.1s0.8,1.1,1.4,1.4
								c0.6,0.3,1.3,0.5,2.1,0.5c1.3,0,2.3-0.5,3.2-1.5l1.9,1.7c-0.6,0.7-1.3,1.3-2.2,1.7c-0.9,0.4-1.9,0.6-3,0.6
								C23.3,49.2,22.2,49,21.1,48.4z"/>
							<path class="st18" d="M32.8,48.5c-0.8-0.4-1.4-1-1.9-1.8s-0.7-1.6-0.7-2.6s0.2-1.8,0.7-2.6s1.1-1.3,1.9-1.8
								c0.8-0.4,1.7-0.6,2.7-0.6s1.9,0.2,2.7,0.6c0.8,0.4,1.4,1,1.9,1.8s0.7,1.6,0.7,2.6s-0.2,1.8-0.7,2.6S39,48,38.2,48.5
								c-0.8,0.4-1.7,0.6-2.7,0.6S33.6,49,32.8,48.5z M37.3,46.1c0.5-0.5,0.7-1.1,0.7-2s-0.2-1.5-0.7-2s-1.1-0.7-1.8-0.7
								s-1.3,0.2-1.8,0.7s-0.7,1.1-0.7,2s0.2,1.5,0.7,2s1.1,0.7,1.8,0.7C36.2,46.9,36.8,46.6,37.3,46.1z"/>
							<path class="st18" d="M42.4,35.7h2.8V49h-2.8V35.7z"/>
							<path class="st18" d="M47.5,35.7h2.8V49h-2.8V35.7z"/>
							<path class="st18" d="M62,45h-7.3c0.1,0.6,0.4,1.1,0.9,1.4s1.1,0.5,1.8,0.5c0.5,0,1-0.1,1.3-0.2c0.4-0.1,0.8-0.4,1.1-0.7
								l1.5,1.6c-0.9,1-2.2,1.6-4,1.6c-1.1,0-2.1-0.2-2.9-0.6c-0.8-0.4-1.5-1-1.9-1.8s-0.7-1.6-0.7-2.6c0-0.9,0.2-1.8,0.7-2.6
								s1.1-1.4,1.9-1.8c0.8-0.4,1.7-0.6,2.6-0.6c0.9,0,1.8,0.2,2.6,0.6c0.8,0.4,1.4,1,1.8,1.8c0.4,0.8,0.7,1.6,0.7,2.7
								C62,44.2,62,44.5,62,45z M55.4,41.9c-0.4,0.4-0.7,0.9-0.8,1.5h4.8c-0.1-0.6-0.4-1.1-0.8-1.5c-0.4-0.4-1-0.5-1.6-0.5
								C56.4,41.3,55.8,41.5,55.4,41.9z"/>
							<path class="st18" d="M65.5,48.5c-0.8-0.4-1.5-1-1.9-1.8c-0.5-0.8-0.7-1.6-0.7-2.6s0.2-1.8,0.7-2.6s1.1-1.3,1.9-1.8
								c0.8-0.4,1.7-0.6,2.8-0.6c1,0,1.9,0.2,2.7,0.6c0.8,0.4,1.3,1,1.7,1.8l-2.2,1.2c-0.5-0.9-1.2-1.3-2.2-1.3
								c-0.7,0-1.3,0.2-1.8,0.7s-0.7,1.1-0.7,2c0,0.8,0.2,1.5,0.7,2s1.1,0.7,1.8,0.7c1,0,1.7-0.4,2.2-1.3l2.2,1.2
								c-0.3,0.8-0.9,1.4-1.7,1.8c-0.8,0.4-1.7,0.6-2.7,0.6C67.2,49.2,66.3,49,65.5,48.5z"/>
							<path class="st18" d="M80.3,48.6c-0.3,0.2-0.6,0.4-1,0.5s-0.8,0.2-1.3,0.2c-1.2,0-2-0.3-2.7-0.9c-0.6-0.6-0.9-1.5-0.9-2.6v-4
								h-1.5v-2.2h1.5v-2.4h2.8v2.4h2.4v2.2h-2.4v3.9c0,0.4,0.1,0.7,0.3,0.9c0.2,0.2,0.5,0.3,0.9,0.3s0.8-0.1,1.1-0.4L80.3,48.6z"/>
							<path class="st18" d="M81.7,37.5c-0.3-0.3-0.5-0.7-0.5-1.1c0-0.4,0.2-0.8,0.5-1.1s0.7-0.5,1.3-0.5s0.9,0.1,1.3,0.4
								s0.5,0.6,0.5,1.1s-0.2,0.9-0.5,1.2C83.9,37.8,83.5,38,83,38S82,37.8,81.7,37.5z M81.5,39.3h2.8V49h-2.8V39.3z"/>
							<path class="st18" d="M88.5,48.5c-0.8-0.4-1.4-1-1.9-1.8s-0.7-1.6-0.7-2.6s0.2-1.8,0.7-2.6s1.1-1.3,1.9-1.8
								c0.8-0.4,1.7-0.6,2.7-0.6s1.9,0.2,2.7,0.6c0.8,0.4,1.4,1,1.9,1.8s0.7,1.6,0.7,2.6s-0.2,1.8-0.7,2.6s-1.1,1.3-1.9,1.8
								c-0.8,0.4-1.7,0.6-2.7,0.6C90.2,49.2,89.3,49,88.5,48.5z M93,46.1c0.5-0.5,0.7-1.1,0.7-2s-0.2-1.5-0.7-2s-1.1-0.7-1.8-0.7
								c-0.7,0-1.3,0.2-1.8,0.7s-0.7,1.1-0.7,2s0.2,1.5,0.7,2s1.1,0.7,1.8,0.7C92,46.9,92.6,46.6,93,46.1z"/>
							<path class="st18" d="M106.9,40.3c0.7,0.7,1.1,1.8,1.1,3.2V49h-2.8v-5.1c0-0.8-0.2-1.3-0.5-1.7s-0.8-0.6-1.5-0.6
								s-1.3,0.2-1.7,0.7c-0.4,0.4-0.6,1.1-0.6,2V49h-2.8v-9.7h2.7v1.1c0.4-0.4,0.8-0.7,1.4-0.9s1.2-0.3,1.8-0.3
								C105.2,39.2,106.2,39.6,106.9,40.3z"/>
						</g>
					</g>
				</g>
			</g>
			<g id="Group-17-Copy-2" transform="translate(731.000000, 274.000000)">
				<g>
					<g>
						<circle id="path-26" class="st12" cx="69" cy="69" r="69"/>
					</g>
					<circle class="st13" cx="69" cy="69" r="72"/>
				</g>
				<g transform="translate(6.000000, 6.000000)">
					<g>
						<g>
							<g>
								<circle id="path-27" cx="63" cy="63" r="63"/>
							</g>
							<g>
								<circle class="st17" cx="63" cy="63" r="63"/>
							</g>
						</g>
						<path id="Timesheet-and-payrol" class="st6" d="M19.4,37.8h-4v-2.4h11v2.4h-4V48h-2.9V37.8H19.4z M27.2,38.3H30V48h-2.8V38.3z
							 M28.6,37c-0.5,0-0.9-0.1-1.3-0.5c-0.3-0.3-0.5-0.7-0.5-1.1c0-0.4,0.2-0.8,0.5-1.1s0.7-0.5,1.3-0.5s0.9,0.1,1.3,0.4
							s0.5,0.6,0.5,1.1s-0.2,0.9-0.5,1.2S29.1,37,28.6,37z M44.7,38.2c1.2,0,2.2,0.4,2.9,1.1s1.1,1.8,1.1,3.2V48h-2.8v-5.1
							c0-0.8-0.2-1.3-0.5-1.7s-0.8-0.6-1.4-0.6c-0.7,0-1.2,0.2-1.6,0.6s-0.6,1.1-0.6,1.9V48H39v-5.1c0-1.5-0.6-2.3-1.8-2.3
							c-0.6,0-1.2,0.2-1.5,0.6s-0.6,1.1-0.6,1.9V48h-2.8v-9.7H35v1.1c0.4-0.4,0.8-0.7,1.3-0.9s1.1-0.3,1.7-0.3
							c0.7,0,1.3,0.1,1.9,0.4s1,0.7,1.3,1.2c0.4-0.5,0.9-0.9,1.5-1.2S44,38.2,44.7,38.2z M60.4,43.2c0,0,0,0.3-0.1,0.8H53
							c0.1,0.6,0.4,1.1,0.9,1.4c0.5,0.3,1.1,0.5,1.8,0.5c0.5,0,1-0.1,1.3-0.2c0.4-0.1,0.8-0.4,1.1-0.7l1.5,1.6c-0.9,1-2.2,1.6-4,1.6
							c-1.1,0-2.1-0.2-2.9-0.6s-1.5-1-1.9-1.8c-0.5-0.8-0.7-1.6-0.7-2.6c0-0.9,0.2-1.8,0.7-2.6s1.1-1.4,1.9-1.8
							c0.8-0.4,1.7-0.6,2.6-0.6c0.9,0,1.8,0.2,2.6,0.6s1.4,1,1.8,1.8C60.2,41.3,60.4,42.2,60.4,43.2z M55.4,40.3
							c-0.6,0-1.2,0.2-1.6,0.5c-0.4,0.4-0.7,0.9-0.8,1.5h4.8c-0.1-0.6-0.4-1.1-0.8-1.5S56,40.3,55.4,40.3z M65.2,48.1
							c-0.8,0-1.6-0.1-2.4-0.3s-1.4-0.4-1.8-0.7l0.9-2c0.4,0.3,1,0.5,1.6,0.7c0.6,0.2,1.2,0.3,1.8,0.3c1.2,0,1.8-0.3,1.8-0.9
							c0-0.3-0.2-0.5-0.5-0.6s-0.8-0.2-1.5-0.3c-0.8-0.1-1.4-0.3-2-0.4c-0.5-0.2-1-0.4-1.3-0.8c-0.4-0.4-0.6-1-0.6-1.7
							c0-0.6,0.2-1.2,0.5-1.6c0.4-0.5,0.9-0.8,1.5-1.1c0.7-0.3,1.5-0.4,2.4-0.4c0.7,0,1.4,0.1,2,0.2s1.2,0.4,1.7,0.6l-0.9,2
							c-0.9-0.5-1.8-0.7-2.8-0.7c-0.6,0-1,0.1-1.3,0.3S64,40.9,64,41.2s0.2,0.5,0.5,0.6s0.8,0.2,1.5,0.3c0.8,0.1,1.4,0.3,1.9,0.4
							c0.5,0.2,0.9,0.4,1.3,0.8s0.6,0.9,0.6,1.7c0,0.6-0.2,1.1-0.5,1.6c-0.4,0.5-0.9,0.8-1.6,1.1C67,48,66.2,48.1,65.2,48.1z
							 M77.1,38.2c1.2,0,2.2,0.4,2.9,1.1c0.7,0.7,1.1,1.8,1.1,3.2V48h-2.8v-5.1c0-0.8-0.2-1.3-0.5-1.7s-0.8-0.6-1.5-0.6
							s-1.3,0.2-1.7,0.7c-0.4,0.4-0.6,1.1-0.6,2V48h-2.8V34.6H74v4.7c0.4-0.4,0.8-0.7,1.3-0.9C75.9,38.3,76.5,38.2,77.1,38.2z
							 M92.9,43.2c0,0,0,0.3-0.1,0.8h-7.3c0.1,0.6,0.4,1.1,0.9,1.4c0.5,0.3,1.1,0.5,1.8,0.5c0.5,0,1-0.1,1.3-0.2
							c0.4-0.1,0.8-0.4,1.1-0.7l1.5,1.6c-0.9,1-2.2,1.6-4,1.6c-1.1,0-2.1-0.2-2.9-0.6s-1.5-1-1.9-1.8c-0.5-0.8-0.7-1.6-0.7-2.6
							c0-0.9,0.2-1.8,0.7-2.6c0.4-0.8,1.1-1.4,1.9-1.8s1.7-0.6,2.6-0.6s1.8,0.2,2.6,0.6c0.8,0.4,1.4,1,1.8,1.8
							C92.7,41.3,92.9,42.2,92.9,43.2z M87.9,40.3c-0.6,0-1.2,0.2-1.6,0.5c-0.4,0.4-0.7,0.9-0.8,1.5h4.8c-0.1-0.6-0.4-1.1-0.8-1.5
							C89,40.5,88.5,40.3,87.9,40.3z M103.9,43.2c0,0,0,0.3-0.1,0.8h-7.3c0.1,0.6,0.4,1.1,0.9,1.4c0.5,0.3,1.1,0.5,1.8,0.5
							c0.5,0,1-0.1,1.3-0.2c0.4-0.1,0.8-0.4,1.1-0.7l1.5,1.6c-0.9,1-2.2,1.6-4,1.6c-1.1,0-2.1-0.2-2.9-0.6s-1.5-1-1.9-1.8
							c-0.5-0.8-0.7-1.6-0.7-2.6c0-0.9,0.2-1.8,0.7-2.6s1.1-1.4,1.9-1.8s1.7-0.6,2.6-0.6s1.8,0.2,2.6,0.6s1.4,1,1.8,1.8
							C103.7,41.3,103.9,42.2,103.9,43.2z M98.9,40.3c-0.6,0-1.2,0.2-1.6,0.5c-0.4,0.4-0.7,0.9-0.8,1.5h4.8
							c-0.1-0.6-0.4-1.1-0.8-1.5S99.5,40.3,98.9,40.3z M111.7,47.5c-0.3,0.2-0.6,0.4-1,0.5s-0.8,0.2-1.3,0.2c-1.2,0-2-0.3-2.7-0.9
							c-0.6-0.6-0.9-1.5-0.9-2.6v-4h-1.5v-2.2h1.5v-2.4h2.8v2.4h2.4v2.2h-2.4v3.9c0,0.4,0.1,0.7,0.3,0.9c0.2,0.2,0.5,0.3,0.9,0.3
							s0.8-0.1,1.1-0.4L111.7,47.5z M17.9,60.2c1.5,0,2.7,0.4,3.5,1.1s1.2,1.8,1.2,3.2V70H20v-1.2c-0.5,0.9-1.5,1.3-3,1.3
							c-0.7,0-1.4-0.1-1.9-0.4s-1-0.6-1.3-1s-0.4-0.9-0.4-1.5c0-0.9,0.3-1.6,1-2.1s1.7-0.8,3.1-0.8h2.2c0-0.6-0.2-1.1-0.6-1.4
							c-0.4-0.3-0.9-0.5-1.7-0.5c-0.5,0-1,0.1-1.5,0.2c-0.5,0.2-0.9,0.4-1.3,0.7l-1-2c0.5-0.4,1.2-0.7,1.9-0.9
							C16.3,60.3,17.1,60.2,17.9,60.2z M17.6,68.3c0.5,0,0.9-0.1,1.3-0.3s0.6-0.5,0.8-1v-1h-1.9c-1.2,0-1.7,0.4-1.7,1.1
							c0,0.4,0.1,0.6,0.4,0.9C16.8,68.1,17.2,68.3,17.6,68.3z M30.6,60.2c1.2,0,2.2,0.4,2.9,1.1c0.7,0.7,1.1,1.8,1.1,3.2V70h-2.8
							v-5.1c0-0.8-0.2-1.3-0.5-1.7s-0.8-0.6-1.5-0.6s-1.3,0.2-1.7,0.7c-0.4,0.4-0.6,1.1-0.6,2V70h-2.8v-9.7h2.7v1.1
							c0.4-0.4,0.8-0.7,1.4-0.9C29.3,60.3,29.9,60.2,30.6,60.2z M46.8,56.6V70h-2.7v-1.1c-0.7,0.8-1.7,1.3-3,1.3
							c-0.9,0-1.7-0.2-2.5-0.6c-0.7-0.4-1.3-1-1.7-1.7s-0.6-1.6-0.6-2.6s0.2-1.9,0.6-2.6s1-1.3,1.7-1.7s1.6-0.6,2.5-0.6
							c1.2,0,2.2,0.4,2.9,1.2v-4.7h2.8V56.6z M41.6,67.8c0.7,0,1.3-0.2,1.8-0.7s0.7-1.1,0.7-2c0-0.8-0.2-1.5-0.7-2s-1.1-0.7-1.8-0.7
							s-1.3,0.2-1.8,0.7s-0.7,1.1-0.7,2c0,0.8,0.2,1.5,0.7,2S40.9,67.8,41.6,67.8z M59.5,60.2c0.9,0,1.7,0.2,2.5,0.6
							c0.7,0.4,1.3,1,1.7,1.7c0.4,0.7,0.6,1.6,0.6,2.6s-0.2,1.9-0.6,2.6c-0.4,0.8-1,1.3-1.7,1.7c-0.7,0.4-1.6,0.6-2.5,0.6
							c-1.2,0-2.2-0.4-2.9-1.2v4.5h-2.8v-13h2.7v1.1C57.2,60.6,58.2,60.2,59.5,60.2z M59.1,67.8c0.7,0,1.3-0.2,1.8-0.7
							s0.7-1.1,0.7-2c0-0.8-0.2-1.5-0.7-2s-1.1-0.7-1.8-0.7s-1.3,0.2-1.8,0.7s-0.7,1.1-0.7,2c0,0.8,0.2,1.5,0.7,2
							S58.3,67.8,59.1,67.8z M69.6,60.2c1.5,0,2.7,0.4,3.5,1.1c0.8,0.7,1.2,1.8,1.2,3.2V70h-2.6v-1.2c-0.5,0.9-1.5,1.3-3,1.3
							c-0.7,0-1.4-0.1-1.9-0.4s-1-0.6-1.3-1s-0.4-0.9-0.4-1.5c0-0.9,0.3-1.6,1-2.1s1.7-0.8,3.1-0.8h2.2c0-0.6-0.2-1.1-0.6-1.4
							c-0.4-0.3-0.9-0.5-1.7-0.5c-0.5,0-1,0.1-1.5,0.2c-0.5,0.2-0.9,0.4-1.3,0.7l-1-2c0.5-0.4,1.2-0.7,1.9-0.9
							C68.1,60.3,68.9,60.2,69.6,60.2z M69.4,68.3c0.5,0,0.9-0.1,1.3-0.3s0.6-0.5,0.8-1v-1h-1.9c-1.2,0-1.7,0.4-1.7,1.1
							c0,0.4,0.1,0.6,0.4,0.9C68.5,68.1,68.9,68.3,69.4,68.3z M85.9,60.3l-4.4,10.3c-0.4,1.1-1,1.9-1.6,2.4
							c-0.7,0.5-1.4,0.7-2.4,0.7c-0.5,0-1-0.1-1.5-0.2c-0.5-0.2-0.9-0.4-1.2-0.6l1-2c0.2,0.2,0.5,0.3,0.7,0.5
							c0.3,0.1,0.6,0.2,0.8,0.2c0.4,0,0.7-0.1,0.9-0.3c0.2-0.2,0.5-0.5,0.6-0.9v-0.1l-4.2-9.8h2.9l2.7,6.6l2.7-6.6h3V60.3z
							 M89.4,61.6c0.3-0.5,0.8-0.8,1.4-1.1c0.6-0.2,1.2-0.4,2-0.4v2.6c-0.3,0-0.5,0-0.6,0c-0.8,0-1.4,0.2-1.9,0.7s-0.7,1.1-0.7,2V70
							h-2.8v-9.7h2.7L89.4,61.6L89.4,61.6z M98.6,70.1c-1,0-1.9-0.2-2.7-0.6s-1.4-1-1.9-1.8s-0.7-1.6-0.7-2.6s0.2-1.8,0.7-2.6
							s1.1-1.3,1.9-1.8s1.7-0.6,2.7-0.6s1.9,0.2,2.7,0.6c0.8,0.4,1.4,1,1.9,1.8s0.7,1.6,0.7,2.6s-0.2,1.8-0.7,2.6
							c-0.5,0.8-1.1,1.3-1.9,1.8C100.6,69.9,99.6,70.1,98.6,70.1z M98.6,67.8c0.7,0,1.3-0.2,1.8-0.7s0.7-1.1,0.7-2
							c0-0.8-0.2-1.5-0.7-2s-1.1-0.7-1.8-0.7c-0.7,0-1.3,0.2-1.8,0.7s-0.7,1.1-0.7,2c0,0.8,0.2,1.5,0.7,2S97.9,67.8,98.6,67.8z
							 M105.5,56.6h2.8V70h-2.8V56.6z M110.6,56.6h2.8V70h-2.8V56.6z M54.1,78.6V92h-2.7v-1.1c-0.7,0.8-1.7,1.3-3,1.3
							c-0.9,0-1.7-0.2-2.5-0.6c-0.7-0.4-1.3-1-1.7-1.7c-0.4-0.8-0.6-1.6-0.6-2.6s0.2-1.9,0.6-2.6c0.4-0.8,1-1.3,1.7-1.7
							c0.7-0.4,1.6-0.6,2.5-0.6c1.2,0,2.2,0.4,2.9,1.2v-4.7h2.8V78.6z M48.9,89.8c0.7,0,1.3-0.2,1.8-0.7s0.7-1.1,0.7-2
							c0-0.8-0.2-1.5-0.7-2s-1.1-0.7-1.8-0.7s-1.3,0.2-1.8,0.7s-0.7,1.1-0.7,2c0,0.8,0.2,1.5,0.7,2S48.1,89.8,48.9,89.8z M60.2,82.2
							c1.5,0,2.7,0.4,3.5,1.1s1.2,1.8,1.2,3.2V92h-2.6v-1.2c-0.5,0.9-1.5,1.3-3,1.3c-0.7,0-1.4-0.1-1.9-0.4s-1-0.6-1.3-1
							s-0.4-0.9-0.4-1.5c0-0.9,0.3-1.6,1-2.1s1.7-0.8,3.1-0.8H62c0-0.6-0.2-1.1-0.6-1.4s-0.9-0.5-1.7-0.5c-0.5,0-1,0.1-1.5,0.2
							c-0.5,0.2-0.9,0.4-1.3,0.7l-1-2c0.5-0.4,1.2-0.7,1.9-0.9C58.7,82.3,59.5,82.2,60.2,82.2z M60,90.3c0.5,0,0.9-0.1,1.3-0.3
							s0.6-0.5,0.8-1v-1h-1.9c-1.2,0-1.7,0.4-1.7,1.1c0,0.4,0.1,0.6,0.4,0.9C59.1,90.1,59.5,90.3,60,90.3z M73.4,91.5
							c-0.3,0.2-0.6,0.4-1,0.5s-0.8,0.2-1.3,0.2c-1.2,0-2-0.3-2.7-0.9c-0.6-0.6-0.9-1.5-0.9-2.6v-4H66v-2.2h1.5v-2.4h2.8v2.4h2.4
							v2.2h-2.4v3.9c0,0.4,0.1,0.7,0.3,0.9c0.2,0.2,0.5,0.3,0.9,0.3s0.8-0.1,1.1-0.4L73.4,91.5z M78.5,82.2c1.5,0,2.7,0.4,3.5,1.1
							s1.2,1.8,1.2,3.2V92h-2.6v-1.2c-0.5,0.9-1.5,1.3-3,1.3c-0.7,0-1.4-0.1-1.9-0.4s-1-0.6-1.3-1S74,89.8,74,89.2
							c0-0.9,0.3-1.6,1-2.1s1.7-0.8,3.1-0.8h2.2c0-0.6-0.2-1.1-0.6-1.4s-0.9-0.5-1.7-0.5c-0.5,0-1,0.1-1.5,0.2
							c-0.5,0.2-0.9,0.4-1.3,0.7l-1-2c0.5-0.4,1.2-0.7,1.9-0.9C77,82.3,77.7,82.2,78.5,82.2z M78.3,90.3c0.5,0,0.9-0.1,1.3-0.3
							s0.6-0.5,0.8-1v-1h-1.9c-1.2,0-1.7,0.4-1.7,1.1c0,0.4,0.1,0.6,0.4,0.9C77.4,90.1,77.8,90.3,78.3,90.3z"/>
					</g>
				</g>
			</g>
			<g id="Group-17-Copy-3" transform="translate(0.000000, 280.000000)">
				<g>
					<g>
						<circle id="path-29" class="st12" cx="70" cy="69" r="69"/>
					</g>
					<circle class="st13" cx="70" cy="69" r="72"/>
				</g>
				<g transform="translate(0.000000, 6.000000)">
					<g>
						<g>
							<g>
								<circle id="path-30" cx="70" cy="63" r="63"/>
							</g>
							<g>
								<circle class="st17" cx="70" cy="63" r="63"/>
							</g>
						</g>
						<path id="Automated-receipt-co" class="st6" d="M28.5,46.3h-5.9L21.5,49h-3l5.6-12.6H27L32.7,49h-3.1L28.5,46.3z M27.6,44.1
							l-2-4.8l-2,4.8H27.6z M43,39.3V49h-2.7v-1.2c-0.4,0.4-0.8,0.7-1.3,1s-1.1,0.3-1.7,0.3c-1.3,0-2.3-0.4-3-1.1
							c-0.7-0.7-1.1-1.8-1.1-3.3v-5.5H36v5.1c0,1.6,0.7,2.3,2,2.3c0.7,0,1.2-0.2,1.6-0.7c0.4-0.4,0.6-1.1,0.6-2v-4.8H43V39.3z
							 M51.5,48.5c-0.3,0.2-0.6,0.4-1,0.5s-0.8,0.2-1.3,0.2c-1.2,0-2-0.3-2.7-0.9c-0.6-0.6-0.9-1.5-0.9-2.6v-4h-1.5v-2.2h1.5v-2.4
							h2.8v2.4h2.4v2.2h-2.4v3.9c0,0.4,0.1,0.7,0.3,0.9s0.5,0.3,0.9,0.3s0.8-0.1,1.1-0.4L51.5,48.5z M57.1,49.1
							c-1,0-1.9-0.2-2.7-0.6s-1.4-1-1.9-1.8s-0.7-1.6-0.7-2.6s0.2-1.8,0.7-2.6s1.1-1.3,1.9-1.8s1.7-0.6,2.7-0.6s1.9,0.2,2.7,0.6
							s1.4,1,1.9,1.8s0.7,1.6,0.7,2.6s-0.2,1.8-0.7,2.6s-1.1,1.3-1.9,1.8S58.1,49.1,57.1,49.1z M57.1,46.8c0.7,0,1.3-0.2,1.8-0.7
							s0.7-1.1,0.7-2c0-0.8-0.2-1.5-0.7-2s-1.1-0.7-1.8-0.7s-1.3,0.2-1.8,0.7s-0.7,1.1-0.7,2c0,0.8,0.2,1.5,0.7,2
							S56.4,46.8,57.1,46.8z M76.3,39.2c1.2,0,2.2,0.4,2.9,1.1c0.7,0.7,1.1,1.8,1.1,3.2V49h-2.8v-5.1c0-0.8-0.2-1.3-0.5-1.7
							s-0.8-0.6-1.4-0.6c-0.7,0-1.2,0.2-1.6,0.6c-0.4,0.4-0.6,1.1-0.6,1.9V49h-2.8v-5.1c0-1.5-0.6-2.3-1.8-2.3
							c-0.6,0-1.2,0.2-1.5,0.6s-0.6,1.1-0.6,1.9V49h-2.8v-9.7h2.7v1.1c0.4-0.4,0.8-0.7,1.3-0.9s1.1-0.3,1.7-0.3
							c0.7,0,1.3,0.1,1.9,0.4s1,0.7,1.3,1.2c0.4-0.5,0.9-0.9,1.5-1.2S75.6,39.2,76.3,39.2z M86.4,39.2c1.5,0,2.7,0.4,3.5,1.1
							s1.2,1.8,1.2,3.2V49h-2.6v-1.2c-0.5,0.9-1.5,1.4-3,1.4c-0.7,0-1.4-0.1-1.9-0.4c-0.5-0.3-1-0.6-1.3-1s-0.4-0.9-0.4-1.5
							c0-0.9,0.3-1.6,1-2.1s1.7-0.8,3.1-0.8h2.2c0-0.6-0.2-1.1-0.6-1.4s-0.9-0.5-1.7-0.5c-0.5,0-1,0.1-1.5,0.2
							c-0.5,0.2-0.9,0.4-1.3,0.7l-1-2c0.5-0.4,1.2-0.7,1.9-0.9C84.9,39.3,85.6,39.2,86.4,39.2z M86.2,47.3c0.5,0,0.9-0.1,1.3-0.3
							s0.6-0.5,0.8-1v-1h-1.9c-1.2,0-1.7,0.4-1.7,1.1c0,0.4,0.1,0.6,0.4,0.9C85.3,47.1,85.7,47.3,86.2,47.3z M99.5,48.5
							c-0.3,0.2-0.6,0.4-1,0.5s-0.8,0.2-1.3,0.2c-1.2,0-2-0.3-2.7-0.9c-0.6-0.6-0.9-1.5-0.9-2.6v-4h-1.5v-2.2h1.5v-2.4h2.8v2.4h2.4
							v2.2h-2.4v3.9c0,0.4,0.1,0.7,0.3,0.9c0.2,0.2,0.5,0.3,0.9,0.3s0.8-0.1,1.1-0.4L99.5,48.5z M109.9,44.2c0,0,0,0.3-0.1,0.8h-7.3
							c0.1,0.6,0.4,1.1,0.9,1.4c0.5,0.3,1.1,0.5,1.8,0.5c0.5,0,1-0.1,1.3-0.2c0.4-0.1,0.8-0.4,1.1-0.7l1.5,1.6c-0.9,1-2.2,1.6-4,1.6
							c-1.1,0-2.1-0.2-2.9-0.6s-1.5-1-1.9-1.8c-0.5-0.8-0.7-1.6-0.7-2.6c0-0.9,0.2-1.8,0.7-2.6c0.4-0.8,1.1-1.4,1.9-1.8
							s1.7-0.6,2.6-0.6s1.8,0.2,2.6,0.6c0.8,0.4,1.4,1,1.8,1.8C109.7,42.3,109.9,43.2,109.9,44.2z M104.9,41.3
							c-0.6,0-1.2,0.2-1.6,0.5c-0.4,0.4-0.7,0.9-0.8,1.5h4.8c-0.1-0.6-0.4-1.1-0.8-1.5C106.1,41.5,105.5,41.3,104.9,41.3z
							 M121.3,35.6V49h-2.7v-1.1c-0.7,0.8-1.7,1.3-3,1.3c-0.9,0-1.7-0.2-2.5-0.6c-0.7-0.4-1.3-1-1.7-1.7c-0.4-0.8-0.6-1.6-0.6-2.6
							s0.2-1.9,0.6-2.6c0.4-0.8,1-1.3,1.7-1.7s1.6-0.6,2.5-0.6c1.2,0,2.2,0.4,2.9,1.2v-4.7h2.8V35.6z M116.1,46.8
							c0.7,0,1.3-0.2,1.8-0.7s0.7-1.1,0.7-2c0-0.8-0.2-1.5-0.7-2s-1.1-0.7-1.8-0.7c-0.7,0-1.3,0.2-1.8,0.7s-0.7,1.1-0.7,2
							c0,0.8,0.2,1.5,0.7,2S115.4,46.8,116.1,46.8z M42.4,62.6c0.3-0.5,0.8-0.8,1.4-1.1c0.6-0.2,1.2-0.4,2-0.4v2.6
							c-0.3,0-0.5,0-0.6,0c-0.8,0-1.4,0.2-1.9,0.7c-0.5,0.5-0.7,1.1-0.7,2V71h-2.8v-9.7h2.7v1.3H42.4z M56.5,66.2c0,0,0,0.3-0.1,0.8
							h-7.3c0.1,0.6,0.4,1.1,0.9,1.4s1.1,0.5,1.8,0.5c0.5,0,1-0.1,1.3-0.2c0.4-0.2,0.8-0.4,1.1-0.7l1.5,1.6c-0.9,1-2.2,1.6-4,1.6
							c-1.1,0-2.1-0.2-2.9-0.6c-0.8-0.4-1.5-1-1.9-1.8c-0.5-0.8-0.7-1.6-0.7-2.6c0-0.9,0.2-1.8,0.7-2.6c0.5-0.8,1.1-1.4,1.9-1.8
							s1.7-0.6,2.6-0.6c0.9,0,1.8,0.2,2.6,0.6c0.8,0.4,1.4,1,1.8,1.8C56.3,64.3,56.5,65.2,56.5,66.2z M51.4,63.3
							c-0.6,0-1.2,0.2-1.6,0.5s-0.7,0.9-0.8,1.5h4.8c-0.1-0.6-0.4-1.1-0.8-1.5C52.6,63.5,52.1,63.3,51.4,63.3z M62.7,71.1
							c-1,0-2-0.2-2.8-0.6s-1.5-1-1.9-1.8s-0.7-1.6-0.7-2.6s0.2-1.8,0.7-2.6s1.1-1.3,1.9-1.8c0.8-0.4,1.7-0.6,2.8-0.6
							c1,0,1.9,0.2,2.7,0.6c0.8,0.4,1.3,1,1.7,1.8l-2.2,1.2c-0.5-0.9-1.2-1.3-2.2-1.3c-0.7,0-1.3,0.2-1.8,0.7s-0.7,1.1-0.7,2
							c0,0.8,0.2,1.5,0.7,2s1.1,0.7,1.8,0.7c1,0,1.7-0.4,2.2-1.3l2.2,1.2c-0.3,0.8-0.9,1.4-1.7,1.8C64.6,70.9,63.7,71.1,62.7,71.1z
							 M77.7,66.2c0,0,0,0.3-0.1,0.8h-7.3c0.1,0.6,0.4,1.1,0.9,1.4s1.1,0.5,1.8,0.5c0.5,0,1-0.1,1.3-0.2c0.4-0.2,0.8-0.4,1.1-0.7
							l1.5,1.6c-0.9,1-2.2,1.6-4,1.6c-1.1,0-2.1-0.2-2.9-0.6s-1.5-1-1.9-1.8s-0.7-1.6-0.7-2.6c0-0.9,0.2-1.8,0.7-2.6
							c0.5-0.8,1.1-1.4,1.9-1.8s1.7-0.6,2.6-0.6s1.8,0.2,2.6,0.6s1.4,1,1.8,1.8C77.5,64.3,77.7,65.2,77.7,66.2z M72.6,63.3
							c-0.6,0-1.2,0.2-1.6,0.5c-0.4,0.4-0.7,0.9-0.8,1.5H75c-0.1-0.6-0.4-1.1-0.8-1.5C73.8,63.5,73.3,63.3,72.6,63.3z M79.2,61.3H82
							V71h-2.8V61.3z M80.6,60c-0.5,0-0.9-0.1-1.3-0.5c-0.3-0.3-0.5-0.7-0.5-1.1c0-0.4,0.2-0.8,0.5-1.1s0.7-0.5,1.3-0.5
							c0.5,0,0.9,0.1,1.3,0.4c0.3,0.3,0.5,0.6,0.5,1.1s-0.2,0.9-0.5,1.2C81.5,59.8,81.1,60,80.6,60z M90,61.2c0.9,0,1.7,0.2,2.5,0.6
							c0.7,0.4,1.3,1,1.7,1.7c0.4,0.8,0.6,1.6,0.6,2.6s-0.2,1.9-0.6,2.6c-0.4,0.8-1,1.3-1.7,1.7C91.8,70.8,90.9,71,90,71
							c-1.2,0-2.2-0.4-2.9-1.2v4.5h-2.8v-13H87v1.1C87.7,61.6,88.7,61.2,90,61.2z M89.5,68.8c0.7,0,1.3-0.2,1.8-0.7s0.7-1.1,0.7-2
							c0-0.8-0.2-1.5-0.7-2s-1.1-0.7-1.8-0.7c-0.7,0-1.3,0.2-1.8,0.7s-0.7,1.1-0.7,2c0,0.8,0.2,1.5,0.7,2
							C88.2,68.6,88.8,68.8,89.5,68.8z M102.6,70.5c-0.3,0.2-0.6,0.4-1,0.5s-0.8,0.2-1.3,0.2c-1.2,0-2-0.3-2.7-0.9s-0.9-1.5-0.9-2.6
							v-4h-1.5v-2.2h1.5v-2.4h2.8v2.4h2.4v2.2h-2.4v3.9c0,0.4,0.1,0.7,0.3,0.9s0.5,0.3,0.9,0.3s0.8-0.1,1.1-0.4L102.6,70.5z
							 M31.8,93.1c-1,0-2-0.2-2.8-0.6s-1.5-1-1.9-1.8c-0.5-0.8-0.7-1.6-0.7-2.6s0.2-1.8,0.7-2.6c0.5-0.8,1.1-1.3,1.9-1.8
							s1.7-0.6,2.8-0.6c1,0,1.9,0.2,2.7,0.6s1.3,1,1.7,1.8L34,86.7c-0.5-0.9-1.2-1.3-2.2-1.3c-0.7,0-1.3,0.2-1.8,0.7s-0.7,1.1-0.7,2
							c0,0.8,0.2,1.5,0.7,2s1.1,0.7,1.8,0.7c1,0,1.7-0.4,2.2-1.3l2.2,1.2c-0.3,0.8-0.9,1.4-1.7,1.8C33.7,92.9,32.8,93.1,31.8,93.1z
							 M41.9,93.1c-1,0-1.9-0.2-2.7-0.6s-1.4-1-1.9-1.8s-0.7-1.6-0.7-2.6s0.2-1.8,0.7-2.6s1.1-1.3,1.9-1.8c0.8-0.4,1.7-0.6,2.7-0.6
							s1.9,0.2,2.7,0.6s1.4,1,1.9,1.8s0.7,1.6,0.7,2.6s-0.2,1.8-0.7,2.6s-1.1,1.3-1.9,1.8C43.8,92.9,42.9,93.1,41.9,93.1z
							 M41.9,90.8c0.7,0,1.3-0.2,1.8-0.7s0.7-1.1,0.7-2c0-0.8-0.2-1.5-0.7-2s-1.1-0.7-1.8-0.7s-1.3,0.2-1.8,0.7s-0.7,1.1-0.7,2
							c0,0.8,0.2,1.5,0.7,2S41.2,90.8,41.9,90.8z M48.7,79.6h2.8V93h-2.8V79.6z M53.8,79.6h2.8V93h-2.8V79.6z M68.4,88.2
							c0,0,0,0.3-0.1,0.8H61c0.1,0.6,0.4,1.1,0.9,1.4s1.1,0.5,1.8,0.5c0.5,0,1-0.1,1.3-0.2s0.8-0.4,1.1-0.7l1.5,1.6
							c-0.9,1-2.2,1.6-4,1.6c-1.1,0-2.1-0.2-2.9-0.6s-1.5-1-1.9-1.8c-0.5-0.8-0.7-1.6-0.7-2.6c0-0.9,0.2-1.8,0.7-2.6
							c0.5-0.8,1.1-1.4,1.9-1.8s1.7-0.6,2.6-0.6c0.9,0,1.8,0.2,2.6,0.6c0.8,0.4,1.4,1,1.8,1.8C68.2,86.3,68.4,87.2,68.4,88.2z
							 M63.4,85.3c-0.6,0-1.2,0.2-1.6,0.5c-0.4,0.4-0.7,0.9-0.8,1.5h4.8c-0.1-0.6-0.4-1.1-0.8-1.5C64.5,85.5,64,85.3,63.4,85.3z
							 M74.6,93.1c-1,0-2-0.2-2.8-0.6s-1.5-1-1.9-1.8s-0.7-1.6-0.7-2.6s0.2-1.8,0.7-2.6s1.1-1.3,1.9-1.8c0.8-0.4,1.7-0.6,2.8-0.6
							c1,0,1.9,0.2,2.7,0.6c0.8,0.4,1.3,1,1.7,1.8l-2.2,1.2c-0.5-0.9-1.2-1.3-2.2-1.3c-0.7,0-1.3,0.2-1.8,0.7s-0.7,1.1-0.7,2
							c0,0.8,0.2,1.5,0.7,2s1.1,0.7,1.8,0.7c1,0,1.7-0.4,2.2-1.3l2.2,1.2c-0.3,0.8-0.9,1.4-1.7,1.8C76.5,92.9,75.6,93.1,74.6,93.1z
							 M86.6,92.5c-0.3,0.2-0.6,0.4-1,0.5s-0.8,0.2-1.3,0.2c-1.2,0-2-0.3-2.7-0.9c-0.6-0.6-0.9-1.5-0.9-2.6v-4h-1.5v-2.2h1.5v-2.4
							h2.8v2.4h2.4v2.2h-2.4v3.9c0,0.4,0.1,0.7,0.3,0.9c0.2,0.2,0.5,0.3,0.9,0.3s0.8-0.1,1.1-0.4L86.6,92.5z M87.9,83.3h2.8V93h-2.8
							V83.3z M89.3,82c-0.5,0-0.9-0.2-1.3-0.5c-0.3-0.3-0.5-0.7-0.5-1.1s0.2-0.8,0.5-1.1c0.3-0.3,0.7-0.4,1.3-0.4
							c0.5,0,0.9,0.1,1.3,0.4c0.3,0.3,0.5,0.6,0.5,1.1s-0.2,0.9-0.5,1.2C90.2,81.8,89.8,82,89.3,82z M97.5,93.1
							c-1,0-1.9-0.2-2.7-0.6s-1.4-1-1.9-1.8s-0.7-1.6-0.7-2.6s0.2-1.8,0.7-2.6s1.1-1.3,1.9-1.8s1.7-0.6,2.7-0.6s1.9,0.2,2.7,0.6
							c0.8,0.4,1.4,1,1.9,1.8s0.7,1.6,0.7,2.6s-0.2,1.8-0.7,2.6c-0.5,0.8-1.1,1.3-1.9,1.8C99.5,92.9,98.6,93.1,97.5,93.1z
							 M97.5,90.8c0.7,0,1.3-0.2,1.8-0.7s0.7-1.1,0.7-2c0-0.8-0.2-1.5-0.7-2s-1.1-0.7-1.8-0.7c-0.7,0-1.3,0.2-1.8,0.7
							s-0.7,1.1-0.7,2c0,0.8,0.2,1.5,0.7,2S96.8,90.8,97.5,90.8z M110.3,83.2c1.2,0,2.2,0.4,2.9,1.1c0.7,0.7,1.1,1.8,1.1,3.2V93
							h-2.8v-5.1c0-0.8-0.2-1.3-0.5-1.7c-0.3-0.4-0.8-0.6-1.5-0.6s-1.3,0.2-1.7,0.7c-0.4,0.4-0.6,1.1-0.6,2V93h-2.8v-9.7h2.7v1.1
							c0.4-0.4,0.8-0.7,1.4-0.9S109.6,83.2,110.3,83.2z"/>
					</g>
				</g>
			</g>
			<path id="Path-3" class="st0" d="M359.8,74c-5.8-3.2-8.6-4.8-8.6-4.8"/>
			<path id="Path-4" class="st0" d="M359.9,73.4c0,0-1.7,2.6-5.2,7.9"/>
			<polyline id="Path-5" class="st0" points="761.8,273.2 768.2,275.6 770.3,269.9 			"/>
			<polyline id="Path-6" class="st0" points="61.5,428.2 66.3,423.9 70.7,428.2 			"/>
			<path id="Client" class="st15" d="M416.2,836.2c-1.3,0-2.4-0.3-3.5-0.8c-1-0.6-1.9-1.3-2.4-2.3c-0.6-1-0.9-2.1-0.9-3.4
				c0-1.2,0.3-2.4,0.9-3.4s1.4-1.8,2.4-2.3c1-0.6,2.2-0.8,3.5-0.8c1.1,0,2.1,0.2,3,0.6c0.9,0.4,1.6,0.9,2.2,1.7l-1.9,1.7
				c-0.9-1-1.9-1.5-3.2-1.5c-0.8,0-1.5,0.2-2.1,0.5s-1.1,0.8-1.4,1.4c-0.3,0.6-0.5,1.3-0.5,2.1s0.2,1.5,0.5,2.1s0.8,1.1,1.4,1.4
				s1.3,0.5,2.1,0.5c1.3,0,2.3-0.5,3.2-1.5l1.9,1.7c-0.6,0.7-1.3,1.3-2.2,1.7C418.3,836,417.3,836.2,416.2,836.2z M422.8,822.6h2.8
				V836h-2.8V822.6z M427.9,826.3h2.8v9.7h-2.8V826.3z M429.3,825c-0.5,0-0.9-0.2-1.3-0.5s-0.5-0.7-0.5-1.1c0-0.4,0.2-0.8,0.5-1.1
				s0.7-0.5,1.3-0.5s0.9,0.1,1.3,0.4c0.3,0.3,0.5,0.6,0.5,1.1s-0.2,0.9-0.5,1.2C430.3,824.8,429.8,825,429.3,825z M442.5,831.2
				c0,0,0,0.3-0.1,0.8h-7.3c0.1,0.6,0.4,1.1,0.9,1.4s1.1,0.5,1.8,0.5c0.5,0,1-0.1,1.3-0.2c0.4-0.2,0.8-0.4,1.1-0.7l1.5,1.6
				c-0.9,1-2.2,1.6-4,1.6c-1.1,0-2.1-0.2-2.9-0.6s-1.5-1-1.9-1.8s-0.7-1.6-0.7-2.6c0-0.9,0.2-1.8,0.7-2.6s1.1-1.4,1.9-1.8
				c0.8-0.4,1.7-0.6,2.6-0.6s1.8,0.2,2.6,0.6s1.4,1,1.8,1.8C442.3,829.3,442.5,830.2,442.5,831.2z M437.5,828.3
				c-0.6,0-1.2,0.2-1.6,0.5c-0.4,0.4-0.7,0.9-0.8,1.5h4.8c-0.1-0.6-0.4-1.1-0.8-1.5C438.6,828.5,438.1,828.3,437.5,828.3z
				 M449.9,826.2c1.2,0,2.2,0.4,2.9,1.1c0.7,0.7,1.1,1.8,1.1,3.2v5.5h-2.8v-5.1c0-0.8-0.2-1.3-0.5-1.7s-0.8-0.6-1.5-0.6
				s-1.3,0.2-1.7,0.7c-0.4,0.4-0.6,1.1-0.6,2v4.8H444v-9.7h2.7v1.1c0.4-0.4,0.8-0.7,1.4-0.9S449.2,826.2,449.9,826.2z M462.4,835.5
				c-0.3,0.2-0.6,0.4-1,0.5s-0.8,0.2-1.3,0.2c-1.2,0-2-0.3-2.7-0.9c-0.6-0.6-0.9-1.5-0.9-2.6v-4H455v-2.2h1.5v-2.4h2.8v2.4h2.4v2.2
				h-2.4v3.9c0,0.4,0.1,0.7,0.3,0.9c0.2,0.2,0.5,0.3,0.9,0.3s0.8-0.1,1.1-0.4L462.4,835.5z"/>
			<polyline id="Path-7" class="st0" points="431,323 435.9,328.2 441.1,323 			"/>
			<polyline id="Path-7-Copy-5" class="st0" points="431,615 435.9,620.2 441.1,615 			"/>
			<polyline id="Path-7-Copy-6" class="st0" points="431,151 435.9,156.2 441.1,151 			"/>
			<polyline id="Path-7-Copy-7" class="st0" points="706.2,356.1 701,351.3 706.2,346 			"/>
			<polyline id="Path-7-Copy-8" class="st0" points="166,356.1 171.2,351.3 166,346 			"/>
			<polyline id="Path-7-Copy" class="st0" points="214,471.1 220.2,474.5 223.6,468 			"/>
			<polyline id="Path-7-Copy-3" class="st0" points="340.8,496.2 342.2,489.3 335,488 			"/>
			<polyline id="Path-7-Copy-4" class="st0" points="529.2,495.7 527.8,488.8 535,487.5 			"/>
			<polyline id="Path-7-Copy-2" class="st0" points="656.7,471.1 650.5,474.5 647.1,468 			"/>
			<path class="st19" d="M403.5,436.2c-1.1-0.6-2.5-0.3-3.2,0.8l-3.9,6.7c-0.1,0.2-0.3,0.2-0.4,0l-15-25.6c-0.1-0.2-0.3-0.3-0.5-0.3
				h-15.1c-0.3,0-0.5,0.2-0.5,0.5c0,1.3,1,2.3,2.3,2.3h9.3c0.2,0,0.3,0.2,0.2,0.4l-14.8,25.3c-0.1,0.2-0.1,0.4,0,0.6l0.9,1.5l5,8.6
				c0.1,0.2,0.2,0.2,0.4,0.2c0.1,0,0.2,0,0.2-0.1c1.1-0.6,1.5-2,0.8-3.2l-3.1-5.3c-0.1-0.2,0-0.4,0.2-0.4h30.3
				c0.2,0,0.4-0.1,0.5-0.3l6.5-11.3c0-0.1,0.1-0.2,0.1-0.2C403.7,436.4,403.6,436.3,403.5,436.2z M392.8,445.7h-26.3
				c-0.5,0-0.9-0.6-0.6-1l13.1-22.4c0.3-0.5,0.9-0.5,1.2,0l13.1,22.4C393.7,445.1,393.3,445.7,392.8,445.7z"/>
			<linearGradient id="SVGID_2_" gradientUnits="userSpaceOnUse" x1="361.775" y1="450.985" x2="395.57" y2="450.985">
				<stop  offset="0" style="stop-color:#18D4E0"/>
				<stop  offset="1" style="stop-color:#1CD6DB"/>
			</linearGradient>
			<path class="st20" d="M369.2,454c0.6,1.1,0.3,2.5-0.8,3.2c-0.1,0-0.2,0.1-0.2,0.1c-0.2,0-0.3-0.1-0.4-0.2l-5-8.6l-0.9-1.5
				c-0.1-0.2-0.1-0.4,0-0.6l0.4-0.6h30.6c0.5,0,0.8-0.5,0.6-1l2.2,3.7h-29.2c-0.2,0-0.3,0.2-0.2,0.4L369.2,454z"/>
			<linearGradient id="SVGID_3_" gradientUnits="userSpaceOnUse" x1="379.67" y1="433.15" x2="403.68" y2="433.15">
				<stop  offset="0" style="stop-color:#0CCEC7"/>
				<stop  offset="1" style="stop-color:#25DAE5"/>
			</linearGradient>
			<path class="st21" d="M403.7,436.6c0,0.1,0,0.2-0.1,0.2l-6.5,11.3c-0.1,0.2-0.3,0.3-0.5,0.3h-1.1l-2.2-3.7l-6.4-11l-6.7-11.5
				c-0.1-0.2-0.4-0.3-0.6-0.3v-4h0.8c0.2,0,0.4,0.1,0.5,0.3l15,25.6c0.1,0.2,0.3,0.2,0.4,0l3.9-6.7c0.6-1.1,2-1.5,3.2-0.8
				C403.6,436.3,403.7,436.4,403.7,436.6z"/>
			<linearGradient id="SVGID_4_" gradientUnits="userSpaceOnUse" x1="362.2162" y1="431.8" x2="379.6662" y2="431.8">
				<stop  offset="0" style="stop-color:#53F87E"/>
				<stop  offset="1" style="stop-color:#0CCEC7"/>
			</linearGradient>
			<path class="st22" d="M379.7,417.9v4c-0.2,0-0.5,0.1-0.6,0.3c0,0,0,0,0,0L367,442.9l-1.1,1.8c-0.3,0.5,0.1,1,0.6,1h-4.3
				l14.5-24.6c0.1-0.2,0-0.4-0.2-0.4h-9.3c-1.3,0-2.3-1-2.3-2.3c0-0.3,0.2-0.5,0.5-0.5H379.7z"/>
			<path class="st23" d="M503.1,434.2c0.7-2.3,1.4-4.4,2.1-6.4c0.9-2.8,1.8-5.6,2.7-8.4c0.1-0.4,0.2-0.8,0.6-0.9
				c0.4-0.1,0.9-0.2,1.2,0c0.4,0.2,0,0.7-0.1,1c-1.8,5.3-3.5,10.7-5.3,16c-0.2,0.5-0.3,1-1,1c-0.8,0-1-0.5-1.2-1
				c-1.6-4.9-3.3-9.8-4.9-14.7c-0.3,0.2-0.3,0.6-0.4,0.9c-1.6,4.6-3.1,9.2-4.7,13.8c-0.2,0.6-0.4,1.1-1.2,1c-0.5,0-0.7-0.2-0.9-0.6
				c-1.9-5.6-3.7-11.2-5.6-16.8c-0.1-0.2-0.4-0.6,0.1-0.6c0.5,0,1.1-0.2,1.5,0.3c0.2,0.2,0.2,0.6,0.3,0.9c1.5,4.7,3,9.5,4.5,14.2
				c0,0.1,0.1,0.1,0.2,0.1c0.3-0.2,0.3-0.5,0.4-0.8c1.6-4.6,3.1-9.2,4.6-13.9c0.2-0.5,0.3-1,1.1-1c0.8,0,1,0.5,1.1,1.1
				c1.5,4.6,3,9.2,4.5,13.8C502.8,433.4,502.9,433.7,503.1,434.2z"/>
			<path class="st23" d="M469.4,426.6c2,0,3.9,0,5.9,0h4.7c2.2,0,2.2,0,1.9-2.2c-0.4-3.1-2.1-5.3-4.9-6.1c-3-0.8-6.5,0.1-8.2,2.5
				c-2.5,3.3-2.5,7.1-1.2,10.8c1.9,5.2,9.4,6.8,13.5,3c0.3-0.2,0.7-0.4,0.3-0.9c-0.3-0.4-0.7-0.5-1.1-0.2c-0.3,0.2-0.7,0.5-1,0.7
				c-4.7,2.7-9.6,0.5-10.6-4.7c-0.1-0.6-0.1-1.3-0.2-2C468.5,426.9,468.7,426.6,469.4,426.6z M476.7,419.6c2.2,0.7,3.9,3.1,3.8,5.4
				c0,0.6-0.4,0.6-0.8,0.6c-1.7,0-3.4,0-5.2,0c-1.7,0-3.4,0-5,0c-0.5,0-0.8-0.1-0.7-0.7C469.2,420.9,472.9,418.5,476.7,419.6z"/>
			<path class="st23" d="M431.5,426.6c1.9,0,3.8,0,5.8,0c2,0,3.9,0,5.9,0c0.6,0,0.9-0.1,0.9-0.8c0.2-3.5-1.8-6.5-4.8-7.5
				c-3.5-1.1-7.3,0.4-9,3.4c-1.2,2.1-1.5,4.3-1.2,6.6c0.3,3.3,1.5,6.2,4.7,7.6s6.4,0.8,9.3-1.1c0.3-0.2,1-0.5,0.5-1.1
				c-0.4-0.6-0.9-0.3-1.3,0c-0.7,0.5-1.5,0.9-2.4,1.2c-4.4,1.4-8-0.7-8.9-5.2c-0.1-0.7-0.2-1.4-0.3-2.1
				C430.5,426.8,430.8,426.6,431.5,426.6z M438.4,419.5c3,0.7,3.9,3.3,4.1,5.4c0,0.6-0.3,0.6-0.7,0.6c-1.7,0-3.4,0-5.2,0
				c-1.7,0-3.4,0-5.2,0c-0.5,0-0.8-0.1-0.7-0.7C431.2,421.1,434.7,418.6,438.4,419.5z"/>
			<path class="st23" d="M450.7,421.3c0.2-0.3,0.4-0.7,0.7-1c1.8-1.8,4-2.5,6.6-2.2c2.7,0.3,4.6,2.4,4.7,5.5c0.2,4,0.1,8,0.1,12.1
				c0,0.6-0.4,0.7-0.9,0.7c-0.6,0-0.9-0.2-0.9-0.8c0-3.3,0-6.7,0-10c0-0.6,0-1.2-0.1-1.9c-0.5-3.5-2.9-5.1-6.3-4.1
				c-1.7,0.5-2.9,1.5-4,2.8c-0.3,0.4-0.3,0.8-0.3,1.3c0,3.9,0,7.8,0,11.7c0,0.6,0,1.1-0.8,1.1c-0.9,0-0.9-0.4-0.9-1.1
				c0-5.4,0-10.7,0-16.1c0-0.4-0.2-0.9,0.6-1c0.7,0,0.9,0.3,0.9,0.9c0,0.6,0.1,1.2,0.1,1.8C450.4,421.2,450.5,421.3,450.7,421.3z"/>
			<path class="st23" d="M417.6,422.2c0.4-0.6,0.7-1.1,1-1.6c1.6-2.3,4.2-3.1,6.7-2.3c0.8,0.2,0.8,0.6,0.7,1.3
				c-0.2,0.8-0.6,0.5-1.1,0.4c-3.9-1-7.3,1.6-7.3,5.6c0,3.3,0,6.5,0,9.8c0,0.6-0.1,1-0.9,1c-0.8,0-0.9-0.4-0.9-1
				c0-5.4,0-10.8,0-16.2c0-0.4-0.2-0.9,0.6-0.9c0.7,0,0.9,0.3,0.9,0.9C417.4,420.2,417.3,421.2,417.6,422.2z"/>
			<path class="st23" d="M435.2,446.5c0.6-1.3,1.1-2.3,1.6-3.4c0.3-0.8,0.9-0.7,1.4-0.6c0.7,0.1,0.4,0.6,0.4,1c0,2,0,3.9,0,5.9
				c0,0.4,0,0.8-0.6,0.8c-0.6,0-0.5-0.4-0.5-0.8c0-1.6,0-3.2,0-5.1c-0.8,1.1-1.1,2.1-1.6,3.1c-0.1,0.3-0.2,0.7-0.7,0.7
				c-0.5,0-0.6-0.4-0.7-0.7c-0.5-1-0.9-1.9-1.4-3c-0.3,0.9-0.1,1.7-0.2,2.4c0,0.9,0,1.9,0,2.8c0,0.4-0.1,0.7-0.6,0.6
				c-0.5,0-0.5-0.3-0.5-0.6c0-2.1,0-4.1,0-6.2c0-0.3-0.2-0.8,0.4-0.8c0.5,0,1-0.2,1.3,0.5C433.9,444.1,434.5,445.2,435.2,446.5z"/>
			<path class="st23" d="M427.5,442.7c-1-0.3-2.1-0.2-3.1-0.2c-0.6,0-0.8,0.2-0.7,0.8c0,2,0,4.1,0,6.1c0,0.7,0.2,0.9,0.8,0.8h0.6
				c0.8-0.1,1.6,0,2.4-0.2c1.7-0.4,2.7-1.8,2.7-3.6C430.3,444.4,429.3,443.1,427.5,442.7z M425.2,449.1c-0.4-0.1-0.3-0.4-0.3-0.7
				c0-0.7,0-1.4,0-2.2c0-0.7,0-1.4,0-2.1c0-0.5,0.2-0.7,0.7-0.7c2.4-0.1,3.6,1,3.5,3.1C429,448.4,426.8,449.7,425.2,449.1z"/>
			<path class="st23" d="M449.6,447.9c0-1.5,0-3,0-4.5c0-0.4-0.2-0.9,0.5-0.9c0.8,0,0.5,0.6,0.5,1c0,1.9,0,3.8,0,5.8
				c0,0.3,0.2,0.8-0.4,0.9c-0.5,0.1-0.9,0.1-1.2-0.5c-0.9-1.7-1.8-3.4-2.7-5.1c-0.1-0.2-0.2-0.3-0.5-0.7c0,1.9,0,3.6,0,5.3
				c0,0.4,0.3,1-0.5,1c-0.8,0-0.5-0.6-0.5-1c0-1.9,0-3.7,0-5.6c0-0.4-0.3-1,0.4-1.1c0.6-0.1,1.3-0.2,1.6,0.7c0.6,1.4,1.4,2.7,2.1,4
				c0.1,0.3,0.3,0.5,0.4,0.8C449.4,447.9,449.5,447.9,449.6,447.9z"/>
			<path class="st23" d="M508.7,450.1c-0.6,0.1-1-0.1-1.3-0.7c-0.8-1.6-1.6-3.2-2.5-4.7c-0.1-0.2-0.2-0.4-0.6-0.6v2.2
				c0,1.1,0,2.2,0,3.3c0,0.3,0,0.6-0.5,0.6c-0.4,0-0.6-0.1-0.6-0.5c0-2.2,0-4.4,0-6.6c0-0.3,0.1-0.5,0.4-0.5c0.5,0,1-0.1,1.4,0.2
				c0.8,1.8,1.8,3.5,3,5.2v-5.4c0.7-0.1,1,0.1,1,0.9c0,1.9,0,3.8,0,5.7C509.1,449.4,509.5,450,508.7,450.1z"/>
			<path class="st23" d="M476.7,449.8c-1-0.5-1.4-1.6-2.2-2.3c-0.5-0.5-0.6-0.8,0.1-1.2c0.8-0.6,0.8-1.5,0.7-2.3
				c-0.2-0.8-0.8-1.2-1.6-1.4c-1-0.2-1.9-0.1-2.9-0.1c-0.4,0-0.5,0.2-0.5,0.6c0,2.2,0,4.3,0,6.5c0,0.4,0.1,0.6,0.5,0.6
				c0.4,0,0.6-0.1,0.6-0.6c0-0.5,0-0.9,0-1.3c0-0.3-0.2-0.8,0.3-1c0.5-0.1,1-0.2,1.4,0.4c0.4,0.5,0.9,1,1.2,1.5
				c0.6,0.9,1.4,1.2,2.4,1c0,0,0,0,0-0.1C476.8,449.9,476.8,449.9,476.7,449.8z M472.2,446.2c-1.5,0-0.7-1.1-0.8-1.7
				c-0.2-0.8,0.1-1.2,0.8-1c1.4,0,1.9,0.4,1.9,1.2C474.1,445.7,473.5,446.2,472.2,446.2z"/>
			<path class="st23" d="M500.3,442.8c-0.2-0.1-0.5-0.2-0.8-0.3c-2.7-0.8-4.7,0.8-4.7,3.8c0,1.6,0.4,2.9,1.9,3.7
				c1.8,0.8,3.8,0.2,4.6-1.4C502.4,446.6,501.9,443.8,500.3,442.8z M500.4,448c-0.4,0.8-1.1,1.3-2.1,1.3c-0.9,0-1.6-0.4-2-1.2
				c-0.6-1.2-0.5-2.3,0-3.5c0.4-0.8,1.1-1.2,2-1.2c0.9,0,1.6,0.4,2,1.2c0.3,0.6,0.4,1.2,0.3,1.8C500.7,446.9,500.7,447.5,500.4,448z
				"/>
			<path class="st23" d="M462,444.1c-0.7-0.3-1.3-0.6-2-0.7c-0.5-0.1-1-0.1-1.5,0.1c-0.5,0.2-0.8,0.5-0.8,1.1c0,0.6,0.5,0.8,0.9,1
				c0.7,0.2,1.5,0.3,2.2,0.5c0.8,0.2,1.4,0.6,1.5,1.5c0.1,0.9-0.1,1.7-1,2.2c-1.5,0.9-3,0.6-4.5,0c-0.7-0.3-0.3-0.9-0.3-1.4
				c0.7,0.2,1.2,0.7,1.8,0.8c0.3,0,0.6,0.1,0.9,0.2c1.1,0,1.9-0.4,1.9-1.1c0.1-1.1-0.9-1.1-1.6-1.3c-0.5-0.1-1-0.1-1.5-0.3
				c-0.9-0.3-1.5-0.8-1.6-1.8c-0.1-1,0.4-1.7,1.3-2.1c1.3-0.6,2.6-0.3,3.8,0.1C462.4,443,462,443.6,462,444.1z"/>
			<path class="st23" d="M420.1,442.9c-0.2-0.5-0.5-0.4-0.9-0.4s-0.7-0.1-0.9,0.4c-0.8,2.2-1.6,4.5-2.5,6.8c-0.1,0.3,0,0.5,0.4,0.5
				c0.8,0.1,0.8-0.5,0.9-1c0.2-0.9,0.6-1.3,1.6-1.1c0.2,0,0.5,0,0.7,0c1-0.2,1.5,0.2,1.7,1.2c0.1,0.8,0.6,1.1,1.5,0.7
				C421.8,447.6,420.9,445.2,420.1,442.9z M418,447c0.4-1,0.7-2,1.1-3c0.1,0,0.2,0,0.2,0c0.3,1,0.7,2,1.1,3H418z"/>
			<path class="st23" d="M483.3,449.6c-0.8-2.2-1.6-4.4-2.4-6.7c-0.2-0.5-0.6-0.4-0.9-0.4c-0.3,0-0.7-0.1-0.8,0.4
				c-0.8,2.3-1.6,4.6-2.5,7c0,0.1,0,0.2,0,0.2c0.7,0.2,1.1,0,1.3-0.8c0.1-0.4,0.1-1.2,0.7-1.2c0.9-0.1,1.8-0.1,2.7,0
				c0.6,0.1,0.5,1,0.7,1.5c0.1,0.1,0.1,0.3,0.2,0.4c0.3,0.3,0.6,0.2,1,0.1C483.6,450,483.4,449.7,483.3,449.6z M478.8,447
				c0.4-1,0.7-2,1.2-3.3c0.5,1.3,0.8,2.3,1.2,3.3H478.8z"/>
			<path class="st23" d="M465.5,446.8c0-0.3,0-0.6,0-0.9c0-0.7,0.2-1.6-0.1-2.1c-0.3-0.5-1.3-0.1-1.9-0.2c-0.3,0-0.6-0.1-0.6-0.5
				c0-0.4,0.2-0.5,0.6-0.5c1.8,0,3.6,0,5.4,0c0.4,0,0.6,0.1,0.6,0.5c0,0.4-0.3,0.5-0.6,0.5c-0.7,0.1-1.6-0.3-1.9,0.2
				c-0.3,0.5-0.1,1.4-0.1,2.1c0,1.2,0,2.4,0,3.6c0,0.4-0.1,0.7-0.6,0.7c-0.5,0-0.5-0.4-0.5-0.7C465.5,448.5,465.5,447.6,465.5,446.8
				z"/>
			<path class="st23" d="M486.8,442.5c0.8,0,1.6,0,2.5,0c0.3,0,0.7-0.1,0.7,0.5c0,0.5-0.3,0.5-0.7,0.5c-2,0.1-2,0.1-2,2.1
				c0,1.3,0,2.5,0,3.8c0,0.4-0.1,0.6-0.6,0.6c-0.5,0-0.5-0.3-0.5-0.7c0-1.7,0-3.4,0-5.1c0-0.7-0.2-1-0.9-0.9c-0.4,0-0.8,0-1.1,0
				c-0.4,0-0.7,0-0.7-0.5c0-0.5,0.4-0.5,0.7-0.5C485.1,442.5,485.9,442.5,486.8,442.5z"/>
			<path class="st23" d="M441.6,450.1c-0.3,0-0.7,0-1,0c-0.3,0-0.5-0.1-0.5-0.4c0-0.3,0.1-0.5,0.4-0.5c0.7,0,0.6-0.4,0.6-0.8
				c0-1.3,0-2.6,0-3.9c0-0.5,0.2-1.2-0.7-1.2c-0.3,0-0.2-0.3-0.2-0.5c0-0.3,0.2-0.3,0.4-0.3c0.7,0,1.4,0,2.2,0
				c0.3,0,0.5,0.1,0.5,0.4c0,0.3-0.1,0.5-0.4,0.4c-0.5,0-0.6,0.3-0.6,0.7c0,1.5,0,3,0,4.4c0,0.4,0,0.8,0.6,0.8
				c0.4,0,0.5,0.2,0.5,0.5c0,0.3-0.3,0.3-0.5,0.3C442.3,450.1,441.9,450.1,441.6,450.1z"/>
			<path class="st23" d="M453.8,442.5c0.2,0,0.4,0,0.6,0c0.3,0,0.7-0.2,0.8,0.3c0.1,0.5-0.3,0.5-0.7,0.5c-0.4,0-0.3,0.4-0.3,0.6
				c0,1.5,0,3,0,4.5c0,0.4,0,0.8,0.6,0.7c0.3,0,0.4,0.1,0.4,0.4c0,0.3-0.2,0.4-0.5,0.4c-0.7,0-1.4,0-2.2,0c-0.2,0-0.4-0.1-0.4-0.3
				c0-0.3,0-0.5,0.4-0.5c0.6,0,0.6-0.4,0.6-0.8c0-1.4,0-2.9,0-4.3c0-0.4,0-0.8-0.6-0.8c-0.3,0-0.4-0.2-0.4-0.5
				c0-0.4,0.3-0.4,0.6-0.4C453.1,442.5,453.4,442.5,453.8,442.5z"/>
			<path class="st23" d="M492,450.1c-0.2,0-0.3,0-0.5,0c-0.3-0.1-0.8,0.2-0.9-0.3c-0.1-0.6,0.4-0.5,0.7-0.6c0.3-0.1,0.3-0.4,0.3-0.6
				c0-1.5,0-3,0-4.5c0-0.4,0-0.8-0.6-0.8c-0.4,0-0.5-0.2-0.4-0.5c0-0.3,0.3-0.3,0.5-0.3c0.7,0,1.3,0,2,0c0.3,0,0.6,0,0.6,0.4
				c0,0.3-0.1,0.5-0.4,0.4c-0.5,0-0.6,0.3-0.6,0.7c0,1.5,0,3,0,4.5c0,0.4,0,0.7,0.5,0.7c0.3,0,0.5,0.1,0.5,0.5
				c0,0.5-0.4,0.4-0.7,0.4C492.7,450.1,492.3,450.1,492,450.1z"/>
			<line class="st19" x1="425.2" y1="450.2" x2="424.5" y2="450.2"/>
		</g>
	</g>
</g>
</svg>
