<?xml version="1.0" encoding="utf-8"?>
<!-- Generator: Adobe Illustrator 23.0.3, SVG Export Plug-In . SVG Version: 6.00 Build 0)  -->
<svg version="1.1" id="Layer_1" xmlns="http://www.w3.org/2000/svg" xmlns:xlink="http://www.w3.org/1999/xlink" x="0px" y="0px"
	 viewBox="0 0 299 397" style="enable-background:new 0 0 299 397;" xml:space="preserve">
<style type="text/css">
	.st0{fill:#F4F4F4;stroke:#DEDEDE;}
	.st1{fill:none;stroke:#F3F3F3;stroke-width:6;}
	.st2{fill:#F4F4F4;}
	.st3{fill-rule:evenodd;clip-rule:evenodd;fill:#33495B;}
	.st4{fill:none;stroke:#979797;stroke-width:0.5;stroke-linecap:square;}
	.st5{fill:none;stroke:#979797;stroke-width:0.5;}
	.st6{fill:#5C8098;}
	.st7{fill-rule:evenodd;clip-rule:evenodd;fill:#FFFFFF;}
	.st8{fill:#FFFFFF;}
	.st9{fill-rule:evenodd;clip-rule:evenodd;fill:#F4F4F4;stroke:url(#SVGID_1_);stroke-width:3;}
	.st10{fill:none;stroke:#F3F3F3;stroke-width:4;}
	.st11{fill:none;}
	.st12{fill:url(#SVGID_2_);enable-background:new    ;}
	.st13{fill:url(#SVGID_3_);enable-background:new    ;}
	.st14{fill:url(#SVGID_4_);enable-background:new    ;}
	.st15{fill:#677E7E;}
	.st16{fill:#ABE1FA;}
	.st17{fill-rule:evenodd;clip-rule:evenodd;fill:#EFF9FE;}
	.st18{fill:none;stroke:#243746;stroke-linejoin:bevel;}
	.st19{fill:none;stroke:#8ED8F8;}
	.st20{fill-rule:evenodd;clip-rule:evenodd;fill:#5C8098;}
	.st21{fill-rule:evenodd;clip-rule:evenodd;fill:#ABE1FA;}
	.st22{fill:none;stroke:#243746;}
	.st23{fill-rule:evenodd;clip-rule:evenodd;fill:#5EF288;}
	.st24{fill:none;stroke:#58585B;stroke-width:0.5;}
</style>
<title>Group 7</title>
<desc>Created with Sketch.</desc>
<g id="Page-1">
	<g id="Mobile-Copy-4" transform="translate(-11.000000, -904.000000)">
		<g id="Group-7" transform="translate(11.000000, 911.000000)">
			<g id="Group-17-Copy-4" transform="translate(116.000000, 93.000000)">
				<g id="Oval">
					<g>
						<circle id="path-1" class="st0" cx="33.8" cy="33.7" r="33.8"/>
					</g>
					<circle class="st1" cx="33.8" cy="33.7" r="36.8"/>
				</g>
				<g id="Group-12" transform="translate(2.934783, 2.934783)">
					<g id="Group-2">
						<g id="Oval-Copy-9">
							<g>
								<circle id="path-2" cx="30.8" cy="30.8" r="30.8"/>
							</g>
							<g>
								<circle class="st2" cx="30.8" cy="30.8" r="30.8"/>
							</g>
						</g>
						<path id="Account-receivable" class="st3" d="M17,28.3h-2.9l-0.6,1.4H12l2.8-6.3h1.4l2.8,6.3h-1.5L17,28.3z M16.5,27.2l-1-2.4
							l-1,2.4H16.5z M21.8,29.8c-0.5,0-1-0.1-1.4-0.3c-0.4-0.2-0.7-0.5-1-0.9c-0.2-0.4-0.3-0.8-0.3-1.3s0.1-0.9,0.3-1.3
							s0.6-0.7,1-0.9c0.4-0.2,0.9-0.3,1.4-0.3s1,0.1,1.3,0.3s0.7,0.5,0.8,0.9l-1.1,0.6c-0.3-0.4-0.6-0.7-1.1-0.7
							c-0.4,0-0.7,0.1-0.9,0.4c-0.2,0.2-0.4,0.6-0.4,1s0.1,0.7,0.4,1c0.2,0.2,0.5,0.4,0.9,0.4c0.5,0,0.8-0.2,1.1-0.7l1.1,0.6
							c-0.2,0.4-0.5,0.7-0.8,0.9C22.7,29.7,22.3,29.8,21.8,29.8z M26.9,29.8c-0.5,0-1-0.1-1.4-0.3c-0.4-0.2-0.7-0.5-1-0.9
							c-0.2-0.4-0.3-0.8-0.3-1.3s0.1-0.9,0.3-1.3s0.6-0.7,1-0.9c0.4-0.2,0.9-0.3,1.4-0.3s1,0.1,1.3,0.3c0.4,0.2,0.7,0.5,0.8,0.9
							l-1.1,0.6c-0.3-0.4-0.6-0.7-1.1-0.7c-0.4,0-0.7,0.1-0.9,0.4c-0.2,0.2-0.4,0.6-0.4,1s0.1,0.7,0.4,1c0.2,0.2,0.5,0.4,0.9,0.4
							c0.5,0,0.8-0.2,1.1-0.7l1.1,0.6c-0.2,0.4-0.5,0.7-0.8,0.9C27.8,29.7,27.4,29.8,26.9,29.8z M31.9,29.8c-0.5,0-1-0.1-1.4-0.3
							c-0.4-0.2-0.7-0.5-0.9-0.9c-0.2-0.4-0.3-0.8-0.3-1.3s0.1-0.9,0.3-1.3s0.5-0.7,0.9-0.9c0.4-0.2,0.9-0.3,1.4-0.3
							c0.5,0,1,0.1,1.4,0.3c0.4,0.2,0.7,0.5,0.9,0.9s0.3,0.8,0.3,1.3s-0.1,0.9-0.3,1.3s-0.5,0.7-0.9,0.9
							C32.9,29.7,32.4,29.8,31.9,29.8z M31.9,28.6c0.4,0,0.7-0.1,0.9-0.4c0.2-0.2,0.3-0.6,0.3-1s-0.1-0.7-0.3-1
							c-0.2-0.2-0.5-0.4-0.9-0.4s-0.7,0.1-0.9,0.4c-0.2,0.2-0.4,0.6-0.4,1s0.1,0.7,0.4,1S31.6,28.6,31.9,28.6z M40.2,24.9v4.8h-1.3
							v-0.6c-0.2,0.2-0.4,0.4-0.7,0.5s-0.5,0.2-0.8,0.2c-0.6,0-1.1-0.2-1.5-0.5c-0.4-0.4-0.6-0.9-0.6-1.6V25h1.4v2.5
							c0,0.8,0.3,1.2,1,1.2c0.3,0,0.6-0.1,0.8-0.3c0.2-0.2,0.3-0.5,0.3-1V25h1.4V24.9z M44.3,24.8c0.6,0,1.1,0.2,1.5,0.5
							c0.4,0.4,0.6,0.9,0.6,1.6v2.8H45v-2.6c0-0.4-0.1-0.7-0.3-0.9c-0.2-0.2-0.4-0.3-0.7-0.3c-0.4,0-0.6,0.1-0.8,0.3
							c-0.2,0.2-0.3,0.5-0.3,1v2.4h-1.4v-4.8h1.3v0.6c0.2-0.2,0.4-0.4,0.7-0.5C43.7,24.8,44,24.8,44.3,24.8z M50.5,29.5
							c-0.1,0.1-0.3,0.2-0.5,0.2c-0.2,0.1-0.4,0.1-0.6,0.1c-0.6,0-1-0.1-1.3-0.4s-0.5-0.7-0.5-1.3v-2h-0.7V25h0.7v-1.2H49V25h1.2v1
							H49v2c0,0.2,0.1,0.4,0.2,0.5c0.1,0.1,0.3,0.2,0.4,0.2c0.2,0,0.4-0.1,0.6-0.2L50.5,29.5z M9.9,36.5c0.2-0.2,0.4-0.4,0.7-0.5
							s0.6-0.2,1-0.2v1.3c-0.2,0-0.3,0-0.3,0c-0.4,0-0.7,0.1-0.9,0.3s-0.3,0.6-0.3,1v2.3H8.5v-4.8h1.3L9.9,36.5L9.9,36.5z
							 M16.9,38.3c0,0,0,0.1,0,0.4h-3.7c0.1,0.3,0.2,0.5,0.5,0.7c0.2,0.2,0.6,0.3,0.9,0.3c0.3,0,0.5,0,0.7-0.1s0.4-0.2,0.5-0.4
							l0.7,0.8c-0.5,0.5-1.1,0.8-2,0.8c-0.5,0-1-0.1-1.4-0.3s-0.7-0.5-1-0.9c-0.2-0.4-0.3-0.8-0.3-1.3s0.1-0.9,0.3-1.3
							c0.2-0.4,0.5-0.7,0.9-0.9s0.8-0.3,1.3-0.3s0.9,0.1,1.3,0.3c0.4,0.2,0.7,0.5,0.9,0.9C16.8,37.3,16.9,37.8,16.9,38.3z
							 M14.4,36.8c-0.3,0-0.6,0.1-0.8,0.3s-0.3,0.4-0.4,0.7h2.4c0-0.3-0.2-0.6-0.4-0.7C15,36.9,14.7,36.8,14.4,36.8z M20,40.8
							c-0.5,0-1-0.1-1.4-0.3s-0.7-0.5-1-0.9s-0.3-0.8-0.3-1.3s0.1-0.9,0.3-1.3s0.6-0.7,1-0.9s0.9-0.3,1.4-0.3s1,0.1,1.3,0.3
							c0.4,0.2,0.7,0.5,0.8,0.9L21,37.6c-0.3-0.4-0.6-0.7-1.1-0.7c-0.4,0-0.7,0.1-0.9,0.4c-0.2,0.2-0.4,0.6-0.4,1s0.1,0.7,0.4,1
							c0.2,0.2,0.5,0.4,0.9,0.4c0.5,0,0.8-0.2,1.1-0.7l1.1,0.6c-0.2,0.4-0.5,0.7-0.8,0.9S20.5,40.8,20,40.8z M27.5,38.3
							c0,0,0,0.1,0,0.4h-3.7c0.1,0.3,0.2,0.5,0.5,0.7c0.2,0.2,0.6,0.3,0.9,0.3s0.5,0,0.7-0.1s0.4-0.2,0.5-0.4l0.7,0.8
							c-0.5,0.5-1.1,0.8-2,0.8c-0.5,0-1-0.1-1.4-0.3s-0.7-0.5-1-0.9s-0.3-0.8-0.3-1.3s0.1-0.9,0.3-1.3c0.2-0.4,0.5-0.7,0.9-0.9
							s0.8-0.3,1.3-0.3s0.9,0.1,1.3,0.3s0.7,0.5,0.9,0.9C27.4,37.3,27.5,37.8,27.5,38.3z M25,36.8c-0.3,0-0.6,0.1-0.8,0.3
							c-0.2,0.2-0.3,0.4-0.4,0.7h2.4c0-0.3-0.2-0.6-0.4-0.7C25.6,36.9,25.3,36.8,25,36.8z M28.3,35.9h1.4v4.8h-1.4V35.9z M29,35.2
							c-0.3,0-0.5-0.1-0.6-0.2s-0.2-0.3-0.2-0.6c0-0.2,0.1-0.4,0.2-0.6s0.4-0.2,0.6-0.2s0.5,0.1,0.6,0.2s0.2,0.3,0.2,0.5
							s-0.1,0.4-0.2,0.6S29.2,35.2,29,35.2z M35.6,35.9l-2,4.8h-1.4l-2-4.8h1.4l1.3,3.3l1.4-3.3H35.6z M37.8,35.8
							c0.8,0,1.3,0.2,1.7,0.5c0.4,0.4,0.6,0.9,0.6,1.6v2.8h-1.3v-0.6c-0.3,0.5-0.8,0.7-1.5,0.7c-0.4,0-0.7-0.1-1-0.2
							c-0.3-0.1-0.5-0.3-0.6-0.5s-0.2-0.5-0.2-0.8c0-0.5,0.2-0.8,0.5-1.1s0.9-0.4,1.6-0.4h1.1c0-0.3-0.1-0.5-0.3-0.7
							s-0.5-0.2-0.8-0.2s-0.5,0-0.8,0.1c-0.2,0.1-0.5,0.2-0.6,0.3l-0.5-1c0.3-0.2,0.6-0.3,0.9-0.4C37.1,35.8,37.4,35.8,37.8,35.8z
							 M37.7,39.8c0.2,0,0.5-0.1,0.6-0.2c0.2-0.1,0.3-0.3,0.4-0.5v-0.5h-1c-0.6,0-0.9,0.2-0.9,0.6c0,0.2,0.1,0.3,0.2,0.4
							C37.3,39.8,37.5,39.8,37.7,39.8z M44.1,35.8c0.5,0,0.9,0.1,1.2,0.3c0.4,0.2,0.7,0.5,0.9,0.9s0.3,0.8,0.3,1.3s-0.1,0.9-0.3,1.3
							c-0.2,0.4-0.5,0.7-0.9,0.9s-0.8,0.3-1.2,0.3c-0.7,0-1.2-0.2-1.5-0.6v0.6h-1.3V34h1.4v2.3C43,36,43.5,35.8,44.1,35.8z
							 M43.9,39.6c0.4,0,0.7-0.1,0.9-0.4c0.2-0.2,0.3-0.6,0.3-1s-0.1-0.7-0.3-1c-0.2-0.2-0.5-0.4-0.9-0.4s-0.7,0.1-0.9,0.4
							c-0.2,0.2-0.3,0.6-0.3,1s0.1,0.7,0.3,1C43.2,39.5,43.5,39.6,43.9,39.6z M47.3,34h1.4v6.7h-1.4V34z M54.6,38.3c0,0,0,0.1,0,0.4
							h-3.7c0.1,0.3,0.2,0.5,0.5,0.7c0.2,0.2,0.6,0.3,0.9,0.3c0.3,0,0.5,0,0.7-0.1s0.4-0.2,0.5-0.4l0.7,0.8c-0.5,0.5-1.1,0.8-2,0.8
							c-0.5,0-1-0.1-1.4-0.3s-0.7-0.5-1-0.9s-0.3-0.8-0.3-1.3s0.1-0.9,0.3-1.3c0.2-0.4,0.5-0.7,0.9-0.9s0.8-0.3,1.3-0.3
							s0.9,0.1,1.3,0.3s0.7,0.5,0.9,0.9C54.5,37.3,54.6,37.8,54.6,38.3z M52.1,36.8c-0.3,0-0.6,0.1-0.8,0.3s-0.3,0.4-0.4,0.7h2.4
							c0-0.3-0.2-0.6-0.4-0.7C52.7,36.9,52.4,36.8,52.1,36.8z"/>
					</g>
				</g>
			</g>
			<g id="Group-17-Copy-5" transform="translate(21.000000, 118.000000)">
				<g>
					<g>
						<ellipse id="path-4" class="st0" cx="33.5" cy="33" rx="33" ry="33"/>
					</g>
					<ellipse class="st1" cx="33.5" cy="33" rx="36" ry="36"/>
				</g>
				<g transform="translate(0.000000, 2.866532)">
					<g>
						<g>
							<g>
								<ellipse id="path-5" cx="33.5" cy="30.1" rx="30.2" ry="30.1"/>
							</g>
							<g>
								<ellipse class="st2" cx="33.5" cy="30.1" rx="30.2" ry="30.1"/>
							</g>
						</g>
						<path id="Accounts-payable" class="st3" d="M17.2,26.4h-2.9l-0.6,1.4h-1.5l2.8-6.3h1.4l2.8,6.3h-1.5L17.2,26.4z M16.7,25.3
							l-1-2.4l-1,2.4H16.7z M21.9,27.9c-0.5,0-1-0.1-1.4-0.3c-0.4-0.2-0.7-0.5-1-0.9s-0.3-0.8-0.3-1.3s0.1-0.9,0.3-1.3
							s0.6-0.7,1-0.9c0.4-0.2,0.9-0.3,1.4-0.3s1,0.1,1.3,0.3s0.7,0.5,0.8,0.9l-1,0.6c-0.3-0.4-0.6-0.7-1.1-0.7
							c-0.4,0-0.7,0.1-0.9,0.4c-0.2,0.2-0.4,0.6-0.4,1s0.1,0.7,0.4,1c0.2,0.2,0.5,0.4,0.9,0.4c0.5,0,0.8-0.2,1.1-0.7l1.1,0.6
							c-0.2,0.4-0.5,0.7-0.8,0.9S22.4,27.9,21.9,27.9z M27,27.9c-0.5,0-1-0.1-1.4-0.3c-0.4-0.2-0.7-0.5-1-0.9s-0.3-0.8-0.3-1.3
							s0.1-0.9,0.3-1.3s0.6-0.7,1-0.9c0.4-0.2,0.9-0.3,1.4-0.3s1,0.1,1.3,0.3c0.4,0.2,0.7,0.5,0.8,0.9L28,24.7
							c-0.2-0.5-0.5-0.7-1-0.7c-0.4,0-0.7,0.1-0.9,0.4s-0.4,0.6-0.4,1s0.1,0.7,0.4,1s0.5,0.4,0.9,0.4c0.5,0,0.8-0.2,1.1-0.7l1.1,0.6
							c-0.2,0.4-0.5,0.7-0.8,0.9C28,27.7,27.5,27.9,27,27.9z M32.1,27.9c-0.5,0-1-0.1-1.4-0.3c-0.4-0.2-0.7-0.5-0.9-0.9
							s-0.3-0.8-0.3-1.3s0.1-0.9,0.3-1.3s0.5-0.7,0.9-0.9c0.4-0.2,0.9-0.3,1.4-0.3s1,0.1,1.4,0.3c0.4,0.2,0.7,0.5,0.9,0.9
							s0.3,0.8,0.3,1.3s-0.1,0.9-0.3,1.3s-0.5,0.7-0.9,0.9C33,27.7,32.6,27.9,32.1,27.9z M32.1,26.7c0.4,0,0.7-0.1,0.9-0.4
							c0.2-0.2,0.3-0.6,0.3-1s-0.1-0.7-0.3-1c-0.2-0.2-0.5-0.4-0.9-0.4c-0.4,0-0.7,0.1-0.9,0.4c-0.2,0.2-0.4,0.6-0.4,1
							s0.1,0.7,0.4,1C31.4,26.6,31.7,26.7,32.1,26.7z M40.4,22.9v4.8H39v-0.6c-0.2,0.2-0.4,0.4-0.7,0.5s-0.5,0.2-0.8,0.2
							c-0.6,0-1.1-0.2-1.5-0.5c-0.4-0.4-0.6-0.9-0.6-1.6V23h1.4v2.5c0,0.8,0.3,1.2,1,1.2c0.3,0,0.6-0.1,0.8-0.3s0.3-0.5,0.3-1V23
							h1.5V22.9z M44.4,22.9c0.6,0,1.1,0.2,1.5,0.5c0.4,0.4,0.6,0.9,0.6,1.6v2.8H45v-2.6c0-0.4-0.1-0.7-0.3-0.9
							C44.5,24.1,44.3,24,44,24c-0.4,0-0.6,0.1-0.8,0.3c-0.2,0.2-0.3,0.5-0.3,1v2.4h-1.4v-4.8h1.3v0.6c0.2-0.2,0.4-0.4,0.7-0.5
							C43.8,22.9,44.1,22.9,44.4,22.9z M50.7,27.5c-0.1,0.1-0.3,0.2-0.5,0.2c-0.2,0.1-0.4,0.1-0.6,0.1c-0.6,0-1-0.1-1.3-0.4
							s-0.5-0.7-0.5-1.3v-2H47V23h0.7v-1.2h1.4V23h1.2v1.1h-1.2v2c0,0.2,0.1,0.4,0.2,0.5s0.3,0.2,0.4,0.2c0.2,0,0.4-0.1,0.6-0.2
							L50.7,27.5z M52.9,27.9c-0.4,0-0.8,0-1.2-0.1s-0.7-0.2-0.9-0.4l0.5-1c0.2,0.1,0.5,0.3,0.8,0.3c0.3,0.1,0.6,0.1,0.9,0.1
							c0.6,0,0.9-0.1,0.9-0.4c0-0.1-0.1-0.2-0.2-0.3C53.5,26,53.3,26,53,25.9c-0.4-0.1-0.7-0.1-1-0.2s-0.5-0.2-0.7-0.4
							c-0.2-0.2-0.3-0.5-0.3-0.8s0.1-0.6,0.3-0.8c0.2-0.2,0.4-0.4,0.8-0.6c0.3-0.1,0.7-0.2,1.2-0.2c0.3,0,0.7,0,1,0.1
							s0.6,0.2,0.8,0.3l-0.5,1c-0.4-0.2-0.9-0.4-1.4-0.4c-0.3,0-0.5,0-0.7,0.1s-0.2,0.2-0.2,0.3c0,0.2,0.1,0.3,0.2,0.3
							c0.2,0.1,0.4,0.1,0.8,0.2c0.4,0.1,0.7,0.1,1,0.2s0.5,0.2,0.7,0.4c0.2,0.2,0.3,0.5,0.3,0.8S55.2,26.8,55,27
							c-0.2,0.2-0.4,0.4-0.8,0.5C53.8,27.8,53.4,27.9,52.9,27.9z M19.4,33.9c0.5,0,0.9,0.1,1.2,0.3c0.4,0.2,0.7,0.5,0.9,0.9
							c0.2,0.4,0.3,0.8,0.3,1.3s-0.1,0.9-0.3,1.3c-0.2,0.4-0.5,0.7-0.9,0.9s-0.8,0.3-1.2,0.3c-0.6,0-1.1-0.2-1.5-0.6v2.3h-1.4V34
							h1.3v0.6C18.2,34.1,18.7,33.9,19.4,33.9z M19.1,37.7c0.4,0,0.7-0.1,0.9-0.4s0.3-0.6,0.3-1s-0.1-0.7-0.3-1
							c-0.2-0.2-0.5-0.4-0.9-0.4s-0.7,0.1-0.9,0.4c-0.2,0.2-0.3,0.6-0.3,1s0.1,0.7,0.3,1S18.8,37.7,19.1,37.7z M24.4,33.9
							c0.8,0,1.3,0.2,1.7,0.5c0.4,0.4,0.6,0.9,0.6,1.6v2.8h-1.3v-0.6c-0.3,0.5-0.8,0.7-1.5,0.7c-0.4,0-0.7-0.1-1-0.2
							c-0.3-0.1-0.5-0.3-0.6-0.5s-0.2-0.5-0.2-0.8c0-0.5,0.2-0.8,0.5-1.1s0.9-0.4,1.6-0.4h1.1c0-0.3-0.1-0.5-0.3-0.7
							S24.6,35,24.2,35c-0.3,0-0.5,0-0.8,0.1c-0.2,0.1-0.5,0.2-0.6,0.3l-0.5-1c0.3-0.2,0.6-0.3,0.9-0.4C23.7,33.9,24,33.9,24.4,33.9
							z M24.3,37.9c0.2,0,0.5-0.1,0.6-0.2s0.3-0.3,0.4-0.5v-0.5h-1c-0.6,0-0.9,0.2-0.9,0.6c0,0.2,0.1,0.3,0.2,0.4
							C23.9,37.9,24.1,37.9,24.3,37.9z M32.6,33.9L30.4,39c-0.2,0.6-0.5,1-0.8,1.2s-0.7,0.3-1.2,0.3c-0.3,0-0.5,0-0.7-0.1
							s-0.4-0.2-0.6-0.3l0.5-1c0.1,0.1,0.2,0.2,0.4,0.2s0.3,0.1,0.4,0.1c0.2,0,0.3,0,0.5-0.1c0.1-0.1,0.2-0.2,0.3-0.5l0,0L27,33.9
							h1.4l1.4,3.3l1.4-3.3H32.6z M34.8,33.9c0.8,0,1.3,0.2,1.7,0.5c0.4,0.4,0.6,0.9,0.6,1.6v2.8h-1.3v-0.6
							c-0.3,0.5-0.8,0.7-1.5,0.7c-0.4,0-0.7-0.1-1-0.2s-0.5-0.3-0.6-0.5s-0.2-0.5-0.2-0.8c0-0.5,0.2-0.8,0.5-1.1s0.9-0.4,1.6-0.4
							h1.1c0-0.3-0.1-0.5-0.3-0.7S35,35,34.6,35c-0.3,0-0.5,0-0.8,0.1c-0.2,0.1-0.5,0.2-0.6,0.3l-0.5-1c0.3-0.2,0.6-0.3,0.9-0.4
							C34,33.9,34.4,33.9,34.8,33.9z M34.7,37.9c0.2,0,0.5-0.1,0.6-0.2s0.3-0.3,0.4-0.5v-0.5h-1c-0.6,0-0.9,0.2-0.9,0.6
							c0,0.2,0.1,0.3,0.2,0.4C34.2,37.9,34.4,37.9,34.7,37.9z M41.1,33.9c0.5,0,0.9,0.1,1.2,0.3c0.4,0.2,0.7,0.5,0.9,0.9
							s0.3,0.8,0.3,1.3s-0.1,0.9-0.3,1.3c-0.2,0.4-0.5,0.7-0.9,0.9s-0.8,0.3-1.2,0.3c-0.7,0-1.2-0.2-1.5-0.6v0.6h-1.3v-6.7h1.4v2.3
							C40,34.1,40.4,33.9,41.1,33.9z M40.8,37.7c0.4,0,0.7-0.1,0.9-0.4s0.3-0.6,0.3-1s-0.1-0.7-0.3-1c-0.2-0.2-0.5-0.4-0.9-0.4
							s-0.7,0.1-0.9,0.4c-0.2,0.2-0.3,0.6-0.3,1s0.1,0.7,0.3,1C40.2,37.6,40.5,37.7,40.8,37.7z M44.2,32.1h1.4v6.7h-1.4V32.1z
							 M51.5,36.4c0,0,0,0.1,0,0.4h-3.7c0.1,0.3,0.2,0.5,0.5,0.7c0.2,0.2,0.6,0.3,0.9,0.3c0.3,0,0.5,0,0.7-0.1s0.4-0.2,0.5-0.4
							l0.7,0.8c-0.5,0.5-1.1,0.8-2,0.8c-0.5,0-1-0.1-1.4-0.3s-0.7-0.5-1-0.9s-0.3-0.8-0.3-1.3s0.1-0.9,0.3-1.3
							c0.2-0.4,0.5-0.7,0.9-0.9s0.8-0.3,1.3-0.3s0.9,0.1,1.3,0.3c0.4,0.2,0.7,0.5,0.9,0.9C51.4,35.4,51.5,35.9,51.5,36.4z M49,34.9
							c-0.3,0-0.6,0.1-0.8,0.3s-0.3,0.4-0.4,0.7h2.4c0-0.3-0.2-0.6-0.4-0.7C49.6,35,49.3,34.9,49,34.9z"/>
					</g>
				</g>
			</g>
			<g id="Group-34-Copy-3" transform="translate(234.000000, 219.000000)">
				<path id="Line-8" class="st4" d="M5.1,0c0,0,0,11.9,0,35.6"/>
				<polyline id="Path-7-Copy-6" class="st5" points="0,31 4.9,36.2 10.1,31 				"/>
			</g>
			<g id="Group-34-Copy-4" transform="translate(53.000000, 232.000000)">
				<path class="st4" d="M5.1,0.9v21.7"/>
				<polyline class="st5" points="0,18 4.9,23.2 10.1,18 				"/>
			</g>
			<g id="Group-17-Copy-3" transform="translate(12.000000, 36.000000)">
				<g>
					<g>
						<ellipse id="path-7" class="st0" cx="33.8" cy="32.5" rx="33.8" ry="32.5"/>
					</g>
					<ellipse class="st1" cx="33.8" cy="32.5" rx="36.8" ry="35.5"/>
				</g>
				<g transform="translate(3.000000, 2.652174)">
					<g>
						<g>
							<g>
								<ellipse id="path-8" cx="30.8" cy="29.7" rx="30.8" ry="29.7"/>
							</g>
							<g>
								<ellipse class="st6" cx="30.8" cy="29.7" rx="30.8" ry="29.7"/>
							</g>
						</g>
						<path id="Automated-receipt-co" class="st7" d="M10,21.6H7.1L6.5,23H5l2.8-6.3h1.4L12,23h-1.5L10,21.6z M9.6,20.5l-1-2.4
							l-1,2.4H9.6z M17.3,18.2V23H16v-0.6c-0.2,0.2-0.4,0.4-0.7,0.5s-0.5,0.2-0.8,0.2c-0.6,0-1.1-0.2-1.5-0.5
							c-0.4-0.4-0.6-0.9-0.6-1.6v-2.7h1.4v2.5c0,0.8,0.3,1.2,1,1.2c0.3,0,0.6-0.1,0.8-0.3c0.2-0.2,0.3-0.5,0.3-1v-2.4h1.4V18.2z
							 M21.5,22.8C21.4,22.9,21.2,23,21,23c-0.2,0.1-0.4,0.1-0.6,0.1c-0.6,0-1-0.1-1.3-0.4s-0.5-0.7-0.5-1.3v-2h-0.7v-1.1h0.7v-1.2
							H20v1.2h1.2v1.1H20v2c0,0.2,0.1,0.4,0.2,0.5s0.3,0.2,0.4,0.2c0.2,0,0.4-0.1,0.6-0.2L21.5,22.8z M24.3,23.1
							c-0.5,0-1-0.1-1.4-0.3c-0.4-0.2-0.7-0.5-0.9-0.9c-0.2-0.4-0.3-0.8-0.3-1.3s0.1-0.9,0.3-1.3s0.5-0.7,0.9-0.9
							c0.4-0.2,0.9-0.3,1.4-0.3s1,0.1,1.4,0.3c0.4,0.2,0.7,0.5,0.9,0.9c0.2,0.4,0.3,0.8,0.3,1.3s-0.1,0.9-0.3,1.3
							c-0.2,0.4-0.5,0.7-0.9,0.9S24.8,23.1,24.3,23.1z M24.3,21.9c0.4,0,0.7-0.1,0.9-0.4s0.3-0.6,0.3-1s-0.1-0.7-0.3-1
							c-0.2-0.2-0.5-0.4-0.9-0.4s-0.7,0.1-0.9,0.4c-0.2,0.2-0.4,0.6-0.4,1s0.1,0.7,0.4,1S23.9,21.9,24.3,21.9z M33.9,18.1
							c0.6,0,1.1,0.2,1.4,0.5s0.5,0.9,0.5,1.6V23h-1.4v-2.6c0-0.4-0.1-0.7-0.2-0.9s-0.4-0.3-0.7-0.3s-0.6,0.1-0.8,0.3
							s-0.3,0.5-0.3,0.9V23H31v-2.6c0-0.8-0.3-1.1-0.9-1.1c-0.3,0-0.6,0.1-0.8,0.3S29,20.1,29,20.5V23h-1.4v-4.8h1.3v0.6
							c0.2-0.2,0.4-0.4,0.7-0.5c0.3-0.1,0.5-0.2,0.9-0.2c0.3,0,0.7,0.1,0.9,0.2s0.5,0.3,0.7,0.6c0.2-0.3,0.4-0.4,0.8-0.6
							S33.6,18.1,33.9,18.1z M38.9,18.1c0.8,0,1.3,0.2,1.7,0.5c0.4,0.4,0.6,0.9,0.6,1.6V23H40v-0.6c-0.3,0.5-0.8,0.7-1.5,0.7
							c-0.4,0-0.7-0.1-1-0.2s-0.5-0.3-0.6-0.5s-0.2-0.5-0.2-0.8c0-0.5,0.2-0.8,0.5-1.1s0.9-0.4,1.6-0.4h1.1c0-0.3-0.1-0.5-0.3-0.7
							s-0.5-0.2-0.8-0.2s-0.5,0-0.8,0.1c-0.2,0.1-0.5,0.2-0.6,0.3l-0.5-1c0.3-0.2,0.6-0.3,0.9-0.4C38.2,18.1,38.6,18.1,38.9,18.1z
							 M38.8,22.1c0.2,0,0.5-0.1,0.6-0.2c0.2-0.1,0.3-0.3,0.4-0.5V21h-1c-0.6,0-0.9,0.2-0.9,0.6c0,0.2,0.1,0.3,0.2,0.4
							C38.4,22.1,38.6,22.1,38.8,22.1z M45.5,22.8C45.4,22.9,45.2,23,45,23c-0.2,0.1-0.4,0.1-0.6,0.1c-0.6,0-1-0.1-1.3-0.4
							s-0.5-0.7-0.5-1.3v-2h-0.7v-1.1h0.7v-1.2H44v1.2h1.2v1.1H44v2c0,0.2,0.1,0.4,0.2,0.5c0.1,0.1,0.3,0.2,0.4,0.2
							c0.2,0,0.4-0.1,0.6-0.2L45.5,22.8z M50.7,20.6c0,0,0,0.1,0,0.4H47c0.1,0.3,0.2,0.5,0.5,0.7c0.2,0.2,0.6,0.3,0.9,0.3
							c0.3,0,0.5,0,0.7-0.1s0.4-0.2,0.5-0.4l0.7,0.8c-0.5,0.5-1.1,0.8-2,0.8c-0.5,0-1-0.1-1.4-0.3s-0.7-0.5-1-0.9
							c-0.2-0.4-0.3-0.8-0.3-1.3s0.1-0.9,0.3-1.3s0.5-0.7,0.9-0.9c0.4-0.2,0.8-0.3,1.3-0.3s0.9,0.1,1.3,0.3c0.4,0.2,0.7,0.5,0.9,0.9
							C50.6,19.7,50.7,20.1,50.7,20.6z M48.2,19.1c-0.3,0-0.6,0.1-0.8,0.3c-0.2,0.2-0.3,0.4-0.4,0.7h2.4c0-0.3-0.2-0.6-0.4-0.7
							C48.8,19.2,48.5,19.1,48.2,19.1z M56.4,16.3V23h-1.3v-0.6c-0.3,0.4-0.9,0.6-1.5,0.6c-0.5,0-0.9-0.1-1.2-0.3
							c-0.4-0.2-0.7-0.5-0.9-0.9s-0.3-0.8-0.3-1.3s0.1-0.9,0.3-1.3s0.5-0.7,0.9-0.9c0.4-0.2,0.8-0.3,1.2-0.3c0.6,0,1.1,0.2,1.4,0.6
							v-2.3C55,16.3,56.4,16.3,56.4,16.3z M53.8,21.9c0.4,0,0.6-0.1,0.9-0.4s0.4-0.6,0.4-1s-0.1-0.7-0.4-1c-0.2-0.2-0.5-0.4-0.9-0.4
							s-0.7,0.1-0.9,0.4c-0.2,0.2-0.4,0.6-0.4,1s0.1,0.7,0.4,1S53.4,21.9,53.8,21.9z M17,29.8c0.2-0.2,0.4-0.4,0.7-0.5
							c0.3-0.1,0.6-0.2,1-0.2v1.3c-0.2,0-0.3,0-0.3,0c-0.4,0-0.7,0.1-0.9,0.3c-0.2,0.2-0.3,0.6-0.3,1V34h-1.4v-4.8H17V29.8z
							 M24,31.6c0,0,0,0.1,0,0.4h-3.7c0.1,0.3,0.2,0.5,0.5,0.7c0.2,0.2,0.6,0.3,0.9,0.3s0.5,0,0.7-0.1s0.4-0.2,0.5-0.4l0.7,0.8
							c-0.5,0.5-1.1,0.8-2,0.8c-0.5,0-1-0.1-1.4-0.3s-0.7-0.5-1-0.9s-0.3-0.8-0.3-1.3s0.1-0.9,0.3-1.3c0.2-0.4,0.5-0.7,0.9-0.9
							c0.4-0.2,0.8-0.3,1.3-0.3s0.9,0.1,1.3,0.3s0.7,0.5,0.9,0.9C23.9,30.7,24,31.1,24,31.6z M21.5,30.1c-0.3,0-0.6,0.1-0.8,0.3
							c-0.2,0.2-0.3,0.4-0.4,0.7h2.4c0-0.3-0.2-0.6-0.4-0.7S21.8,30.1,21.5,30.1z M27.1,34.1c-0.5,0-1-0.1-1.4-0.3s-0.7-0.5-1-0.9
							c-0.2-0.4-0.3-0.8-0.3-1.3s0.1-0.9,0.3-1.3c0.2-0.4,0.6-0.7,1-0.9c0.4-0.2,0.9-0.3,1.4-0.3s1,0.1,1.3,0.3
							c0.4,0.2,0.7,0.5,0.8,0.9l-1.1,0.6c-0.3-0.4-0.6-0.7-1.1-0.7c-0.4,0-0.7,0.1-0.9,0.4s-0.4,0.6-0.4,1s0.1,0.7,0.4,1
							S26.6,33,27,33c0.5,0,0.8-0.2,1.1-0.7l1.1,0.6c-0.2,0.4-0.5,0.7-0.8,0.9S27.6,34.1,27.1,34.1z M34.6,31.6c0,0,0,0.1,0,0.4
							h-3.7c0.1,0.3,0.2,0.5,0.5,0.7c0.2,0.2,0.6,0.3,0.9,0.3c0.3,0,0.5,0,0.7-0.1s0.4-0.2,0.5-0.4l0.7,0.8c-0.5,0.5-1.1,0.8-2,0.8
							c-0.5,0-1-0.1-1.4-0.3s-0.7-0.5-1-0.9s-0.3-0.8-0.3-1.3s0.1-0.9,0.3-1.3c0.2-0.4,0.5-0.7,0.9-0.9c0.4-0.2,0.8-0.3,1.3-0.3
							s0.9,0.1,1.3,0.3s0.7,0.5,0.9,0.9C34.5,30.7,34.6,31.1,34.6,31.6z M32.1,30.1c-0.3,0-0.6,0.1-0.8,0.3
							c-0.2,0.2-0.3,0.4-0.4,0.7h2.4c0-0.3-0.2-0.6-0.4-0.7S32.4,30.1,32.1,30.1z M35.4,29.2h1.4V34h-1.4V29.2z M36.1,28.5
							c-0.3,0-0.5-0.1-0.6-0.2c-0.2-0.1-0.2-0.3-0.2-0.6c0-0.2,0.1-0.4,0.2-0.6c0.2-0.2,0.4-0.2,0.6-0.2c0.3,0,0.5,0.1,0.6,0.2
							c0.2,0.1,0.2,0.3,0.2,0.5s-0.1,0.4-0.2,0.6C36.5,28.4,36.3,28.5,36.1,28.5z M40.8,29.1c0.5,0,0.9,0.1,1.2,0.3
							c0.4,0.2,0.7,0.5,0.9,0.9s0.3,0.8,0.3,1.3s-0.1,0.9-0.3,1.3c-0.2,0.4-0.5,0.7-0.9,0.9s-0.8,0.3-1.2,0.3
							c-0.6,0-1.1-0.2-1.5-0.6v2.3h-1.4v-6.6h1.3v0.6C39.6,29.3,40.1,29.1,40.8,29.1z M40.5,32.9c0.4,0,0.7-0.1,0.9-0.4
							c0.2-0.2,0.3-0.6,0.3-1s-0.1-0.7-0.3-1c-0.2-0.2-0.5-0.4-0.9-0.4s-0.7,0.1-0.9,0.4c-0.2,0.2-0.3,0.6-0.3,1s0.1,0.7,0.3,1
							C39.9,32.8,40.1,32.9,40.5,32.9z M47.1,33.8C47,33.9,46.8,34,46.6,34c-0.2,0.1-0.4,0.1-0.6,0.1c-0.6,0-1-0.1-1.3-0.4
							c-0.3-0.3-0.5-0.7-0.5-1.3v-2h-0.7v-1.1h0.7v-1.2h1.4v1.2h1.2v1.1h-1.2v2c0,0.2,0.1,0.4,0.2,0.5s0.3,0.2,0.4,0.2
							c0.2,0,0.4-0.1,0.6-0.2L47.1,33.8z M11.7,45.1c-0.5,0-1-0.1-1.4-0.3s-0.7-0.5-1-0.9S9,43.1,9,42.6s0.1-0.9,0.3-1.3
							s0.6-0.7,1-0.9s0.9-0.3,1.4-0.3s1,0.1,1.3,0.3c0.4,0.2,0.7,0.5,0.8,0.9l-1.1,0.6c-0.3-0.4-0.6-0.7-1.1-0.7
							c-0.4,0-0.7,0.1-0.9,0.4c-0.2,0.2-0.4,0.6-0.4,1s0.1,0.7,0.4,1c0.2,0.2,0.5,0.4,0.9,0.4c0.5,0,0.8-0.2,1.1-0.7l1.1,0.6
							c-0.2,0.4-0.5,0.7-0.8,0.9C12.6,45,12.2,45.1,11.7,45.1z M16.7,45.1c-0.5,0-1-0.1-1.4-0.3s-0.7-0.5-0.9-0.9s-0.3-0.8-0.3-1.3
							s0.1-0.9,0.3-1.3c0.2-0.4,0.5-0.7,0.9-0.9s0.9-0.3,1.4-0.3s1,0.1,1.4,0.3s0.7,0.5,0.9,0.9s0.3,0.8,0.3,1.3s-0.1,0.9-0.3,1.3
							s-0.5,0.7-0.9,0.9S17.2,45.1,16.7,45.1z M16.7,43.9c0.4,0,0.7-0.1,0.9-0.4s0.3-0.6,0.3-1s-0.1-0.7-0.3-1
							c-0.2-0.2-0.5-0.4-0.9-0.4s-0.7,0.1-0.9,0.4c-0.2,0.2-0.4,0.6-0.4,1s0.1,0.7,0.4,1S16.4,43.9,16.7,43.9z M20.1,38.3h1.4V45
							h-1.4V38.3z M22.7,38.3h1.4V45h-1.4V38.3z M30,42.6c0,0,0,0.1,0,0.4h-3.7c0.1,0.3,0.2,0.5,0.5,0.7c0.2,0.2,0.6,0.3,0.9,0.3
							s0.5,0,0.7-0.1s0.4-0.2,0.5-0.4l0.7,0.8c-0.5,0.5-1.1,0.8-2,0.8c-0.5,0-1-0.1-1.4-0.3s-0.7-0.5-1-0.9
							c-0.2-0.4-0.3-0.8-0.3-1.3s0.1-0.9,0.3-1.3c0.2-0.4,0.5-0.7,0.9-0.9s0.8-0.3,1.3-0.3s0.9,0.1,1.3,0.3s0.7,0.5,0.9,0.9
							C29.8,41.7,30,42.1,30,42.6z M27.4,41.1c-0.3,0-0.6,0.1-0.8,0.3s-0.3,0.4-0.4,0.7h2.4c0-0.3-0.2-0.6-0.4-0.7
							C28,41.2,27.8,41.1,27.4,41.1z M33.1,45.1c-0.5,0-1-0.1-1.4-0.3s-0.7-0.5-1-0.9s-0.3-0.8-0.3-1.3s0.1-0.9,0.3-1.3
							s0.6-0.7,1-0.9s0.9-0.3,1.4-0.3s1,0.1,1.3,0.3s0.7,0.5,0.8,0.9l-1.1,0.6c-0.3-0.4-0.6-0.7-1.1-0.7c-0.4,0-0.7,0.1-0.9,0.4
							c-0.2,0.2-0.4,0.6-0.4,1s0.1,0.7,0.4,1c0.2,0.2,0.5,0.4,0.9,0.4c0.5,0,0.8-0.2,1.1-0.7l1.1,0.6c-0.2,0.4-0.5,0.7-0.8,0.9
							C34,45,33.6,45.1,33.1,45.1z M39.1,44.8C39,44.9,38.8,45,38.6,45c-0.2,0.1-0.4,0.1-0.6,0.1c-0.6,0-1-0.1-1.3-0.4
							s-0.5-0.7-0.5-1.3v-2h-0.7v-1.1h0.7v-1.2h1.4v1.2h1.2v1.1h-1.2v2c0,0.2,0.1,0.4,0.2,0.5c0.1,0.1,0.3,0.2,0.4,0.2
							c0.2,0,0.4-0.1,0.6-0.2L39.1,44.8z M39.7,40.2h1.4V45h-1.4V40.2z M40.4,39.5c-0.3,0-0.5-0.1-0.6-0.2c-0.2-0.2-0.2-0.3-0.2-0.6
							s0.1-0.4,0.2-0.6c0.2-0.1,0.4-0.2,0.6-0.2c0.3,0,0.5,0.1,0.6,0.2c0.2,0.1,0.2,0.3,0.2,0.5S41.1,39,41,39.2
							C40.9,39.4,40.6,39.5,40.4,39.5z M44.5,45.1c-0.5,0-1-0.1-1.4-0.3s-0.7-0.5-0.9-0.9s-0.3-0.8-0.3-1.3s0.1-0.9,0.3-1.3
							s0.5-0.7,0.9-0.9s0.9-0.3,1.4-0.3s1,0.1,1.4,0.3s0.7,0.5,0.9,0.9s0.3,0.8,0.3,1.3s-0.1,0.9-0.3,1.3s-0.5,0.7-0.9,0.9
							S45,45.1,44.5,45.1z M44.5,43.9c0.4,0,0.7-0.1,0.9-0.4c0.2-0.2,0.3-0.6,0.3-1s-0.1-0.7-0.3-1c-0.2-0.2-0.5-0.4-0.9-0.4
							s-0.7,0.1-0.9,0.4c-0.2,0.2-0.4,0.6-0.4,1s0.1,0.7,0.4,1S44.2,43.9,44.5,43.9z M50.9,40.1c0.6,0,1.1,0.2,1.5,0.5
							c0.4,0.4,0.6,0.9,0.6,1.6V45h-1.4v-2.6c0-0.4-0.1-0.7-0.3-0.9s-0.4-0.3-0.7-0.3c-0.4,0-0.6,0.1-0.8,0.3s-0.3,0.5-0.3,1V45
							h-1.4v-4.8h1.3v0.6c0.2-0.2,0.4-0.4,0.7-0.5C50.3,40.1,50.6,40.1,50.9,40.1z"/>
					</g>
				</g>
			</g>
			<g id="Group-17-Copy-2" transform="translate(219.000000, 34.000000)">
				<g>
					<g>
						<circle id="path-10" class="st0" cx="33.8" cy="33.7" r="33.8"/>
					</g>
					<circle class="st1" cx="33.8" cy="33.7" r="36.8"/>
				</g>
				<g transform="translate(2.934783, 2.934783)">
					<g>
						<g>
							<g>
								<circle id="path-11" cx="30.8" cy="30.8" r="30.8"/>
							</g>
							<g>
								<circle class="st6" cx="30.8" cy="30.8" r="30.8"/>
							</g>
						</g>
						<path id="Timesheet-and-payrol" class="st7" d="M8.8,14.8h-2v-1.2h5.5v1.2h-2v5.1H8.8V14.8z M12.7,15h1.4v4.8h-1.4V15z
							 M13.4,14.4c-0.3,0-0.5-0.1-0.6-0.2c-0.2-0.2-0.2-0.3-0.2-0.6s0.1-0.4,0.2-0.6c0.2-0.2,0.4-0.2,0.6-0.2c0.3,0,0.5,0.1,0.6,0.2
							c0.2,0.1,0.2,0.3,0.2,0.5s-0.1,0.4-0.2,0.6C13.8,14.3,13.6,14.4,13.4,14.4z M21.4,15c0.6,0,1.1,0.2,1.4,0.5
							c0.4,0.4,0.5,0.9,0.5,1.6v2.8H22v-2.6c0-0.4-0.1-0.7-0.2-0.9c-0.2-0.2-0.4-0.3-0.7-0.3c-0.3,0-0.6,0.1-0.8,0.3
							c-0.2,0.3-0.3,0.6-0.3,1v2.4h-1.4v-2.6c0-0.8-0.3-1.1-0.9-1.1c-0.3,0-0.6,0.1-0.8,0.3s-0.3,0.5-0.3,0.9v2.4h-1.4V15h1.3v0.6
							c0.2-0.2,0.4-0.4,0.7-0.5s0.5-0.2,0.9-0.2c0.3,0,0.7,0.1,0.9,0.2c0.3,0.1,0.5,0.3,0.7,0.6c0.2-0.3,0.4-0.4,0.8-0.6
							S21.1,15,21.4,15z M29.3,17.5c0,0,0,0.1,0,0.4h-3.7c0.1,0.3,0.2,0.5,0.5,0.7c0.2,0.2,0.6,0.3,0.9,0.3s0.5,0,0.7-0.1
							s0.4-0.2,0.5-0.4l0.7,0.8c-0.5,0.5-1.1,0.8-2,0.8c-0.5,0-1-0.1-1.4-0.3s-0.7-0.5-1-0.9c-0.2-0.4-0.3-0.8-0.3-1.3
							s0.1-0.9,0.3-1.3c0.2-0.4,0.5-0.7,0.9-0.9s0.8-0.3,1.3-0.3s0.9,0.1,1.3,0.3s0.7,0.5,0.9,0.9C29.2,16.5,29.3,17,29.3,17.5z
							 M26.8,16c-0.3,0-0.6,0.1-0.8,0.3c-0.2,0.2-0.3,0.4-0.4,0.7H28c0-0.3-0.2-0.6-0.4-0.7S27.1,16,26.8,16z M31.7,19.9
							c-0.4,0-0.8,0-1.2-0.1c-0.4-0.1-0.7-0.2-0.9-0.4l0.5-1c0.2,0.1,0.5,0.3,0.8,0.3c0.3,0.1,0.6,0.1,0.9,0.1
							c0.6,0,0.9-0.1,0.9-0.4c0-0.1-0.1-0.2-0.2-0.3c-0.3,0-0.5-0.1-0.9-0.1c-0.4-0.1-0.7-0.1-1-0.2s-0.5-0.2-0.7-0.4
							c-0.2-0.2-0.3-0.5-0.3-0.8s0.1-0.6,0.3-0.8c0.2-0.2,0.4-0.4,0.8-0.6c0.3-0.1,0.7-0.2,1.2-0.2c0.3,0,0.7,0,1,0.1
							c0.3,0.1,0.6,0.2,0.8,0.3l-0.5,1c-0.4-0.2-0.9-0.4-1.4-0.4c-0.3,0-0.5,0-0.7,0.1c-0.2,0.1-0.1,0.2-0.1,0.4s0.1,0.3,0.2,0.3
							s0.4,0.1,0.8,0.2c0.4,0.1,0.7,0.1,1,0.2s0.5,0.2,0.7,0.4s0.3,0.5,0.3,0.8s-0.1,0.6-0.3,0.8s-0.4,0.4-0.8,0.5
							C32.6,19.9,32.2,19.9,31.7,19.9z M37.6,15c0.6,0,1.1,0.2,1.5,0.5c0.4,0.4,0.6,0.9,0.6,1.6v2.8h-1.4v-2.6
							c0-0.4-0.1-0.7-0.3-0.9c-0.2-0.2-0.4-0.3-0.7-0.3c-0.4,0-0.6,0.1-0.8,0.3c-0.2,0.2-0.3,0.5-0.3,1v2.4h-1.4v-6.7h1.4v2.3
							c0.2-0.2,0.4-0.3,0.7-0.4C37,15,37.3,15,37.6,15z M45.5,17.5c0,0,0,0.1,0,0.4h-3.7c0.1,0.3,0.2,0.5,0.5,0.7
							c0.2,0.2,0.6,0.3,0.9,0.3c0.3,0,0.5,0,0.7-0.1s0.4-0.2,0.5-0.4l0.7,0.8c-0.5,0.5-1.1,0.8-2,0.8c-0.5,0-1-0.1-1.4-0.3
							s-0.7-0.5-1-0.9c-0.2-0.4-0.3-0.8-0.3-1.3s0.1-0.9,0.3-1.3c0.2-0.4,0.5-0.7,0.9-0.9s0.8-0.3,1.3-0.3s0.9,0.1,1.3,0.3
							c0.4,0.2,0.7,0.5,0.9,0.9C45.4,16.5,45.5,17,45.5,17.5z M43,16c-0.3,0-0.6,0.1-0.8,0.3c-0.2,0.2-0.3,0.4-0.4,0.7h2.4
							c0-0.3-0.2-0.6-0.4-0.7C43.6,16.1,43.3,16,43,16z M51,17.5c0,0,0,0.1,0,0.4h-3.7c0.1,0.3,0.2,0.5,0.5,0.7
							c0.2,0.2,0.6,0.3,0.9,0.3c0.3,0,0.5,0,0.7-0.1s0.4-0.2,0.5-0.4l0.7,0.8c-0.5,0.5-1.1,0.8-2,0.8c-0.5,0-1-0.1-1.4-0.3
							s-0.7-0.5-1-0.9c-0.2-0.4-0.3-0.8-0.3-1.3s0.1-0.9,0.3-1.3c0.2-0.4,0.5-0.7,0.9-0.9s0.8-0.3,1.3-0.3s0.9,0.1,1.3,0.3
							c0.4,0.2,0.7,0.5,0.9,0.9C50.9,16.5,51,17,51,17.5z M48.5,16c-0.3,0-0.6,0.1-0.8,0.3c-0.2,0.2-0.3,0.4-0.4,0.7h2.4
							c0-0.3-0.2-0.6-0.4-0.7C49.1,16.1,48.8,16,48.5,16z M54.9,19.6c-0.1,0.1-0.3,0.2-0.5,0.2s-0.4,0.1-0.6,0.1
							c-0.6,0-1-0.1-1.3-0.4S52,18.8,52,18.2v-2h-0.7v-1.1H52V14h1.4v1.2h1.2v1.1h-1.2v2c0,0.2,0.1,0.4,0.2,0.5
							c0.1,0.1,0.3,0.2,0.4,0.2c0.2,0,0.4-0.1,0.6-0.2L54.9,19.6z M24.6,26c0.8,0,1.3,0.2,1.7,0.5s0.6,0.9,0.6,1.6v2.8h-1.3v-0.6
							c-0.3,0.5-0.8,0.7-1.5,0.7c-0.4,0-0.7-0.1-1-0.2s-0.5-0.3-0.6-0.5s-0.2-0.5-0.2-0.8c0-0.5,0.2-0.8,0.5-1.1
							c0.3-0.3,0.9-0.4,1.6-0.4h1.1c0-0.3-0.1-0.5-0.3-0.7c-0.2-0.2-0.5-0.2-0.8-0.2s-0.5,0-0.8,0.1c-0.2,0.1-0.5,0.2-0.6,0.3
							l-0.5-1c0.3-0.2,0.6-0.3,0.9-0.4C23.9,26,24.3,26,24.6,26z M24.5,30c0.2,0,0.5-0.1,0.6-0.2c0.2-0.1,0.3-0.3,0.4-0.5v-0.5h-1
							c-0.6,0-0.9,0.2-0.9,0.6c0,0.2,0.1,0.3,0.2,0.4C24.1,29.9,24.3,30,24.5,30z M31,26c0.6,0,1.1,0.2,1.5,0.5
							c0.4,0.4,0.6,0.9,0.6,1.6v2.8h-1.4v-2.6c0-0.4-0.1-0.7-0.3-0.9c-0.2-0.2-0.4-0.3-0.7-0.3c-0.4,0-0.6,0.1-0.8,0.3
							c-0.2,0.2-0.3,0.5-0.3,1v2.4h-1.4V26h1.3v0.6c0.2-0.2,0.4-0.4,0.7-0.5C30.4,26,30.7,26,31,26z M39.1,24.2v6.7h-1.3v-0.6
							c-0.3,0.4-0.9,0.6-1.5,0.6c-0.5,0-0.9-0.1-1.2-0.3c-0.4-0.2-0.7-0.5-0.9-0.9s-0.3-0.8-0.3-1.3s0.1-0.9,0.3-1.3
							s0.5-0.7,0.9-0.9c0.4-0.2,0.8-0.3,1.2-0.3c0.6,0,1.1,0.2,1.4,0.6v-2.3C37.7,24.2,39.1,24.2,39.1,24.2z M36.5,29.8
							c0.4,0,0.6-0.1,0.9-0.4s0.4-0.6,0.4-1s-0.1-0.7-0.4-1c-0.2-0.2-0.5-0.4-0.9-0.4s-0.7,0.1-0.9,0.4c-0.2,0.2-0.4,0.6-0.4,1
							s0.1,0.7,0.4,1S36.1,29.8,36.5,29.8z M18.9,37c0.5,0,0.9,0.1,1.2,0.3s0.7,0.5,0.9,0.9c0.2,0.4,0.3,0.8,0.3,1.3
							s-0.1,0.9-0.3,1.3c-0.2,0.4-0.5,0.7-0.9,0.9S19.3,42,18.9,42c-0.6,0-1.1-0.2-1.5-0.6v2.3H16V37h1.3v0.6
							C17.7,37.2,18.2,37,18.9,37z M18.6,40.8c0.4,0,0.7-0.1,0.9-0.4c0.2-0.2,0.3-0.6,0.3-1s-0.1-0.7-0.3-1C19.3,38.2,19,38,18.6,38
							s-0.7,0.1-0.9,0.4c-0.2,0.2-0.3,0.6-0.3,1s0.1,0.7,0.3,1S18.3,40.8,18.6,40.8z M23.9,37c0.8,0,1.3,0.2,1.7,0.5
							c0.4,0.4,0.6,0.9,0.6,1.6v2.8h-1.3v-0.6c-0.3,0.5-0.8,0.7-1.5,0.7c-0.4,0-0.7-0.1-1-0.2c-0.3-0.1-0.5-0.3-0.6-0.5
							s-0.2-0.5-0.2-0.8c0-0.5,0.2-0.8,0.5-1.1S23,39,23.7,39h1.1c0-0.3-0.1-0.5-0.3-0.7s-0.5-0.2-0.8-0.2s-0.5,0-0.8,0.1
							c-0.2,0.1-0.5,0.2-0.6,0.3l-0.5-1c0.3-0.2,0.6-0.3,0.9-0.4C23.2,37,23.5,37,23.9,37z M23.8,41c0.2,0,0.5-0.1,0.6-0.2
							s0.3-0.3,0.4-0.5v-0.5h-1c-0.6,0-0.9,0.2-0.9,0.6c0,0.2,0.1,0.3,0.2,0.4C23.4,40.9,23.6,41,23.8,41z M32.1,37l-2.2,5.1
							c-0.2,0.6-0.5,1-0.8,1.2s-0.7,0.3-1.2,0.3c-0.3,0-0.5,0-0.7-0.1s-0.4-0.2-0.6-0.3l0.5-1c0.1,0.1,0.2,0.2,0.4,0.2
							s0.3,0.1,0.4,0.1c0.2,0,0.3,0,0.5-0.1c0.1-0.1,0.2-0.2,0.3-0.5l0,0L26.5,37H28l1.4,3.3l1.4-3.3H32.1z M33.8,37.7
							c0.2-0.2,0.4-0.4,0.7-0.5s0.6-0.2,1-0.2v1.3c-0.2,0-0.3,0-0.3,0c-0.4,0-0.7,0.1-0.9,0.3s-0.3,0.6-0.3,1v2.3h-1.4V37h1.3
							L33.8,37.7L33.8,37.7z M38.4,41.9c-0.5,0-1-0.1-1.4-0.3s-0.7-0.5-0.9-0.9s-0.3-0.8-0.3-1.3s0.1-0.9,0.3-1.3
							c0.2-0.4,0.5-0.7,0.9-0.9s0.9-0.3,1.4-0.3s1,0.1,1.4,0.3s0.7,0.5,0.9,0.9s0.3,0.8,0.3,1.3s-0.1,0.9-0.3,1.3s-0.5,0.7-0.9,0.9
							S38.9,41.9,38.4,41.9z M38.4,40.8c0.4,0,0.7-0.1,0.9-0.4c0.2-0.2,0.3-0.6,0.3-1s-0.1-0.7-0.3-1c-0.2-0.2-0.5-0.4-0.9-0.4
							s-0.7,0.1-0.9,0.4c-0.2,0.2-0.4,0.6-0.4,1s0.1,0.7,0.4,1S38.1,40.8,38.4,40.8z M41.8,35.2h1.4v6.7h-1.4V35.2z M44.4,35.2h1.4
							v6.7h-1.4V35.2z M26.1,46.2v6.7h-1.3v-0.6c-0.3,0.4-0.9,0.6-1.5,0.6c-0.5,0-0.9-0.1-1.2-0.3c-0.4-0.2-0.7-0.5-0.9-0.9
							s-0.3-0.8-0.3-1.3s0.1-0.9,0.3-1.3s0.5-0.7,0.9-0.9s0.8-0.3,1.2-0.3c0.6,0,1.1,0.2,1.4,0.6v-2.3H26.1z M23.5,51.8
							c0.4,0,0.6-0.1,0.9-0.4s0.4-0.6,0.4-1s-0.1-0.7-0.4-1c-0.2-0.2-0.5-0.4-0.9-0.4s-0.7,0.1-0.9,0.4c-0.2,0.2-0.4,0.6-0.4,1
							s0.1,0.7,0.4,1S23.1,51.8,23.5,51.8z M29.2,48c0.8,0,1.3,0.2,1.7,0.5c0.4,0.4,0.6,0.9,0.6,1.6v2.8h-1.3v-0.6
							c-0.3,0.5-0.8,0.7-1.5,0.7c-0.4,0-0.7-0.1-1-0.2s-0.5-0.3-0.6-0.5s-0.2-0.5-0.2-0.8c0-0.5,0.2-0.8,0.5-1.1S28.3,50,29,50h1.1
							c0-0.3-0.1-0.5-0.3-0.7c-0.2-0.2-0.5-0.2-0.8-0.2s-0.5,0-0.8,0.1c-0.2,0.1-0.5,0.2-0.6,0.3l-0.5-1c0.3-0.2,0.6-0.3,0.9-0.4
							C28.4,48,28.8,48,29.2,48z M29.1,52c0.2,0,0.5-0.1,0.6-0.2s0.3-0.3,0.4-0.5v-0.5h-1c-0.6,0-0.9,0.2-0.9,0.6
							c0,0.2,0.1,0.3,0.2,0.4C28.6,51.9,28.8,52,29.1,52z M35.7,52.6c-0.1,0.1-0.3,0.2-0.5,0.2c-0.2,0.1-0.4,0.1-0.6,0.1
							c-0.6,0-1-0.1-1.3-0.4s-0.5-0.7-0.5-1.3v-2H32v-1.1h0.7V47h1.4v1.2h1.2v1.1h-1.2v2c0,0.2,0.1,0.4,0.2,0.5
							c0.1,0.1,0.3,0.2,0.4,0.2c0.2,0,0.4-0.1,0.6-0.2L35.7,52.6z M38.3,48c0.8,0,1.3,0.2,1.7,0.5c0.4,0.4,0.6,0.9,0.6,1.6v2.8h-1.3
							v-0.6C39,52.8,38.5,53,37.8,53c-0.4,0-0.7-0.1-1-0.2c-0.3-0.1-0.5-0.3-0.6-0.5S36,51.8,36,51.5c0-0.5,0.2-0.8,0.5-1.1
							s0.9-0.4,1.6-0.4h1.1c0-0.3-0.1-0.5-0.3-0.7s-0.5-0.2-0.8-0.2s-0.5,0-0.8,0.1c-0.2,0.1-0.5,0.2-0.6,0.3l-0.5-1
							c0.3-0.2,0.6-0.3,0.9-0.4C37.6,48,37.9,48,38.3,48z M38.2,52c0.2,0,0.5-0.1,0.6-0.2s0.3-0.3,0.4-0.5v-0.5h-1
							c-0.6,0-0.9,0.2-0.9,0.6c0,0.2,0.1,0.3,0.2,0.4C37.8,51.9,38,52,38.2,52z"/>
					</g>
				</g>
			</g>
			<g id="Group-17-Copy" transform="translate(116.000000, 0.000000)">
				<g>
					<g>
						<circle id="path-13" class="st0" cx="33.8" cy="33.7" r="33.8"/>
					</g>
					<circle class="st1" cx="33.8" cy="33.7" r="36.8"/>
				</g>
				<g transform="translate(2.934783, 2.934783)">
					<g>
						<g>
							<g>
								<circle id="path-14" cx="30.8" cy="30.8" r="30.8"/>
							</g>
							<g>
								<circle class="st6" cx="30.8" cy="30.8" r="30.8"/>
							</g>
						</g>
						<g>
							<path class="st8" d="M10.4,25.4c-0.5-0.3-0.9-0.7-1.2-1.2s-0.4-1.1-0.4-1.7s0.1-1.2,0.4-1.7c0.3-0.5,0.7-0.9,1.2-1.2
								c0.5-0.3,1.1-0.4,1.8-0.4c0.5,0,1,0.1,1.5,0.3c0.4,0.2,0.8,0.5,1.1,0.8l-0.9,0.9c-0.4-0.5-1-0.7-1.6-0.7
								c-0.4,0-0.7,0.1-1,0.3c-0.3,0.2-0.5,0.4-0.7,0.7c-0.2,0.3-0.3,0.7-0.3,1c0,0.4,0.1,0.7,0.3,1s0.4,0.5,0.7,0.7s0.7,0.3,1,0.3
								c0.6,0,1.2-0.2,1.6-0.7l0.9,0.9c-0.3,0.4-0.7,0.6-1.1,0.8c-0.4,0.2-0.9,0.3-1.5,0.3C11.5,25.8,10.9,25.7,10.4,25.4z"/>
							<path class="st8" d="M16.2,25.5c-0.4-0.2-0.7-0.5-1-0.9c-0.2-0.4-0.3-0.8-0.3-1.3s0.1-0.9,0.3-1.3s0.5-0.7,1-0.9
								c0.4-0.2,0.9-0.3,1.4-0.3s1,0.1,1.4,0.3s0.7,0.5,0.9,0.9c0.2,0.4,0.3,0.8,0.3,1.3s-0.1,0.9-0.3,1.3c-0.2,0.4-0.5,0.7-0.9,0.9
								c-0.4,0.2-0.9,0.3-1.4,0.3S16.6,25.7,16.2,25.5z M18.5,24.3c0.2-0.2,0.3-0.6,0.3-1s-0.1-0.7-0.3-1c-0.2-0.2-0.5-0.4-0.9-0.4
								s-0.7,0.1-0.9,0.4c-0.2,0.2-0.4,0.6-0.4,1s0.1,0.7,0.4,1s0.5,0.4,0.9,0.4S18.2,24.5,18.5,24.3z"/>
							<path class="st8" d="M21,19h1.4v6.7H21V19z"/>
							<path class="st8" d="M23.5,19H25v6.7h-1.4V19H23.5z"/>
							<path class="st8" d="M30.8,23.7h-3.7c0.1,0.3,0.2,0.5,0.5,0.7c0.2,0.2,0.6,0.3,0.9,0.3s0.5,0,0.7-0.1s0.4-0.2,0.5-0.4
								l0.8,0.8c-0.5,0.5-1.1,0.8-2,0.8c-0.5,0-1-0.1-1.5-0.3c-0.4-0.2-0.7-0.5-1-0.9c-0.2-0.4-0.3-0.8-0.3-1.3s0.1-0.9,0.3-1.3
								c0.2-0.4,0.5-0.7,0.9-0.9s0.8-0.3,1.3-0.3s0.9,0.1,1.3,0.3s0.7,0.5,0.9,0.9c0.2,0.4,0.3,0.8,0.3,1.3
								C30.8,23.3,30.8,23.4,30.8,23.7z M27.5,22.1c-0.2,0.2-0.3,0.4-0.4,0.7h2.4c0-0.3-0.2-0.6-0.4-0.7s-0.5-0.3-0.8-0.3
								C28,21.8,27.7,21.9,27.5,22.1z"/>
							<path class="st8" d="M32.6,25.5c-0.4-0.2-0.7-0.5-1-0.9c-0.2-0.4-0.3-0.8-0.3-1.3s0.1-0.9,0.3-1.3c0.2-0.4,0.6-0.7,1-0.9
								s0.9-0.3,1.4-0.3s1,0.1,1.3,0.3c0.4,0.2,0.7,0.5,0.8,0.9L35,22.6c-0.3-0.4-0.6-0.7-1.1-0.7c-0.4,0-0.7,0.1-0.9,0.4
								c-0.2,0.2-0.4,0.6-0.4,1s0.1,0.7,0.4,1c0.2,0.2,0.5,0.4,0.9,0.4c0.5,0,0.8-0.2,1.1-0.7l1.1,0.6c-0.2,0.4-0.5,0.7-0.8,0.9
								c-0.4,0.2-0.8,0.3-1.3,0.3C33.4,25.8,33,25.7,32.6,25.5z"/>
							<path class="st8" d="M40,25.5c-0.1,0.1-0.3,0.2-0.5,0.2c-0.2,0.1-0.4,0.1-0.6,0.1c-0.6,0-1-0.1-1.3-0.4
								C37.2,25,37,24.6,37,24v-2h-0.8v-1H37v-1.2h1.4V21h1.2v1h-1.2v2c0,0.2,0.1,0.4,0.2,0.5c0.1,0.1,0.3,0.2,0.4,0.2
								c0.2,0,0.4-0.1,0.6-0.2L40,25.5z"/>
							<path class="st8" d="M40.7,19.9c-0.2-0.2-0.2-0.3-0.2-0.6c0-0.2,0.1-0.4,0.2-0.6c0.2-0.2,0.4-0.2,0.6-0.2s0.5,0.1,0.6,0.2
								c0.2,0.1,0.2,0.3,0.2,0.5s-0.1,0.4-0.2,0.6C41.7,20,41.5,20,41.3,20S40.8,20.1,40.7,19.9z M40.6,20.9H42v4.9h-1.4V20.9z"/>
							<path class="st8" d="M44.1,25.5c-0.4-0.2-0.7-0.5-1-0.9s-0.3-0.8-0.3-1.3s0.1-0.9,0.3-1.3s0.5-0.7,1-0.9s0.9-0.3,1.4-0.3
								s1,0.1,1.4,0.3s0.7,0.5,0.9,0.9s0.3,0.8,0.3,1.3s-0.1,0.9-0.3,1.3s-0.5,0.7-0.9,0.9c-0.4,0.2-0.9,0.3-1.4,0.3
								S44.5,25.7,44.1,25.5z M46.3,24.3c0.2-0.2,0.3-0.6,0.3-1s-0.1-0.7-0.3-1c-0.2-0.2-0.5-0.4-0.9-0.4s-0.7,0.1-0.9,0.4
								c-0.2,0.2-0.4,0.6-0.4,1s0.1,0.7,0.4,1c0.2,0.2,0.5,0.4,0.9,0.4S46.1,24.5,46.3,24.3z"/>
							<path class="st8" d="M53.3,21.3c0.4,0.4,0.6,0.9,0.6,1.6v2.8h-1.4v-2.6c0-0.4-0.1-0.7-0.3-0.9C52,22.1,51.8,22,51.4,22
								c-0.4,0-0.6,0.1-0.8,0.3c-0.2,0.2-0.3,0.5-0.3,1v2.4h-1.4v-4.9h1.3v0.6c0.2-0.2,0.4-0.4,0.7-0.5s0.6-0.2,0.9-0.2
								C52.4,20.8,52.9,21,53.3,21.3z"/>
							<path class="st8" d="M15.8,36.5c-0.4-0.2-0.7-0.5-1-0.9c-0.2-0.4-0.3-0.8-0.3-1.3s0.1-0.9,0.3-1.3c0.2-0.4,0.5-0.7,1-0.9
								c0.4-0.2,0.9-0.3,1.4-0.3s1,0.1,1.4,0.3c0.4,0.2,0.7,0.5,0.9,0.9c0.2,0.4,0.3,0.8,0.3,1.3s-0.1,0.9-0.3,1.3
								c-0.2,0.4-0.5,0.7-0.9,0.9s-0.9,0.3-1.4,0.3S16.3,36.7,15.8,36.5z M18.1,35.3c0.2-0.2,0.3-0.6,0.3-1s-0.1-0.7-0.3-1
								c-0.2-0.2-0.5-0.4-0.9-0.4s-0.7,0.1-0.9,0.4c-0.2,0.2-0.4,0.6-0.4,1s0.1,0.7,0.4,1s0.5,0.4,0.9,0.4S17.9,35.5,18.1,35.3z"/>
							<path class="st8" d="M22.2,32h1.2v1h-1.2v3.7h-1.4V33h-0.7v-1h0.7v-0.2c0-0.6,0.2-1,0.5-1.3s0.8-0.5,1.4-0.5
								c0.2,0,0.4,0,0.6,0.1c0.2,0,0.3,0.1,0.5,0.2l-0.4,1C23.2,31.1,23,31,22.8,31c-0.4,0-0.6,0.2-0.6,0.7
								C22.2,31.7,22.2,32,22.2,32z"/>
							<path class="st8" d="M26.8,36.6c-0.4-0.1-0.7-0.2-0.9-0.4l0.5-1c0.2,0.1,0.5,0.3,0.8,0.3s0.6,0.1,0.9,0.1
								c0.6,0,0.9-0.1,0.9-0.4c0-0.1-0.1-0.2-0.2-0.3c-0.2-0.1-0.4-0.1-0.7-0.2c-0.4-0.1-0.7-0.1-1-0.2c-0.3-0.1-0.5-0.2-0.7-0.4
								C26.1,34,26,33.7,26,33.4s0.1-0.6,0.3-0.8s0.4-0.4,0.8-0.6c0.3-0.1,0.7-0.2,1.2-0.2c0.3,0,0.7,0,1,0.1s0.6,0.2,0.8,0.3
								l-0.5,1c-0.4-0.2-0.9-0.4-1.4-0.4c-0.3,0-0.5,0-0.7,0.1s-0.2,0.2-0.2,0.3c0,0.2,0.1,0.3,0.2,0.3c0.2,0.1,0.4,0.1,0.8,0.2
								c0.4,0.1,0.7,0.1,1,0.2c0.3,0.1,0.5,0.2,0.7,0.4s0.3,0.5,0.3,0.8s-0.1,0.6-0.3,0.8s-0.4,0.4-0.8,0.5s-0.8,0.2-1.2,0.2
								C27.6,36.8,27.2,36.7,26.8,36.6z"/>
							<path class="st8" d="M34.6,32.3c0.4,0.4,0.6,0.9,0.6,1.6v2.8h-1.3v-0.6c-0.3,0.5-0.8,0.7-1.5,0.7c-0.4,0-0.7-0.1-1-0.2
								c-0.3-0.1-0.5-0.3-0.6-0.5s-0.2-0.5-0.2-0.8c0-0.5,0.2-0.8,0.5-1.1s0.9-0.4,1.6-0.4h1.1c0-0.3-0.1-0.5-0.3-0.7
								s-0.5-0.2-0.8-0.2s-0.5,0-0.8,0.1c-0.2,0.1-0.5,0.2-0.6,0.3l-0.5-1c0.3-0.2,0.6-0.3,1-0.4s0.8-0.2,1.1-0.2
								C33.7,31.8,34.2,32,34.6,32.3z M33.4,35.7c0.2-0.1,0.3-0.3,0.4-0.5v-0.5h-1c-0.6,0-0.9,0.2-0.9,0.6c0,0.2,0.1,0.3,0.2,0.4
								s0.3,0.2,0.6,0.2C33,35.8,33.3,35.8,33.4,35.7z"/>
							<path class="st8" d="M36.3,30h1.4v6.7h-1.4V30z"/>
							<path class="st8" d="M43.6,34.7h-3.7c0.1,0.3,0.2,0.5,0.5,0.7c0.2,0.2,0.6,0.3,0.9,0.3c0.3,0,0.5,0,0.7-0.1s0.4-0.2,0.5-0.4
								l0.8,0.8c-0.5,0.5-1.1,0.8-2,0.8c-0.5,0-1-0.1-1.5-0.3c-0.4-0.2-0.7-0.5-1-0.9c-0.2-0.4-0.3-0.8-0.3-1.3s0.1-0.9,0.3-1.3
								s0.5-0.7,0.9-0.9s0.8-0.3,1.3-0.3s0.9,0.1,1.3,0.3c0.4,0.2,0.7,0.5,0.9,0.9s0.3,0.8,0.3,1.3C43.6,34.3,43.6,34.4,43.6,34.7z
								 M40.3,33.1c-0.2,0.2-0.3,0.4-0.4,0.7h2.4c0-0.3-0.2-0.6-0.4-0.7s-0.5-0.3-0.8-0.3S40.5,32.9,40.3,33.1z"/>
							<path class="st8" d="M44.9,36.6c-0.4-0.1-0.7-0.2-0.9-0.4l0.5-1c0.2,0.1,0.5,0.3,0.8,0.3c0.3,0.1,0.6,0.1,0.9,0.1
								c0.6,0,0.9-0.1,0.9-0.4c0-0.1-0.1-0.2-0.2-0.3c-0.2-0.1-0.4-0.1-0.7-0.2c-0.4-0.1-0.7-0.1-1-0.2c-0.3-0.1-0.5-0.2-0.7-0.4
								C44.1,34,44,33.7,44,33.4s0.1-0.6,0.3-0.8s0.4-0.4,0.8-0.6c0.3-0.1,0.7-0.2,1.2-0.2c0.3,0,0.7,0,1,0.1s0.6,0.2,0.8,0.3
								l-0.5,1c-0.4-0.2-0.9-0.4-1.4-0.4c-0.3,0-0.5,0-0.7,0.1s-0.2,0.2-0.2,0.3c0,0.2,0.1,0.3,0.2,0.3c0.2,0.1,0.4,0.1,0.8,0.2
								c0.4,0.1,0.7,0.1,1,0.2c0.3,0.1,0.5,0.2,0.7,0.4s0.3,0.5,0.3,0.8s-0.1,0.6-0.3,0.8s-0.4,0.4-0.8,0.5
								c-0.3,0.1-0.8,0.2-1.2,0.2C45.6,36.8,45.2,36.7,44.9,36.6z"/>
							<path class="st8" d="M26.6,41v6.7h-1.3v-0.6c-0.3,0.4-0.9,0.6-1.5,0.6c-0.5,0-0.9-0.1-1.2-0.3c-0.4-0.2-0.7-0.5-0.9-0.9
								c-0.2-0.4-0.3-0.8-0.3-1.3s0.1-0.9,0.3-1.3c0.2-0.4,0.5-0.7,0.9-0.9s0.8-0.3,1.2-0.3c0.6,0,1.1,0.2,1.5,0.6V41H26.6z
								 M24.9,46.3c0.2-0.2,0.4-0.6,0.4-1s-0.1-0.7-0.4-1c-0.2-0.2-0.5-0.4-0.9-0.4s-0.7,0.1-0.9,0.4c-0.2,0.2-0.4,0.6-0.4,1
								s0.1,0.7,0.4,1s0.5,0.4,0.9,0.4C24.3,46.6,24.6,46.5,24.9,46.3z"/>
							<path class="st8" d="M31.4,43.3c0.4,0.4,0.6,0.9,0.6,1.6v2.8h-1.3v-0.6c-0.3,0.5-0.8,0.7-1.5,0.7c-0.4,0-0.7-0.1-1-0.2
								c-0.3-0.1-0.5-0.3-0.6-0.5s-0.2-0.5-0.2-0.8c0-0.5,0.2-0.8,0.5-1.1s0.9-0.4,1.6-0.4h1.1c0-0.3-0.1-0.5-0.3-0.7
								c-0.2-0.2-0.5-0.2-0.8-0.2s-0.5,0-0.8,0.1c-0.2,0.1-0.5,0.2-0.6,0.3l-0.5-1c0.3-0.2,0.6-0.3,1-0.4c0.4-0.1,0.8-0.2,1.1-0.2
								C30.4,42.8,31,43,31.4,43.3z M30.2,46.7c0.2-0.1,0.3-0.3,0.4-0.5v-0.5h-1c-0.6,0-0.9,0.2-0.9,0.6c0,0.2,0.1,0.3,0.2,0.4
								c0.1,0.1,0.3,0.2,0.6,0.2C29.8,46.8,30,46.8,30.2,46.7z"/>
							<path class="st8" d="M36.3,47.5c-0.1,0.1-0.3,0.2-0.5,0.2c-0.2,0.1-0.4,0.1-0.6,0.1c-0.6,0-1-0.1-1.3-0.4
								c-0.3-0.3-0.5-0.7-0.5-1.3v-2h-0.8V43h0.8v-1.2h1.4V43H36v1h-1.2v2c0,0.2,0.1,0.4,0.2,0.5c0.1,0.1,0.3,0.2,0.4,0.2
								c0.2,0,0.4-0.1,0.6-0.2L36.3,47.5z"/>
							<path class="st8" d="M40.6,43.3c0.4,0.4,0.6,0.9,0.6,1.6v2.8h-1.3v-0.6c-0.3,0.5-0.8,0.7-1.5,0.7c-0.4,0-0.7-0.1-1-0.2
								c-0.3-0.1-0.5-0.3-0.6-0.5s-0.2-0.5-0.2-0.8c0-0.5,0.2-0.8,0.5-1.1s0.9-0.4,1.6-0.4h1.1c0-0.3-0.1-0.5-0.3-0.7
								s-0.5-0.2-0.8-0.2s-0.5,0-0.8,0.1c-0.2,0.1-0.5,0.2-0.6,0.3l-0.5-1c0.3-0.2,0.6-0.3,1-0.4c0.4-0.1,0.8-0.2,1.1-0.2
								C39.6,42.8,40.2,43,40.6,43.3z M39.4,46.7c0.2-0.1,0.3-0.3,0.4-0.5v-0.5h-1c-0.6,0-0.9,0.2-0.9,0.6c0,0.2,0.1,0.3,0.2,0.4
								s0.3,0.2,0.6,0.2C39,46.8,39.2,46.8,39.4,46.7z"/>
						</g>
					</g>
				</g>
			</g>
			<g id="Group-17-Copy-6" transform="translate(211.000000, 118.000000)">
				<g>
					<g>
						<circle id="path-16" class="st0" cx="33.8" cy="33.7" r="33.8"/>
					</g>
					<circle class="st1" cx="33.8" cy="33.7" r="36.8"/>
				</g>
				<g transform="translate(2.934783, 2.934783)">
					<g>
						<g>
							<g>
								<circle id="path-17" cx="30.8" cy="30.8" r="30.8"/>
							</g>
							<g>
								<circle class="st2" cx="30.8" cy="30.8" r="30.8"/>
							</g>
						</g>
						<path id="Payroll" class="st3" d="M18.7,27.2c0.6,0,1,0.1,1.5,0.3c0.4,0.2,0.7,0.4,0.9,0.8c0.2,0.3,0.3,0.7,0.3,1.2
							s-0.1,0.9-0.3,1.2c-0.2,0.3-0.5,0.6-0.9,0.8c-0.4,0.2-0.9,0.3-1.5,0.3h-1.3v1.7h-1.5v-6.3H18.7z M18.6,30.6
							c0.4,0,0.8-0.1,1-0.3c0.2-0.2,0.3-0.5,0.3-0.8c0-0.4-0.1-0.6-0.3-0.8c-0.2-0.2-0.6-0.3-1-0.3h-1.2v2.2
							C17.4,30.6,18.6,30.6,18.6,30.6z M24.1,28.6c0.8,0,1.3,0.2,1.7,0.5c0.4,0.4,0.6,0.9,0.6,1.6v2.8h-1.3v-0.6
							c-0.3,0.5-0.8,0.7-1.5,0.7c-0.4,0-0.7-0.1-1-0.2c-0.3-0.1-0.5-0.3-0.6-0.5s-0.2-0.5-0.2-0.8c0-0.5,0.2-0.8,0.5-1.1
							c0.3-0.3,0.9-0.4,1.6-0.4H25c0-0.3-0.1-0.5-0.3-0.7s-0.5-0.2-0.8-0.2s-0.5,0-0.8,0.1c-0.2,0.1-0.5,0.2-0.6,0.3l-0.5-1
							c0.3-0.2,0.6-0.3,0.9-0.4S23.7,28.6,24.1,28.6z M24,32.6c0.2,0,0.5-0.1,0.6-0.2c0.2-0.1,0.3-0.3,0.4-0.5v-0.5h-1
							c-0.6,0-0.9,0.2-0.9,0.6c0,0.2,0.1,0.3,0.2,0.4C23.5,32.6,23.7,32.6,24,32.6z M32.2,28.7L30,33.8c-0.2,0.6-0.5,1-0.8,1.2
							s-0.7,0.3-1.2,0.3c-0.3,0-0.5,0-0.7-0.1s-0.4-0.2-0.6-0.3l0.5-1c0.1,0.1,0.2,0.2,0.4,0.2s0.3,0.1,0.4,0.1c0.2,0,0.3,0,0.5-0.1
							c0.1-0.1,0.2-0.2,0.3-0.5l0,0l-2.1-4.9h1.4l1.4,3.3l1.4-3.3C30.9,28.7,32.2,28.7,32.2,28.7z M34,29.3c0.2-0.2,0.4-0.4,0.7-0.5
							s0.6-0.2,1-0.2v1.3c-0.2,0-0.3,0-0.3,0c-0.4,0-0.7,0.1-0.9,0.3c-0.2,0.2-0.3,0.6-0.3,1v2.3h-1.4v-4.8H34V29.3z M38.6,33.6
							c-0.5,0-1-0.1-1.4-0.3s-0.7-0.5-0.9-0.9S36,31.6,36,31.1s0.1-0.9,0.3-1.3s0.5-0.7,0.9-0.9c0.4-0.2,0.9-0.3,1.4-0.3
							s1,0.1,1.4,0.3c0.4,0.2,0.7,0.5,0.9,0.9s0.3,0.8,0.3,1.3s-0.1,0.9-0.3,1.3c-0.2,0.4-0.5,0.7-0.9,0.9
							C39.5,33.5,39.1,33.6,38.6,33.6z M38.6,32.4c0.4,0,0.7-0.1,0.9-0.4c0.2-0.2,0.3-0.6,0.3-1s-0.1-0.7-0.3-1
							c-0.2-0.2-0.5-0.4-0.9-0.4s-0.7,0.1-0.9,0.4c-0.2,0.2-0.4,0.6-0.4,1s0.1,0.7,0.4,1S38.2,32.4,38.6,32.4z M42,26.8h1.4v6.7H42
							V26.8z M44.5,26.8h1.4v6.7h-1.4V26.8z"/>
					</g>
				</g>
			</g>
			<g id="Group" transform="translate(104.000000, 173.000000)">
				<g>
					<g>
						<circle id="path-20" cx="46" cy="46" r="46"/>
					</g>
					
						<linearGradient id="SVGID_1_" gradientUnits="userSpaceOnUse" x1="-499.7032" y1="4.9986" x2="-500.6464" y2="5.9803" gradientTransform="matrix(89 0 0 89 44561.5 -442.4991)">
						<stop  offset="0" style="stop-color:#92FECB"/>
						<stop  offset="1" style="stop-color:#00DBFF"/>
					</linearGradient>
					<circle class="st9" cx="46" cy="46" r="44.5"/>
					<circle class="st10" cx="46" cy="46" r="48"/>
				</g>
				<path class="st11" d="M32.2,46.9c-0.5-0.3-1.1-0.1-1.4,0.4l-1.7,3c0,0.1-0.1,0.1-0.2,0l-6.7-11.3c0-0.1-0.1-0.1-0.2-0.1l-6.7,0
					c-0.1,0-0.2,0.1-0.2,0.2c0,0.6,0.5,1,1,1h4.1c0.1,0,0.1,0.1,0.1,0.2l-6.6,11.2c0,0.1,0,0.2,0,0.2l0.4,0.7l2.2,3.8
					c0,0.1,0.1,0.1,0.2,0.1c0,0,0.1,0,0.1,0c0.5-0.3,0.7-0.9,0.4-1.4l-1.4-2.4c0-0.1,0-0.2,0.1-0.2h13.4c0.1,0,0.2,0,0.2-0.1l2.9-5
					c0,0,0-0.1,0-0.1C32.3,47,32.3,47,32.2,46.9z M27.5,51.1H15.8c-0.2,0-0.4-0.3-0.3-0.5l5.8-9.9c0.1-0.2,0.4-0.2,0.5,0l5.8,9.9
					C27.9,50.9,27.7,51.1,27.5,51.1z"/>
				<linearGradient id="SVGID_2_" gradientUnits="userSpaceOnUse" x1="13.7271" y1="53.502" x2="28.7274" y2="53.502">
					<stop  offset="0" style="stop-color:#18D4E0"/>
					<stop  offset="1" style="stop-color:#1CD6DB"/>
				</linearGradient>
				<path class="st12" d="M17,54.9c0.3,0.5,0.1,1.1-0.4,1.4c0,0-0.1,0-0.1,0c-0.1,0-0.1,0-0.2-0.1l-2.2-3.8l-0.4-0.7
					c0-0.1,0-0.2,0-0.2l0.2-0.3h13.6c0.2,0,0.4-0.2,0.3-0.4l1,1.6h-13c-0.1,0-0.1,0.1-0.1,0.2L17,54.9z"/>
				<linearGradient id="SVGID_3_" gradientUnits="userSpaceOnUse" x1="21.67" y1="45.5857" x2="32.3272" y2="45.5857">
					<stop  offset="0" style="stop-color:#0CCEC7"/>
					<stop  offset="1" style="stop-color:#25DAE5"/>
				</linearGradient>
				<path class="st13" d="M32.3,47.1c0,0,0,0.1,0,0.1l-2.9,5c0,0.1-0.1,0.1-0.2,0.1h-0.5l-1-1.6l-2.8-4.9l-3-5.1
					c-0.1-0.1-0.2-0.2-0.3-0.2v-1.8H22c0.1,0,0.2,0,0.2,0.1l6.7,11.3c0,0.1,0.1,0.1,0.2,0l1.7-3c0.3-0.5,0.9-0.7,1.4-0.4
					C32.3,47,32.3,47,32.3,47.1z"/>
				<linearGradient id="SVGID_4_" gradientUnits="userSpaceOnUse" x1="13.9229" y1="44.9865" x2="21.6683" y2="44.9865">
					<stop  offset="0" style="stop-color:#53F87E"/>
					<stop  offset="1" style="stop-color:#0CCEC7"/>
				</linearGradient>
				<path class="st14" d="M21.7,38.8v1.8c-0.1,0-0.2,0-0.3,0.1c0,0,0,0,0,0L16,49.9l-0.5,0.8c-0.1,0.2,0,0.5,0.3,0.5h-1.9l6.4-10.9
					c0-0.1,0-0.2-0.1-0.2h-4.1c-0.6,0-1-0.5-1-1c0-0.1,0.1-0.2,0.2-0.2H21.7z"/>
				<path class="st15" d="M76.5,46c0.3-1,0.6-1.9,0.9-2.9c0.4-1.2,0.8-2.5,1.2-3.7c0.1-0.2,0.1-0.4,0.3-0.4c0.2,0,0.4-0.1,0.5,0
					c0.2,0.1,0,0.3-0.1,0.4c-0.8,2.4-1.6,4.7-2.4,7.1c-0.1,0.2-0.1,0.5-0.5,0.5c-0.3,0-0.4-0.2-0.5-0.5c-0.7-2.2-1.5-4.3-2.2-6.5
					c-0.1,0.1-0.1,0.3-0.2,0.4c-0.7,2-1.4,4.1-2.1,6.1c-0.1,0.3-0.2,0.5-0.5,0.5c-0.2,0-0.3-0.1-0.4-0.3c-0.8-2.5-1.7-5-2.5-7.5
					c0-0.1-0.2-0.3,0.1-0.3c0.2,0,0.5-0.1,0.7,0.1c0.1,0.1,0.1,0.3,0.1,0.4c0.7,2.1,1.3,4.2,2,6.3c0,0,0,0,0.1,0.1
					c0.1-0.1,0.1-0.2,0.2-0.4c0.7-2.1,1.4-4.1,2.1-6.2c0.1-0.2,0.1-0.5,0.5-0.5c0.4,0,0.4,0.2,0.5,0.5c0.7,2,1.3,4.1,2,6.1
					C76.3,45.7,76.4,45.8,76.5,46z"/>
				<path class="st15" d="M61.5,42.7c0.9,0,1.7,0,2.6,0h2.1c1,0,1,0,0.8-1c-0.2-1.4-0.9-2.4-2.2-2.7c-1.3-0.4-2.9,0.1-3.6,1.1
					c-1.1,1.5-1.1,3.1-0.5,4.8c0.9,2.3,4.2,3,6,1.3c0.1-0.1,0.3-0.2,0.1-0.4c-0.1-0.2-0.3-0.2-0.5-0.1c-0.2,0.1-0.3,0.2-0.5,0.3
					c-2.1,1.2-4.3,0.2-4.7-2.1c0-0.3-0.1-0.6-0.1-0.9C61.1,42.8,61.2,42.7,61.5,42.7z M64.7,39.6c1,0.3,1.7,1.4,1.7,2.4
					c0,0.3-0.2,0.3-0.4,0.3c-0.8,0-1.5,0-2.3,0c-0.7,0-1.5,0-2.2,0c-0.2,0-0.4,0-0.3-0.3C61.4,40.2,63.1,39.1,64.7,39.6z"/>
				<path class="st15" d="M44.7,42.7c0.9,0,1.7,0,2.6,0c0.9,0,1.7,0,2.6,0c0.3,0,0.4-0.1,0.4-0.4c0.1-1.5-0.8-2.9-2.1-3.3
					c-1.5-0.5-3.3,0.2-4,1.5c-0.5,0.9-0.6,1.9-0.5,2.9c0.1,1.5,0.6,2.7,2.1,3.4c1.4,0.6,2.8,0.4,4.1-0.5c0.2-0.1,0.4-0.2,0.2-0.5
					c-0.2-0.3-0.4-0.2-0.6,0c-0.3,0.2-0.7,0.4-1.1,0.5C46.4,47,44.8,46,44.4,44c-0.1-0.3-0.1-0.6-0.1-0.9
					C44.2,42.8,44.4,42.7,44.7,42.7z M47.7,39.5c1.3,0.3,1.7,1.5,1.8,2.4c0,0.2-0.1,0.3-0.3,0.3c-0.8,0-1.5,0-2.3,0
					c-0.8,0-1.5,0-2.3,0c-0.2,0-0.3,0-0.3-0.3C44.5,40.2,46.1,39.1,47.7,39.5z"/>
				<path class="st15" d="M53.2,40.3c0.1-0.1,0.2-0.3,0.3-0.4c0.8-0.8,1.8-1.1,2.9-1c1.2,0.1,2,1.1,2.1,2.5c0.1,1.8,0,3.6,0,5.4
					c0,0.3-0.2,0.3-0.4,0.3c-0.3,0-0.4-0.1-0.4-0.4c0-1.5,0-3,0-4.4c0-0.3,0-0.6,0-0.8c-0.2-1.5-1.3-2.2-2.8-1.8
					c-0.7,0.2-1.3,0.7-1.8,1.2C53,41,53,41.2,53,41.4c0,1.7,0,3.4,0,5.2c0,0.3,0,0.5-0.4,0.5c-0.4,0-0.4-0.2-0.4-0.5
					c0-2.4,0-4.8,0-7.1c0-0.2-0.1-0.4,0.2-0.4c0.3,0,0.4,0.1,0.4,0.4c0,0.3,0,0.5,0.1,0.8C53.1,40.3,53.1,40.3,53.2,40.3z"/>
				<path class="st15" d="M38.5,40.7c0.2-0.3,0.3-0.5,0.5-0.7c0.7-1,1.8-1.4,3-1c0.3,0.1,0.4,0.3,0.3,0.6c-0.1,0.3-0.3,0.2-0.5,0.2
					c-1.7-0.5-3.3,0.7-3.3,2.5c0,1.4,0,2.9,0,4.3c0,0.3,0,0.5-0.4,0.5c-0.4,0-0.4-0.2-0.4-0.5c0-2.4,0-4.8,0-7.2
					c0-0.2-0.1-0.4,0.3-0.4c0.3,0,0.4,0.1,0.4,0.4C38.4,39.8,38.4,40.3,38.5,40.7z"/>
				<path class="st15" d="M46.3,51.5c0.3-0.6,0.5-1,0.7-1.5c0.1-0.3,0.4-0.3,0.6-0.3c0.3,0,0.2,0.3,0.2,0.4c0,0.9,0,1.7,0,2.6
					c0,0.2,0,0.4-0.3,0.3c-0.3,0-0.2-0.2-0.2-0.3c0-0.7,0-1.4,0-2.3c-0.3,0.5-0.5,1-0.7,1.4c-0.1,0.1-0.1,0.3-0.3,0.3
					c-0.2,0-0.3-0.2-0.3-0.3c-0.2-0.4-0.4-0.9-0.6-1.4c-0.1,0.4-0.1,0.7-0.1,1.1c0,0.4,0,0.8,0,1.2c0,0.2,0,0.3-0.2,0.3
					c-0.2,0-0.2-0.1-0.2-0.3c0-0.9,0-1.8,0-2.7c0-0.1-0.1-0.3,0.2-0.4c0.2,0,0.5-0.1,0.6,0.2C45.8,50.4,46,50.9,46.3,51.5z"/>
				<path class="st15" d="M42.9,49.8c-0.5-0.1-0.9-0.1-1.4-0.1c-0.3,0-0.3,0.1-0.3,0.3c0,0.9,0,1.8,0,2.7c0,0.3,0.1,0.4,0.4,0.4h0.3
					c0.3,0,0.7,0,1-0.1c0.8-0.2,1.2-0.8,1.2-1.6C44.1,50.6,43.7,50,42.9,49.8z M41.9,52.7c-0.2-0.1-0.1-0.2-0.1-0.3c0-0.3,0-0.6,0-1
					c0-0.3,0-0.6,0-0.9c0-0.2,0.1-0.3,0.3-0.3c1,0,1.6,0.4,1.5,1.4C43.6,52.3,42.6,52.9,41.9,52.7z"/>
				<path class="st15" d="M52.7,52.1c0-0.7,0-1.3,0-2c0-0.2-0.1-0.4,0.2-0.4c0.3,0,0.2,0.3,0.2,0.4c0,0.9,0,1.7,0,2.6
					c0,0.1,0.1,0.4-0.2,0.4c-0.2,0-0.4,0-0.5-0.2c-0.4-0.8-0.8-1.5-1.2-2.3c0-0.1-0.1-0.1-0.2-0.3c0,0.9,0,1.6,0,2.3
					c0,0.2,0.1,0.4-0.2,0.4c-0.3,0-0.2-0.3-0.2-0.4c0-0.8,0-1.6,0-2.5c0-0.2-0.1-0.4,0.2-0.5c0.3,0,0.6-0.1,0.7,0.3
					c0.3,0.6,0.6,1.2,0.9,1.8C52.5,51.9,52.5,52,52.7,52.1C52.6,52.1,52.7,52.1,52.7,52.1z"/>
				<path class="st15" d="M78.9,53.1c-0.3,0-0.4-0.1-0.6-0.3c-0.4-0.7-0.7-1.4-1.1-2.1c0-0.1-0.1-0.2-0.3-0.3v1c0,0.5,0,1,0,1.5
					c0,0.1,0,0.3-0.2,0.3c-0.2,0-0.2-0.1-0.2-0.2c0-1,0-1.9,0-2.9c0-0.1,0-0.2,0.2-0.2c0.2,0,0.4-0.1,0.6,0.1
					c0.4,0.8,0.8,1.6,1.3,2.3v-2.4c0.3-0.1,0.5,0,0.4,0.4c0,0.8,0,1.7,0,2.5C79.1,52.8,79.3,53.1,78.9,53.1z"/>
				<path class="st15" d="M64.7,53c-0.4-0.2-0.6-0.7-1-1c-0.2-0.2-0.3-0.4,0-0.6c0.4-0.2,0.4-0.7,0.3-1c-0.1-0.4-0.4-0.5-0.7-0.6
					c-0.4-0.1-0.9,0-1.3,0c-0.2,0-0.2,0.1-0.2,0.3c0,1,0,1.9,0,2.9c0,0.2,0.1,0.2,0.2,0.2c0.2,0,0.3-0.1,0.3-0.3c0-0.2,0-0.4,0-0.6
					c0-0.2-0.1-0.4,0.1-0.4c0.2-0.1,0.5-0.1,0.6,0.2c0.2,0.2,0.4,0.4,0.6,0.7C63.9,53.1,64.3,53.2,64.7,53
					C64.8,53.1,64.8,53.1,64.7,53C64.8,53,64.8,53,64.7,53z M62.7,51.4c-0.7,0-0.3-0.5-0.4-0.8c-0.1-0.3,0.1-0.5,0.4-0.4
					c0.6,0,0.9,0.2,0.9,0.6C63.6,51.2,63.3,51.4,62.7,51.4z"/>
				<path class="st15" d="M75.2,49.9c-0.1-0.1-0.2-0.1-0.3-0.1c-1.2-0.3-2.1,0.4-2.1,1.7c0,0.7,0.2,1.3,0.9,1.6
					c0.8,0.4,1.7,0.1,2.1-0.6C76.2,51.5,75.9,50.3,75.2,49.9z M75.3,52.2c-0.2,0.4-0.5,0.6-0.9,0.6c-0.4,0-0.7-0.2-0.9-0.6
					c-0.2-0.5-0.2-1,0-1.5c0.2-0.4,0.5-0.5,0.9-0.6c0.4,0,0.7,0.2,0.9,0.5c0.1,0.2,0.2,0.5,0.2,0.8C75.4,51.7,75.4,51.9,75.3,52.2z"
					/>
				<path class="st15" d="M58.2,50.5c-0.3-0.1-0.6-0.3-0.9-0.3c-0.2,0-0.5,0-0.7,0.1c-0.2,0.1-0.4,0.2-0.4,0.5
					c0,0.3,0.2,0.4,0.4,0.4c0.3,0.1,0.7,0.1,1,0.2c0.3,0.1,0.6,0.3,0.7,0.7c0.1,0.4-0.1,0.8-0.4,1c-0.7,0.4-1.4,0.3-2,0
					c-0.3-0.1-0.1-0.4-0.1-0.6c0.3,0.1,0.5,0.3,0.8,0.3c0.1,0,0.3,0.1,0.4,0.1c0.5,0,0.8-0.2,0.9-0.5c0-0.5-0.4-0.5-0.7-0.6
					c-0.2-0.1-0.5-0.1-0.7-0.1c-0.4-0.1-0.7-0.3-0.7-0.8c0-0.5,0.2-0.8,0.6-0.9c0.6-0.3,1.1-0.1,1.7,0
					C58.4,49.9,58.2,50.2,58.2,50.5z"/>
				<path class="st15" d="M39.6,49.9c-0.1-0.2-0.2-0.2-0.4-0.2c-0.1,0-0.3,0-0.4,0.2c-0.4,1-0.7,2-1.1,3c-0.1,0.2,0,0.2,0.2,0.2
					c0.3,0,0.4-0.2,0.4-0.4c0.1-0.4,0.3-0.6,0.7-0.5c0.1,0,0.2,0,0.3,0c0.4-0.1,0.7,0.1,0.8,0.5c0.1,0.4,0.3,0.5,0.7,0.3
					C40.4,52,40,51,39.6,49.9z M38.7,51.7c0.2-0.5,0.3-0.9,0.5-1.3c0,0,0.1,0,0.1,0c0.2,0.4,0.3,0.9,0.5,1.3H38.7z"/>
				<path class="st15" d="M67.7,52.9c-0.4-1-0.7-2-1.1-3c-0.1-0.2-0.2-0.2-0.4-0.2c-0.1,0-0.3,0-0.4,0.2c-0.4,1-0.7,2.1-1.1,3.1
					c0,0,0,0.1,0,0.1c0.3,0.1,0.5,0,0.6-0.3c0.1-0.2,0-0.5,0.3-0.5c0.4,0,0.8-0.1,1.2,0c0.3,0.1,0.2,0.4,0.3,0.7
					c0,0.1,0,0.1,0.1,0.2c0.1,0.1,0.3,0.1,0.4,0.1C67.8,53.1,67.7,53,67.7,52.9z M65.7,51.7c0.2-0.5,0.3-0.9,0.5-1.5
					c0.2,0.6,0.4,1,0.5,1.5H65.7z"/>
				<path class="st15" d="M59.8,51.6c0-0.1,0-0.3,0-0.4c0-0.3,0.1-0.7-0.1-0.9c-0.2-0.2-0.6-0.1-0.9-0.1c-0.2,0-0.3,0-0.3-0.2
					c0-0.2,0.1-0.2,0.3-0.2c0.8,0,1.6,0,2.4,0c0.2,0,0.3,0.1,0.2,0.2c0,0.2-0.1,0.2-0.3,0.2c-0.3,0-0.7-0.2-0.9,0.1
					c-0.1,0.2-0.1,0.6-0.1,0.9c0,0.5,0,1.1,0,1.6c0,0.2,0,0.3-0.3,0.3c-0.2,0-0.2-0.2-0.2-0.3C59.8,52.4,59.8,52,59.8,51.6z"/>
				<path class="st15" d="M69.2,49.7c0.4,0,0.7,0,1.1,0c0.2,0,0.3,0,0.3,0.2c0,0.2-0.1,0.2-0.3,0.2c-0.9,0.1-0.9,0.1-0.9,1
					c0,0.6,0,1.1,0,1.7c0,0.2,0,0.3-0.2,0.3c-0.2,0-0.2-0.1-0.2-0.3c0-0.7,0-1.5,0-2.2c0-0.3-0.1-0.4-0.4-0.4c-0.2,0-0.3,0-0.5,0
					c-0.2,0-0.3,0-0.3-0.2c0-0.2,0.2-0.2,0.3-0.2C68.5,49.7,68.8,49.7,69.2,49.7z"/>
				<path class="st15" d="M49.2,53.1c-0.2,0-0.3,0-0.5,0c-0.1,0-0.2,0-0.2-0.2c0-0.1,0-0.2,0.2-0.2c0.3,0,0.3-0.2,0.3-0.4
					c0-0.6,0-1.2,0-1.7c0-0.2,0.1-0.5-0.3-0.5c-0.1,0-0.1-0.1-0.1-0.2c0-0.1,0.1-0.1,0.2-0.1c0.3,0,0.6,0,1,0c0.1,0,0.2,0,0.2,0.2
					c0,0.1-0.1,0.2-0.2,0.2c-0.2,0-0.3,0.1-0.3,0.3c0,0.7,0,1.3,0,2c0,0.2,0,0.3,0.2,0.3c0.2,0,0.2,0.1,0.2,0.2
					c0,0.2-0.1,0.1-0.2,0.1C49.5,53.1,49.3,53.1,49.2,53.1z"/>
				<path class="st15" d="M54.6,49.7c0.1,0,0.2,0,0.3,0c0.1,0,0.3-0.1,0.4,0.2c0,0.2-0.1,0.2-0.3,0.2c-0.2,0-0.2,0.2-0.2,0.3
					c0,0.7,0,1.3,0,2c0,0.2,0,0.3,0.3,0.3c0.1,0,0.2,0.1,0.2,0.2c0,0.1-0.1,0.2-0.2,0.2c-0.3,0-0.6,0-1,0c-0.1,0-0.2,0-0.2-0.1
					c0-0.1,0-0.2,0.2-0.2c0.3,0,0.3-0.2,0.3-0.4c0-0.6,0-1.3,0-1.9c0-0.2,0-0.3-0.2-0.3c-0.1,0-0.2-0.1-0.2-0.2
					c0-0.2,0.1-0.2,0.3-0.2C54.3,49.7,54.4,49.7,54.6,49.7z"/>
				<path class="st15" d="M71.5,53.1c-0.1,0-0.2,0-0.2,0c-0.1,0-0.4,0.1-0.4-0.1c-0.1-0.3,0.2-0.2,0.3-0.3c0.1,0,0.1-0.2,0.1-0.3
					c0-0.7,0-1.3,0-2c0-0.2,0-0.3-0.3-0.3c-0.2,0-0.2-0.1-0.2-0.2c0-0.2,0.1-0.1,0.2-0.1c0.3,0,0.6,0,0.9,0c0.1,0,0.3,0,0.3,0.2
					c0,0.1-0.1,0.2-0.2,0.2c-0.2,0-0.3,0.1-0.3,0.3c0,0.7,0,1.3,0,2c0,0.2,0,0.3,0.2,0.3c0.1,0,0.2,0,0.2,0.2c0,0.2-0.2,0.2-0.3,0.2
					C71.8,53.1,71.7,53.1,71.5,53.1z"/>
				<line class="st11" x1="41.9" y1="53.1" x2="41.6" y2="53.1"/>
			</g>
			<g id="Group-9-Copy-2" transform="translate(28.000000, 202.000000)">
				<g>
					<g>
						<circle id="path-22" class="st0" cx="34" cy="33" r="33"/>
					</g>
					<circle class="st1" cx="34" cy="33" r="36"/>
				</g>
				<g id="Oval-Copy-10">
					<g>
						<circle id="path-23" cx="34" cy="33" r="30.2"/>
					</g>
					<g>
						<circle class="st16" cx="34" cy="33" r="30.2"/>
					</g>
				</g>
				<path id="Reports" class="st3" d="M20.5,36l-1.2-1.8H18V36h-1.5v-6.3h2.7c0.6,0,1,0.1,1.5,0.3c0.4,0.2,0.7,0.4,0.9,0.8
					c0.2,0.3,0.3,0.7,0.3,1.2s-0.1,0.9-0.3,1.2c-0.2,0.3-0.5,0.6-1,0.8l1.4,2H20.5z M20.5,32c0-0.4-0.1-0.6-0.3-0.8
					c-0.2-0.2-0.6-0.3-1-0.3H18v2.2h1.2c0.4,0,0.8-0.1,1-0.3C20.4,32.6,20.5,32.4,20.5,32z M27.6,33.6c0,0,0,0.1,0,0.4h-3.7
					c0.1,0.3,0.2,0.5,0.5,0.7c0.2,0.2,0.6,0.3,0.9,0.3s0.5,0,0.7-0.1s0.4-0.2,0.5-0.4l0.7,0.8c-0.5,0.5-1.1,0.8-2,0.8
					c-0.5,0-1-0.1-1.4-0.3s-0.7-0.5-1-0.9s-0.3-0.8-0.3-1.3s0.1-0.9,0.3-1.3c0.2-0.4,0.5-0.7,0.9-0.9c0.4-0.2,0.8-0.3,1.3-0.3
					s0.9,0.1,1.3,0.3c0.4,0.2,0.7,0.5,0.9,0.9C27.5,32.7,27.6,33.1,27.6,33.6z M25.1,32.2c-0.3,0-0.6,0.1-0.8,0.3s-0.3,0.4-0.4,0.7
					h2.4c0-0.3-0.2-0.6-0.4-0.7C25.7,32.3,25.4,32.2,25.1,32.2z M31.3,31.1c0.5,0,0.9,0.1,1.2,0.3c0.4,0.2,0.7,0.5,0.9,0.9
					c0.2,0.4,0.3,0.8,0.3,1.3s-0.1,0.9-0.3,1.3c-0.2,0.4-0.5,0.7-0.9,0.9s-0.8,0.3-1.2,0.3c-0.6,0-1.1-0.2-1.5-0.6v2.3h-1.4v-6.6
					h1.3v0.6C30.1,31.3,30.6,31.1,31.3,31.1z M31,35c0.4,0,0.7-0.1,0.9-0.4c0.2-0.2,0.3-0.6,0.3-1s-0.1-0.7-0.3-1
					c-0.2-0.2-0.5-0.4-0.9-0.4s-0.7,0.1-0.9,0.4c-0.2,0.2-0.3,0.6-0.3,1s0.1,0.7,0.3,1C30.4,34.8,30.6,35,31,35z M36.7,36.1
					c-0.5,0-1-0.1-1.4-0.3s-0.7-0.5-0.9-0.9s-0.3-0.8-0.3-1.3s0.1-0.9,0.3-1.3s0.5-0.7,0.9-0.9s0.9-0.3,1.4-0.3s1,0.1,1.4,0.3
					c0.4,0.2,0.7,0.5,0.9,0.9c0.2,0.4,0.3,0.8,0.3,1.3s-0.1,0.9-0.3,1.3c-0.2,0.4-0.5,0.7-0.9,0.9S37.2,36.1,36.7,36.1z M36.7,35
					c0.4,0,0.7-0.1,0.9-0.4c0.2-0.2,0.3-0.6,0.3-1s-0.1-0.7-0.3-1c-0.2-0.2-0.5-0.4-0.9-0.4s-0.7,0.1-0.9,0.4
					c-0.2,0.2-0.4,0.6-0.4,1s0.1,0.7,0.4,1C36.1,34.8,36.4,35,36.7,35z M41.5,31.8c0.2-0.2,0.4-0.4,0.7-0.5s0.6-0.2,1-0.2v1.3
					c-0.2,0-0.3,0-0.3,0c-0.4,0-0.7,0.1-0.9,0.3s-0.3,0.6-0.3,1V36h-1.4v-4.8h1.3L41.5,31.8L41.5,31.8z M47.1,35.8
					C47,35.9,46.8,36,46.6,36s-0.4,0.1-0.6,0.1c-0.6,0-1-0.1-1.3-0.4c-0.3-0.3-0.5-0.7-0.5-1.3v-2h-0.7v-1.1h0.7v-1.2h1.4v1.2h1.2
					v1.1h-1.2v2c0,0.2,0.1,0.4,0.2,0.5S46,35,46.2,35s0.4-0.1,0.6-0.2L47.1,35.8z M49.4,36.1c-0.4,0-0.8,0-1.2-0.1s-0.7-0.2-0.9-0.4
					l0.5-1c0.2,0.1,0.5,0.3,0.8,0.3c0.3,0.1,0.6,0.1,0.9,0.1c0.6,0,0.9-0.1,0.9-0.4c0-0.1-0.1-0.2-0.2-0.3c-0.2-0.1-0.4-0.1-0.7-0.2
					c-0.4-0.1-0.7-0.1-1-0.2c-0.3-0.1-0.5-0.2-0.7-0.4s-0.3-0.5-0.3-0.8s0.1-0.6,0.3-0.8s0.4-0.4,0.8-0.6s0.7-0.2,1.2-0.2
					c0.3,0,0.7,0,1,0.1s0.6,0.2,0.8,0.3l-0.5,1c-0.4-0.2-0.9-0.4-1.4-0.4c-0.3,0-0.5,0-0.7,0.1s-0.2,0.2-0.2,0.3
					c0,0.2,0.1,0.3,0.2,0.3c0.2,0.1,0.4,0.1,0.8,0.2c0.4,0.1,0.7,0.1,1,0.2s0.5,0.2,0.7,0.4s0.3,0.5,0.3,0.8s-0.1,0.6-0.3,0.8
					s-0.4,0.4-0.8,0.5C50.3,36,49.9,36.1,49.4,36.1z"/>
			</g>
			<g id="Group-9-Copy-3" transform="translate(204.000000, 202.000000)">
				<g>
					<g>
						<circle id="path-25" class="st0" cx="34" cy="33" r="33"/>
					</g>
					<circle class="st1" cx="34" cy="33" r="36"/>
				</g>
				<g>
					<g>
						<circle id="path-26" cx="34" cy="33" r="30.2"/>
					</g>
					<g>
						<circle class="st16" cx="34" cy="33" r="30.2"/>
					</g>
				</g>
				<path id="BAS" class="st3" d="M29.6,33.8c0.4,0.1,0.6,0.3,0.8,0.6c0.2,0.3,0.3,0.6,0.3,1c0,0.6-0.2,1-0.6,1.3s-1.1,0.4-1.9,0.4
					H25v-6.3h3.1c0.8,0,1.4,0.1,1.8,0.4s0.6,0.7,0.6,1.2c0,0.3-0.1,0.6-0.2,0.8C30.1,33.4,29.9,33.6,29.6,33.8z M26.4,31.8v1.5h1.4
					c0.4,0,0.6-0.1,0.8-0.2s0.3-0.3,0.3-0.6s-0.1-0.4-0.3-0.6c-0.2-0.1-0.5-0.2-0.8-0.2h-1.4V31.8z M28.1,35.9
					c0.4,0,0.7-0.1,0.9-0.2c0.2-0.1,0.3-0.3,0.3-0.6c0-0.5-0.4-0.8-1.2-0.8h-1.7v1.6H28.1z M35.9,35.7H33L32.4,37h-1.5l2.8-6.3h1.4
					l2.8,6.3h-1.5L35.9,35.7z M35.4,34.6l-1-2.4l-1,2.4H35.4z M40.5,37.1c-0.5,0-1-0.1-1.4-0.2c-0.5-0.1-0.8-0.3-1.1-0.5l0.5-1.1
					c0.3,0.2,0.6,0.4,1,0.5s0.7,0.2,1.1,0.2c0.4,0,0.7-0.1,0.9-0.2s0.3-0.3,0.3-0.5s-0.1-0.3-0.2-0.4c-0.1-0.1-0.3-0.2-0.5-0.2
					c-0.2-0.1-0.4-0.1-0.7-0.2c-0.5-0.1-0.9-0.2-1.2-0.3s-0.6-0.3-0.8-0.5c-0.2-0.3-0.3-0.6-0.3-1s0.1-0.7,0.3-1s0.5-0.5,0.9-0.7
					s0.9-0.3,1.5-0.3c0.4,0,0.8,0,1.2,0.1s0.7,0.2,1,0.4l-0.5,1.1c-0.6-0.3-1.2-0.5-1.7-0.5c-0.4,0-0.7,0.1-0.9,0.2
					c-0.2,0.1-0.3,0.3-0.3,0.5s0.1,0.4,0.3,0.5s0.6,0.2,1,0.3c0.5,0.1,0.9,0.2,1.2,0.3s0.6,0.3,0.8,0.5s0.3,0.6,0.3,1
					s-0.1,0.7-0.3,1s-0.5,0.5-0.9,0.7C41.6,37.1,41.1,37.1,40.5,37.1z"/>
			</g>
			<g id="Group-126" transform="translate(67.000000, 286.000000)">
				<path id="Fill-1" class="st17" d="M23,81.1c0-33.7,27.1-61,60.5-61s60.5,27.3,60.5,61"/>
				<g id="Group-5" transform="translate(0.000000, 81.069767)">
					<g id="Clip-4">
					</g>
					<path id="Stroke-3" class="st18" d="M0,0.5h166.9"/>
				</g>
				<g id="Group-9" transform="translate(83.000000, 0.069767)">
					<path id="Fill-6" class="st7" d="M0.5,16V0.3"/>
					<path id="Stroke-8" class="st19" d="M0.5,16V0.3"/>
				</g>
				<g id="Group-13" transform="translate(72.000000, 9.069767)">
					<path id="Fill-10" class="st7" d="M1.7,6.9L0.3,0.1"/>
					<path id="Stroke-12" class="st19" d="M1.7,6.9L0.3,0.1"/>
				</g>
				<g id="Group-17" transform="translate(60.000000, 4.069767)">
					<path id="Fill-14" class="st7" d="M4.7,14.7L0.1,0.3"/>
					<path id="Stroke-16" class="st19" d="M4.7,14.7L0.1,0.3"/>
				</g>
				<g id="Group-21" transform="translate(53.000000, 14.069767)">
					<path id="Fill-18" class="st7" d="M2.8,6.9L0.2,0.1"/>
					<path id="Stroke-20" class="st19" d="M2.8,6.9L0.2,0.1"/>
				</g>
				<g id="Group-25" transform="translate(40.000000, 14.069767)">
					<path id="Fill-22" class="st7" d="M8,11.8L0.2,0"/>
					<path id="Stroke-24" class="st19" d="M8,11.8L0.2,0"/>
				</g>
				<g id="Group-29" transform="translate(36.000000, 26.069767)">
					<path id="Fill-26" class="st7" d="M4.7,6L0,0.1"/>
					<path id="Stroke-28" class="st19" d="M4.7,6L0,0.1"/>
				</g>
				<g id="Group-33" transform="translate(23.000000, 29.069767)">
					<path id="Fill-30" class="st7" d="M10.7,9.9L0.1,0.1"/>
					<path id="Stroke-32" class="st19" d="M10.7,9.9L0.1,0.1"/>
				</g>
				<g id="Group-37" transform="translate(22.000000, 41.069767)">
					<path id="Fill-34" class="st7" d="M6.8,4.7L0.1,0"/>
					<path id="Stroke-36" class="st19" d="M6.8,4.7L0.1,0"/>
				</g>
				<g id="Group-41" transform="translate(11.000000, 47.069767)">
					<path id="Fill-38" class="st7" d="M13.8,6.7L0,0.1"/>
					<path id="Stroke-40" class="st19" d="M13.8,6.7L0,0.1"/>
				</g>
				<g id="Group-45" transform="translate(13.000000, 60.069767)">
					<path id="Fill-42" class="st7" d="M6.8,1.8L0.3,0.2"/>
					<path id="Stroke-44" class="st19" d="M6.8,1.8L0.3,0.2"/>
				</g>
				<g id="Group-49" transform="translate(4.000000, 69.069767)">
					<path id="Fill-46" class="st7" d="M14.8,1.8L0,0.1"/>
					<path id="Stroke-48" class="st19" d="M14.8,1.8L0,0.1"/>
				</g>
				<g id="Group-53" transform="translate(93.000000, 10.069767)">
					<path id="Fill-50" class="st7" d="M0.4,6.7l1.4-6.6"/>
					<path id="Stroke-52" class="st19" d="M0.4,6.7l1.4-6.6"/>
				</g>
				<g id="Group-57" transform="translate(103.000000, 4.069767)">
					<path id="Fill-54" class="st7" d="M0.3,14.7L5,0.2"/>
					<path id="Stroke-56" class="st19" d="M0.3,14.7L5,0.2"/>
				</g>
				<g id="Group-61" transform="translate(113.000000, 16.069767)">
					<path id="Fill-58" class="st7" d="M0,6.8l2.8-6.6"/>
					<path id="Stroke-60" class="st19" d="M0,6.8l2.8-6.6"/>
				</g>
				<g id="Group-65" transform="translate(121.000000, 16.069767)">
					<path id="Fill-62" class="st7" d="M0,11.7L8.9,0.1"/>
					<path id="Stroke-64" class="st19" d="M0,11.7L8.9,0.1"/>
				</g>
				<g id="Group-69" transform="translate(128.000000, 29.069767)">
					<path id="Fill-66" class="st7" d="M0.3,5.7l5.5-5.5"/>
					<path id="Stroke-68" class="st19" d="M0.3,5.7l5.5-5.5"/>
				</g>
				<g id="Group-73" transform="translate(135.000000, 34.069767)">
					<path id="Fill-70" class="st7" d="M0.2,8.7L11.8,0"/>
					<path id="Stroke-72" class="st19" d="M0.2,8.7L11.8,0"/>
				</g>
				<g id="Group-77" transform="translate(141.000000, 48.069767)">
					<path id="Fill-74" class="st7" d="M0.1,3l6.6-2.8"/>
					<path id="Stroke-76" class="st19" d="M0.1,3l6.6-2.8"/>
				</g>
				<g id="Group-81" transform="translate(144.000000, 56.069767)">
					<path id="Fill-78" class="st7" d="M0.1,4.8L15,0.3"/>
					<path id="Stroke-80" class="st19" d="M0.1,4.8L15,0.3"/>
				</g>
				<g id="Group-85" transform="translate(148.000000, 69.069767)">
					<path id="Fill-82" class="st7" d="M0.1,1.7l6.8-1.6"/>
					<path id="Stroke-84" class="st19" d="M0.1,1.7l6.8-1.6"/>
				</g>
				<polygon id="Fill-86" class="st20" points="36.8,81.1 30,81.1 39.2,66.1 46,66.1 				"/>
				<polygon id="Fill-88" class="st20" points="87.2,81.1 94,81.1 84.8,66.1 78,66.1 				"/>
				<polygon id="Fill-90" class="st20" points="26.3,36.1 22,36.1 32.7,59.1 37,59.1 				"/>
				<polygon id="Fill-92" class="st21" points="72,59.1 37.6,59.1 27,36.1 61.4,36.1 				"/>
				<g id="Clip-95">
				</g>
				<polygon id="Fill-94" class="st21" points="108,66.1 124,66.1 124,58.1 108,58.1 				"/>
				<polygon id="Stroke-96" class="st22" points="108,66.1 124,66.1 124,58.1 108,58.1 				"/>
				<polygon id="Fill-97" class="st7" points="21,66.1 107,66.1 107,58.1 21,58.1 				"/>
				<polygon id="Stroke-98" class="st22" points="21,66.1 107,66.1 107,58.1 21,58.1 				"/>
				<polygon id="Fill-99" class="st23" points="76,8.1 47,26.9 47,33.1 63.4,33.1 				"/>
				<polygon id="Fill-100" class="st23" points="77,8.1 106,26.9 106,33.1 89.6,33.1 				"/>
				<polygon id="Fill-101" class="st7" points="64,33.1 89,33.1 76.5,8.1 				"/>
				<polygon id="Fill-102" class="st20" points="76,59.1 78,59.1 78,33.1 76,33.1 				"/>
				<path id="Stroke-103" class="st22" d="M48.5,32.1v2"/>
				<path id="Stroke-104" class="st22" d="M50.5,32.1v2"/>
				<path id="Stroke-105" class="st22" d="M53.5,32.1v2"/>
				<path id="Stroke-106" class="st22" d="M56.5,32.1v2"/>
				<path id="Stroke-107" class="st22" d="M58.5,32.1v2"/>
				<path id="Stroke-108" class="st22" d="M60.5,32.1v2"/>
				<path id="Stroke-109" class="st22" d="M63.5,32.1v2"/>
				<path id="Stroke-110" class="st22" d="M67.5,32.1v2"/>
				<path id="Stroke-111" class="st22" d="M68.5,32.1v2"/>
				<path id="Stroke-112" class="st22" d="M72.5,32.1v2"/>
				<path id="Stroke-113" class="st22" d="M75.5,32.1v2"/>
				<path id="Stroke-114" class="st22" d="M77.5,32.1v2"/>
				<path id="Stroke-115" class="st22" d="M81.5,32.1v2"/>
				<path id="Stroke-116" class="st22" d="M83.5,32.1v2"/>
				<path id="Stroke-117" class="st22" d="M85.5,32.1v2"/>
				<path id="Stroke-118" class="st22" d="M89.5,32.1v2"/>
				<path id="Stroke-119" class="st22" d="M91.5,32.1v2"/>
				<path id="Stroke-120" class="st22" d="M94.5,32.1v2"/>
				<path id="Stroke-121" class="st22" d="M98.5,32.1v2"/>
				<path id="Stroke-122" class="st22" d="M99.5,32.1v2"/>
				<path id="Stroke-123" class="st22" d="M102.5,32.1v2"/>
				<path id="Stroke-124" class="st22" d="M105.5,32.1v2"/>
				<path id="Stroke-125" class="st22" d="M106,32.6H48"/>
			</g>
			<path id="Client" class="st3" d="M135.4,389.7c-1,0-1.9-0.2-2.7-0.7s-1.4-1-1.9-1.8s-0.7-1.6-0.7-2.6s0.2-1.8,0.7-2.6
				c0.5-0.8,1.1-1.4,1.9-1.8c0.8-0.4,1.7-0.7,2.7-0.7c0.8,0,1.6,0.1,2.3,0.4s1.3,0.7,1.7,1.3l-1.5,1.3c-0.7-0.8-1.5-1.1-2.5-1.1
				c-0.6,0-1.1,0.1-1.6,0.4s-0.8,0.6-1.1,1.1s-0.4,1-0.4,1.6s0.1,1.1,0.4,1.6c0.3,0.5,0.6,0.8,1.1,1.1c0.5,0.3,1,0.4,1.6,0.4
				c1,0,1.8-0.4,2.5-1.2l1.5,1.3c-0.5,0.6-1,1-1.7,1.3S136.2,389.7,135.4,389.7z M140.5,379.1h2.2v10.4h-2.2V379.1z M144.5,382h2.2
				v7.5h-2.2V382z M145.6,380.9c-0.4,0-0.7-0.1-1-0.4s-0.4-0.5-0.4-0.9s0.1-0.6,0.4-0.9s0.6-0.4,1-0.4s0.7,0.1,1,0.3
				c0.3,0.2,0.4,0.5,0.4,0.8c0,0.4-0.1,0.7-0.4,0.9C146.3,380.8,146,380.9,145.6,380.9z M155.8,385.8c0,0,0,0.2,0,0.6h-5.7
				c0.1,0.5,0.3,0.8,0.7,1.1c0.4,0.3,0.9,0.4,1.4,0.4c0.4,0,0.7-0.1,1-0.2s0.6-0.3,0.8-0.6l1.2,1.3c-0.7,0.8-1.7,1.2-3.1,1.2
				c-0.8,0-1.6-0.2-2.3-0.5s-1.2-0.8-1.5-1.4c-0.4-0.6-0.5-1.3-0.5-2s0.2-1.4,0.5-2s0.8-1.1,1.4-1.4c0.6-0.3,1.3-0.5,2.1-0.5
				c0.7,0,1.4,0.2,2,0.5s1.1,0.8,1.4,1.4C155.6,384.3,155.8,385,155.8,385.8z M151.9,383.5c-0.5,0-0.9,0.1-1.2,0.4s-0.5,0.7-0.6,1.1
				h3.7c-0.1-0.5-0.3-0.9-0.6-1.1C152.8,383.7,152.4,383.5,151.9,383.5z M161.6,381.9c0.9,0,1.7,0.3,2.3,0.8
				c0.6,0.6,0.9,1.4,0.9,2.5v4.3h-2.2v-4c0-0.6-0.1-1-0.4-1.3c-0.3-0.3-0.6-0.4-1.1-0.4c-0.6,0-1,0.2-1.3,0.5s-0.5,0.8-0.5,1.5v3.7
				H157V382h2.1v0.9c0.3-0.3,0.6-0.6,1.1-0.7S161.1,381.9,161.6,381.9z M171.3,389.1c-0.2,0.2-0.5,0.3-0.8,0.4s-0.6,0.1-1,0.1
				c-0.9,0-1.6-0.2-2.1-0.7s-0.7-1.1-0.7-2v-3.1h-1.2v-1.7h1.2v-1.8h2.2v1.8h1.9v1.7h-1.9v3.1c0,0.3,0.1,0.6,0.2,0.7
				c0.2,0.2,0.4,0.3,0.7,0.3s0.6-0.1,0.9-0.3L171.3,389.1z"/>
			<g id="Group-47" transform="translate(0.000000, 33.000000)">
				<path id="Stroke-1" class="st24" d="M273.7,63.9c15.8,23.7,25,52.1,25,82.6c0,53.9-28.6,101.1-71.4,127.3"/>
				<path class="st24" d="M70.5,273.2C28.3,246.9,0.3,200,0.3,146.6c0-30.6,9.2-59.1,25-82.7"/>
				<polyline id="Stroke-5" class="st24" points="25.6,67 25.3,63.8 22,63.8 				"/>
				<path id="Stroke-7" class="st24" d="M182.8,1.1C198.1,3,209.8,8,223,17"/>
				<polyline id="Stroke-9" class="st24" points="222.5,13.9 223.1,17.1 219.9,18.1 				"/>
				<path id="Stroke-11" class="st24" d="M77,16.1c11.4-6.3,23.7-11.2,36.7-14.4"/>
				<polyline id="Stroke-13" class="st24" points="110.8,0.2 113.7,1.6 112.6,4.7 				"/>
				<path id="Stroke-15" class="st24" d="M149.5,128.8v6.2"/>
				<polyline id="Stroke-17" class="st24" points="147.2,132.8 149.5,135 152,132.8 				"/>
				<path id="Stroke-19" class="st24" d="M149.5,29.5v18.6"/>
				<polyline id="Stroke-21" class="st24" points="147.2,45.9 149.5,48.1 152,45.9 				"/>
				<path id="Stroke-23" class="st24" d="M95.4,194.2l5.9-1.6"/>
				<polyline id="Stroke-25" class="st24" points="99.8,195.4 101.3,192.5 98.5,190.7 				"/>
				<path id="Stroke-27" class="st24" d="M204.7,194.2l-5.9-1.6"/>
				<polyline id="Stroke-29" class="st24" points="200.3,195.4 198.8,192.5 201.6,190.7 				"/>
				<path id="Stroke-35" class="st24" d="M57,152l2.4,16.6"/>
				
					<g id="Group-3" transform="translate(240.500000, 160.500000) scale(-1, 1) translate(-240.500000, -160.500000) translate(238.000000, 152.000000)">
					<path id="Stroke-35-Copy" class="st24" d="M0,0l2.8,16.7"/>
					<polyline id="Stroke-37-Copy" class="st24" points="0,15 2.8,16.7 4.9,14 					"/>
				</g>
				<polyline id="Stroke-37" class="st24" points="57,167 59.8,168.7 61.9,166 				"/>
				<g id="Group-6" transform="translate(247.000000, 69.000000)">
					<path id="Stroke-43" class="st24" d="M4.8,0c0,0-0.8,5.4-2.3,16.2"/>
					<polyline id="Stroke-45" class="st24" points="5.4,14.5 2.6,16.2 0.5,13.5 					"/>
				</g>
				
					<g id="Group-6-Copy" transform="translate(48.000000, 77.000000) scale(-1, 1) translate(-48.000000, -77.000000) translate(45.000000, 68.000000)">
					<path class="st24" d="M4.8,0.3L2.6,17.2"/>
					<polyline class="st24" points="5.4,15.5 2.6,17.2 0.5,14.5 					"/>
				</g>
			</g>
		</g>
	</g>
</g>
</svg>
