<svg height="209" width="179" xmlns="http://www.w3.org/2000/svg" xmlns:xlink="http://www.w3.org/1999/xlink"><mask id="a" fill="#fff"><path d="m0 .179h96.375v120.584h-96.375z" fill="none"/></mask><mask id="b" fill="#fff"><path d="m.954.33h77.903v51.403h-77.903z" fill="none"/></mask><mask id="c" fill="#fff"><path d="m.298.748h65.886v50.432h-65.886z" fill="none"/></mask><mask id="d" fill="#fff"><path d="m.458.317h54.252v115.683h-54.252z" fill="none"/></mask><g fill="none" fill-rule="evenodd"><path d="m48.187 60.471 41.12-25.1.004.004c-8.469-18.69-23.718-35.197-41.124-35.197-26.613 0-48.187 38.587-48.187 64.566 0 25.98 21.575 56.02 48.188 56.02s48.188-30.04 48.188-56.02c0-1.39-.066-2.818-.187-4.273h-48z" fill="#e1f3fd" mask="url(#a)" transform="translate(34 -.179)"/><path d="m82.187 173.5v-138.308m0 48.715 39.064 11.293m-39.064-23.696-46.422-20.918m46.422 43.949-35.76 5.605" stroke="#243746"/><path d="m.954 28.255 77.547-27.925s5.903 36.172-30.334 48.61c-36.237 12.437-47.213-20.685-47.213-20.685" fill="#e1f3fd" mask="url(#b)" transform="translate(100 78.141)"/><path d="m78.48 185.004 22.475-78.607 77.547-27.927m-21.942 7.902 19.11 15.467m-39.152-8.249 11.649 33.49m-23.727-29.142-2.115 30.272" stroke="#243746"/><path d="m41.316 48.498c-17.636 6.243-35.546 1.214-40.006-11.232-4.458-12.444 6.223-27.595 23.858-33.836 17.634-6.243 35.545-1.214 40.002 11.23 4.46 12.446-6.22 27.595-23.855 33.838" fill="#5ef288" mask="url(#c)" transform="matrix(-1 0 0 1 67 73)"/><path d="m.458 116v-92.89l54.252-22.793" mask="url(#d)" stroke="#243746" transform="matrix(-1 0 0 1 75 93)"/></g></svg>