<svg width="52" height="52" xmlns="http://www.w3.org/2000/svg">
  <g transform="translate(1 1)" fill="none" fill-rule="evenodd">
    <g fill="#5C8098">
      <path d="M36 16.306c0-.888-.736-1.615-1.636-1.615H22.27a.553.553 0 0 1-.387-.156l-2.09-2.061A1.646 1.646 0 0 0 18.639 12h-5.002c-.905 0-1.636.727-1.636 1.615V19h24v-2.694zM31.636 23.65c1.623 0 3.126.49 4.364 1.32V20H12v10.435C12 31.3 12.73 32 13.636 32h10.451A6.938 6.938 0 0 1 24 30.956c0-4.028 3.425-7.305 7.636-7.305"/>
      <path d="M34.76 32.044h-5.212l1.252 1.252a.541.541 0 1 1-.766.766l-2.176-2.176a.542.542 0 0 1 0-.767l2.176-2.176a.542.542 0 0 1 .766.766l-1.252 1.252h5.212a.542.542 0 1 1 0 1.083M31.5 25c-3.586 0-6.5 2.92-6.5 6.5 0 3.586 2.914 6.5 6.5 6.5s6.5-2.914 6.5-6.5c0-3.58-2.914-6.5-6.5-6.5"/>
    </g>
  </g>
</svg>
