<svg width="52" height="52" xmlns="http://www.w3.org/2000/svg"><path d="M13 32.672v1.62c0 2.656 4.031 4.808 9 4.808 1.4 0 2.716-.178 3.897-.483a10.29 10.29 0 0 1-3.033-2.983c-.285.014-.572.032-.864.032-2.75 0-5.249-.603-7.112-1.61-.729-.394-1.373-.853-1.888-1.384zm.01-4.121v1.406c.099 1.011.935 2.05 2.46 2.876 2.26 1.18 4.61 1.443 6.64 1.46a11.09 11.09 0 0 1-.894-2.77c-2.437-.103-4.645-.678-6.328-1.588-.727-.393-1.364-.855-1.878-1.384zm0-4.121v1.406c.099 1.011.935 2.05 2.46 2.876 1.427.77 3.39 1.316 5.586 1.438a11.4 11.4 0 0 1 .171-2.747c-2.443-.103-4.653-.678-6.339-1.589-.727-.393-1.364-.855-1.878-1.384zm0-4.121v1.406c.099 1.01.935 2.05 2.46 2.876 1.536.83 3.697 1.387 6.098 1.449a10.92 10.92 0 0 1 1.336-2.759c-.298.016-.599.022-.904.022-2.75 0-5.249-.592-7.112-1.6a7.762 7.762 0 0 1-1.878-1.394zm17.99-.44c-4.97 0-9 4.305-9 9.615 0 5.311 4.03 9.616 9 9.616s9-4.305 9-9.616c0-5.31-4.03-9.615-9-9.615zM22 13c-4.815 0-8.749 2.02-8.99 4.561.135 1.423 1.545 2.41 2.46 2.92 1.629.88 3.955 1.459 6.53 1.459.727 0 1.433-.053 2.11-.14 1.674-1.714 3.906-2.817 6.378-2.951.243-.41.459-.848.502-1.266-.488-3.736-6.561-4.596-8.99-4.583z" fill="#5C8098" fill-rule="evenodd"/></svg>