<svg width="33" height="33" xmlns="http://www.w3.org/2000/svg" xmlns:xlink="http://www.w3.org/1999/xlink">
  <defs>
    <path id="a" d="M0 0h38v38H0z"/>
  </defs>
  <g transform="translate(-2 -2)" fill="none" fill-rule="evenodd">
    <mask id="b" fill="#fff">
      <use xlink:href="#a"/>
    </mask>
    <path d="M29.33 29.063L18.769 18.5 29.33 7.937A15.092 15.092 0 0 1 33.617 18.5c0 4.134-1.645 7.808-4.286 10.563M18.5 33.617c-4.095 0-7.807-1.645-10.563-4.286L18.5 18.768l10.563 10.563c-2.755 2.641-6.468 4.286-10.563 4.286M3.383 18.5c0-4.095 1.645-7.807 4.286-10.563L18.232 18.5 7.67 29.063C5.03 26.308 3.383 22.595 3.383 18.5M18.5 3.383c4.095 0 7.808 1.645 10.563 4.286L18.5 18.232 7.937 7.67c2.756-2.64 6.468-4.286 10.563-4.286m0-.383C9.965 3 3 9.966 3 18.5 3 27.035 9.965 34 18.5 34S34 27.035 34 18.5C34 9.966 27.035 3 18.5 3" stroke="#243746" fill="#000" mask="url(#b)"/>
  </g>
</svg>
