<svg width="52" height="52" xmlns="http://www.w3.org/2000/svg"><path d="M15.45 32.075c0-.316.258-.575.575-.575h1.15c.317 0 .575.259.575.575v1.15a.575.575 0 0 1-.575.575h-1.15a.575.575 0 0 1-.575-.575v-1.15zm0-4.6c0-.317.258-.575.575-.575h1.15c.317 0 .575.258.575.575v1.15a.575.575 0 0 1-.575.575h-1.15a.575.575 0 0 1-.575-.575v-1.15zm4.6 4.6c0-.316.258-.575.575-.575h1.15c.317 0 .575.259.575.575v1.15a.575.575 0 0 1-.575.575h-1.15a.575.575 0 0 1-.575-.575v-1.15zm0-4.6c0-.317.258-.575.575-.575h1.15c.317 0 .575.258.575.575v1.15a.575.575 0 0 1-.575.575h-1.15a.575.575 0 0 1-.575-.575v-1.15zm0-4.6c0-.317.258-.575.575-.575h1.15c.317 0 .575.258.575.575v1.15a.575.575 0 0 1-.575.575h-1.15a.575.575 0 0 1-.575-.575v-1.15zm4.6 9.2c0-.316.258-.575.575-.575h1.15c.317 0 .575.259.575.575v1.15a.575.575 0 0 1-.575.575h-1.15a.575.575 0 0 1-.575-.575v-1.15zm0-4.6c0-.317.258-.575.575-.575h1.15c.317 0 .575.258.575.575v1.15a.575.575 0 0 1-.575.575h-1.15a.575.575 0 0 1-.575-.575v-1.15zm0-4.6c0-.317.258-.575.575-.575h1.15c.317 0 .575.258.575.575v1.15a.575.575 0 0 1-.575.575h-1.15a.575.575 0 0 1-.575-.575v-1.15zm4.6 4.6c0-.317.258-.575.575-.575h1.15c.317 0 .575.258.575.575v1.15a.575.575 0 0 1-.575.575h-1.15a.575.575 0 0 1-.575-.575v-1.15zm0-4.6c0-.317.258-.575.575-.575h1.15c.317 0 .575.258.575.575v1.15a.575.575 0 0 1-.575.575h-1.15a.575.575 0 0 1-.575-.575v-1.15zm4.6 4.6c0-.317.258-.575.575-.575h1.15c.317 0 .575.258.575.575v1.15a.575.575 0 0 1-.575.575h-1.15a.575.575 0 0 1-.575-.575v-1.15zm0-4.6c0-.317.258-.575.575-.575h1.15c.317 0 .575.258.575.575v1.15a.575.575 0 0 1-.575.575h-1.15a.575.575 0 0 1-.575-.575v-1.15zM12 36.11c0 .63.514 1.14 1.151 1.14H38.45c.636 0 1.151-.523 1.151-1.14V20H12v16.11zM38.449 14H13.15c-.636 0-1.151.523-1.151 1.14v3.46h27.6v-3.46c0-.63-.514-1.14-1.151-1.14" fill="#5C8098" fill-rule="evenodd"/></svg>