<svg width="52" height="52" xmlns="http://www.w3.org/2000/svg" xmlns:xlink="http://www.w3.org/1999/xlink"><defs><path id="a" d="M.287 0h11.215v10.723H.287z"/><path id="c" d="M.002.273h10.723V11H.002z"/></defs><g fill="none" fill-rule="evenodd"><g transform="translate(27 14)"><mask id="b" fill="#fff"><use xlink:href="#a"/></mask><path d="M8.737 5.84H3.052a.49.49 0 0 1-.5-.479.49.49 0 0 1 .5-.478H8.737c.275 0 .5.215.5.478a.49.49 0 0 1-.5.479M11.002 0H.787c-.275 0-.5.21-.5.478v9.766a.49.49 0 0 0 .5.479h10.215a.49.49 0 0 0 .5-.479V.478a.488.488 0 0 0-.5-.478" fill="#5C8098" mask="url(#b)"/></g><g transform="translate(14 27)"><mask id="d" fill="#fff"><use xlink:href="#c"/></mask><path d="M7.623 7.218a.478.478 0 1 1-.676.676L5.364 6.311 3.78 7.894a.477.477 0 0 1-.677 0 .479.479 0 0 1 0-.676l1.583-1.583-1.583-1.583a.479.479 0 0 1 .677-.676l1.583 1.583 1.583-1.583a.479.479 0 0 1 .676.676L6.04 5.635l1.583 1.583zM10.247.273H.48A.48.48 0 0 0 .002.75v9.771A.48.48 0 0 0 .481 11h9.766a.48.48 0 0 0 .478-.478V.752a.48.48 0 0 0-.478-.48z" fill="#5C8098" mask="url(#d)"/></g><path d="M22.292 19.99H19.99v2.297c0 .275-.216.49-.491.49a.489.489 0 0 1-.49-.49V19.99h-2.297a.489.489 0 0 1-.49-.491c0-.27.22-.49.49-.49h2.296v-2.297c0-.27.221-.49.491-.49.275 0 .49.22.49.49v2.296h2.302c.27 0 .49.221.49.491 0 .275-.22.49-.49.49M24.509 14H14.491c-.27 0-.491.216-.491.49v10.02c0 .27.22.49.49.49h10.02c.27 0 .49-.22.49-.49V14.49c0-.274-.22-.49-.49-.49M35.288 31.713h-5.571a.489.489 0 0 1-.49-.49c0-.27.22-.49.49-.49h5.571c.27 0 .49.22.49.49 0 .274-.22.49-.49.49m0 2.555h-5.571c-.27 0-.49-.22-.49-.49s.22-.49.49-.49h5.571c.27 0 .49.22.49.49s-.22.49-.49.49M37.51 27H27.49c-.27 0-.49.22-.49.49v10.02c0 .27.22.49.49.49h10.02c.27 0 .49-.22.49-.49V27.49c0-.27-.22-.49-.49-.49" fill="#5C8098"/></g></svg>