<?xml version="1.0" encoding="UTF-8"?>
<svg width="52px" height="52px" viewBox="0 0 52 52" version="1.1" xmlns="http://www.w3.org/2000/svg" xmlns:xlink="http://www.w3.org/1999/xlink">
    <!-- Generator: Sketch 52.2 (67145) - http://www.bohemiancoding.com/sketch -->
    <title>Group 12</title>
    <desc>Created with Sketch.</desc>
    <defs>
        <polygon id="path-1" points="0.28725 0 11.502 0 11.502 10.7226087 0.28725 10.7226087"></polygon>
        <polygon id="path-3" points="0.00224782609 0.272847826 10.7248565 0.272847826 10.7248565 11 0.00224782609 11"></polygon>
    </defs>
    <g id="Page-1" stroke="none" stroke-width="1" fill="none" fill-rule="evenodd">
        <g id="Services" transform="translate(-155.000000, -924.000000)">
            <g id="Group-12" transform="translate(156.000000, 925.000000)">
                <g id="account" transform="translate(13.000000, 13.000000)">
                    <g id="Group-3" transform="translate(13.000000, 0.000000)">
                        <mask id="mask-2" fill="white">
                            <use xlink:href="#path-1"></use>
                        </mask>
                        <g id="Clip-2"></g>
                        <path d="M8.73725,5.83956522 L6.39725,5.83956522 L5.39725,5.83956522 L3.05225,5.83956522 C2.77725,5.83956522 2.55225,5.62434783 2.55225,5.36130435 C2.55225,5.09826087 2.77725,4.88304348 3.05225,4.88304348 L5.39725,4.88304348 L6.39725,4.88304348 L8.73725,4.88304348 C9.01225,4.88304348 9.23725,5.09826087 9.23725,5.36130435 C9.23725,5.62434783 9.01225,5.83956522 8.73725,5.83956522 M11.00225,0 L0.78725,0 C0.51225,0 0.28725,0.210434783 0.28725,0.47826087 L0.28725,10.2443478 C0.28725,10.5073913 0.51225,10.7226087 0.78725,10.7226087 L11.00225,10.7226087 C11.27725,10.7226087 11.50225,10.5073913 11.50225,10.2443478 L11.50225,0.47826087 C11.50225,0.210434783 11.27725,0 11.00225,0" id="Fill-1" fill="#5C8098" mask="url(#mask-2)"></path>
                    </g>
                    <g id="Group-6" transform="translate(0.000000, 13.000000)">
                        <mask id="mask-4" fill="white">
                            <use xlink:href="#path-3"></use>
                        </mask>
                        <g id="Clip-5"></g>
                        <path d="M7.62285652,7.21815217 C7.80985652,7.40515217 7.80985652,7.70741304 7.62285652,7.89441304 C7.52959565,7.98767391 7.40716087,8.03454348 7.28472609,8.03454348 C7.1622913,8.03454348 7.03985652,7.98767391 6.94659565,7.89441304 L5.36355217,6.31136957 L3.7805087,7.89441304 C3.68724783,7.98767391 3.56481304,8.03454348 3.44237826,8.03454348 C3.31994348,8.03454348 3.19798696,7.98767391 3.10424783,7.89441304 C2.91772609,7.70741304 2.91772609,7.40515217 3.10424783,7.21815217 L4.6872913,5.6351087 L3.10424783,4.05206522 C2.91772609,3.86554348 2.91772609,3.56280435 3.10424783,3.37580435 C3.29124783,3.18928261 3.59398696,3.18928261 3.7805087,3.37580435 L5.36355217,4.95884783 L6.94659565,3.37580435 C7.13359565,3.18928261 7.43585652,3.18928261 7.62285652,3.37580435 C7.80985652,3.56280435 7.80985652,3.86554348 7.62285652,4.05206522 L6.03981304,5.6351087 L7.62285652,7.21815217 Z M10.2465957,0.272847826 L0.480508696,0.272847826 C0.217465217,0.272847826 0.00224782609,0.488065217 0.00224782609,0.751108696 L0.00224782609,10.5219783 C0.00224782609,10.7850217 0.217465217,11.0002391 0.480508696,11.0002391 L10.2465957,11.0002391 C10.5096391,11.0002391 10.7248565,10.7850217 10.7248565,10.5219783 L10.7248565,0.751108696 C10.7248565,0.488065217 10.5096391,0.272847826 10.2465957,0.272847826 Z" id="Fill-4" fill="#5C8098" mask="url(#mask-4)"></path>
                    </g>
                    <path d="M8.29170384,5.99063336 L5.99063336,5.99063336 L5.99063336,8.2867975 C5.99063336,8.56155219 5.77475468,8.77743087 5.5,8.77743087 C5.23015165,8.77743087 5.00936664,8.56155219 5.00936664,8.2867975 L5.00936664,5.99063336 L2.7132025,5.99063336 C2.44335415,5.99063336 2.22256913,5.77475468 2.22256913,5.5 C2.22256913,5.23015165 2.44335415,5.00936664 2.7132025,5.00936664 L5.00936664,5.00936664 L5.00936664,2.7132025 C5.00936664,2.44335415 5.23015165,2.22256913 5.5,2.22256913 C5.77475468,2.22256913 5.99063336,2.44335415 5.99063336,2.7132025 L5.99063336,5.00936664 L8.29170384,5.00936664 C8.56155219,5.00936664 8.7823372,5.23015165 8.7823372,5.5 C8.7823372,5.77475468 8.56155219,5.99063336 8.29170384,5.99063336 M10.5093666,0 L0.490633363,0 C0.220785013,0 0,0.21587868 0,0.490633363 L0,10.5093666 C0,10.779215 0.220785013,11 0.490633363,11 L10.5093666,11 C10.779215,11 11,10.779215 11,10.5093666 L11,0.490633363 C11,0.21587868 10.779215,0 10.5093666,0" id="Fill-7" fill="#5C8098"></path>
                    <path d="M21.2880071,17.7128845 L15.716897,17.7128845 C15.447169,17.7128845 15.2264824,17.4971021 15.2264824,17.2224699 C15.2264824,16.9527419 15.447169,16.7320553 15.716897,16.7320553 L21.2880071,16.7320553 C21.5577352,16.7320553 21.7784218,16.9527419 21.7784218,17.2224699 C21.7784218,17.4971021 21.5577352,17.7128845 21.2880071,17.7128845 M21.2880071,20.2679447 L15.716897,20.2679447 C15.447169,20.2679447 15.2264824,20.0472581 15.2264824,19.7775301 C15.2264824,19.5078021 15.447169,19.2871155 15.716897,19.2871155 L21.2880071,19.2871155 C21.5577352,19.2871155 21.7784218,19.5078021 21.7784218,19.7775301 C21.7784218,20.0472581 21.5577352,20.2679447 21.2880071,20.2679447 M23.5095854,13 L13.4904146,13 C13.2206866,13 13,13.2206866 13,13.4904146 L13,23.5095854 C13,23.7793134 13.2206866,24 13.4904146,24 L23.5095854,24 C23.7793134,24 24,23.7793134 24,23.5095854 L24,13.4904146 C24,13.2206866 23.7793134,13 23.5095854,13" id="Fill-9" fill="#5C8098"></path>
                </g>
            </g>
        </g>
    </g>
</svg>
