<svg width="52" height="52" xmlns="http://www.w3.org/2000/svg">
  <g transform="translate(1 1)" fill="none" fill-rule="evenodd">
    <path d="M23.733 27.858c.452.877.267 2.18-.563 2.805-.26.195-.571.318-.896.382l.108.84h-1.467l.111-.865a2.145 2.145 0 0 1-.845-.41c-.466-.38-.707-.948-.817-1.527l1.117-.252c.096.6.541 1.073 1.201 1.073.372 0 .652-.095.841-.284.241-.241.367-.606.237-.926-.17-.42-.691-.542-1.096-.662-.458-.135-.934-.256-1.327-.528-1.172-.808-1.09-2.764.268-3.356.138-.06.285-.101.433-.132l-.123-.958h1.467l-.126.974c.245.056.48.143.689.275.441.279.68.725.785 1.202l-1.172.232a.921.921 0 0 0-.285-.433.998.998 0 0 0-.593-.197c-.38-.013-.879.086-1.025.47a.595.595 0 0 0 .137.624c.146.147.5.3 1.062.46.562.159.978.324 1.247.494.27.17.48.403.632.699zM36.91 10v23.277h-3.287v3.287h-3.286v.914l-2.281 2.281-1.605-1.604-1.627 1.6-1.586-1.586-1.614 1.586-1.587-1.586-1.614 1.586-1.596-1.596-1.6 1.6L13 37.532V16.573h4.019v-3.286h3.287V10H36.91zm-9.205 17.472a6.037 6.037 0 1 0-12.074 0 6.037 6.037 0 0 0 12.074 0zm4.535 7.648V14.67l-13.777.06v1.843h11.874V35.12h1.903zm3.286-3.286l.001-20.451-13.777.061v1.843h11.873v18.547h1.903z" fill="#5C8098"/>
  </g>
</svg>
