<?xml version="1.0" encoding="UTF-8"?>
<svg width="52px" height="52px" viewBox="0 0 52 52" version="1.1" xmlns="http://www.w3.org/2000/svg" xmlns:xlink="http://www.w3.org/1999/xlink">
    <!-- Generator: Sketch 52.2 (67145) - http://www.bohemiancoding.com/sketch -->
    <title>Group 10</title>
    <desc>Created with Sketch.</desc>
    <g id="Page-1" stroke="none" stroke-width="1" fill="none" fill-rule="evenodd">
        <g id="Homepage" transform="translate(-562.000000, -2738.000000)">
            <g id="services" transform="translate(139.000000, 2503.000000)">
                <g id="Group-10" transform="translate(424.000000, 236.000000)">
                    <circle id="Oval-Copy" stroke="#FFFFFF" stroke-width="2" cx="25" cy="25" r="25"></circle>
                    <g id="receive" transform="translate(12.000000, 12.000000)" fill="#FFFFFF">
                        <path d="M24,4.30636727 C24,3.41817902 23.2636364,2.69147954 22.3636364,2.69147954 L10.2709091,2.69147954 C10.1290909,2.69147954 9.98727273,2.63764995 9.88363636,2.53537373 L7.79454545,0.4737004 C7.48909091,0.172254691 7.07454545,0 6.63818182,0 L1.63636364,0 C0.730909091,0 0,0.726699477 0,1.61488773 L0,7 L24,7 L24,4.30636727 Z" id="Fill-1"></path>
                        <path d="M19.6363636,11.6507219 C21.2590909,11.6507219 22.7618182,12.1407201 24,12.969386 L24,8 L0,8 L0,18.4345103 C0,19.300748 0.730909091,20 1.63636364,20 L12.0872727,20 C12.0354545,19.6582014 12,19.3117064 12,18.9563402 C12,14.9278135 15.4254545,11.6507219 19.6363636,11.6507219" id="Fill-3"></path>
                        <path d="M22.75975,20.0438333 L17.548375,20.0438333 L18.799625,21.295625 C19.0114167,21.506875 19.0114167,21.84975 18.799625,22.0615417 C18.694,22.1671667 18.5553333,22.22025 18.4166667,22.22025 C18.2785417,22.22025 18.139875,22.1671667 18.0337083,22.0615417 L15.8578333,19.8856667 C15.808,19.8358333 15.7684583,19.7767917 15.7408333,19.7107083 C15.71375,19.6451667 15.6985833,19.57475 15.6985833,19.5021667 C15.6985833,19.4295833 15.71375,19.3591667 15.7408333,19.293625 C15.7684583,19.2275417 15.808,19.1685 15.8578333,19.1186667 L18.0337083,16.9427917 C18.2455,16.7315417 18.588375,16.7315417 18.799625,16.9427917 C19.0114167,17.1545833 19.0114167,17.4974583 18.799625,17.7087083 L17.548375,18.9605 L22.75975,18.9605 C23.05875,18.9605 23.3014167,19.202625 23.3014167,19.5021667 C23.3014167,19.8017083 23.05875,20.0438333 22.75975,20.0438333 M19.5,13 C15.9141667,13 13,15.9195833 13,19.5 C13,23.0858333 15.9141667,26 19.5,26 C23.0858333,26 26,23.0858333 26,19.5 C26,15.9195833 23.0858333,13 19.5,13" id="Fill-6"></path>
                    </g>
                </g>
            </g>
        </g>
    </g>
</svg>