<svg width="52" height="52" xmlns="http://www.w3.org/2000/svg"><path d="M31.356 22.148c0 .654-.719.686-.654.654h-9.801a.655.655 0 0 1-.654-.654c0-.36.294-.653.654-.653h9.801c.36 0 .654.294.654.653zm-.654 4.574h-9.801c-.36 0-.654-.36-.654-.719s.294-.653.654-.653h9.801c.36 0 .654.294.654.653 0 .36-.294.72-.654.72zm0 4.248h-9.801c-.36 0-.654-.36-.654-.72 0-.359.294-.653.654-.653h9.801c.36 0 .654.294.654.654 0 .36-.294.719-.654.719zm-9.801-13.396h9.801c.36 0 .654.327.654.686 0 .36-.294.654-.654.654h-9.801a.655.655 0 0 1-.654-.654c0-.36.294-.686.654-.686zM16.849 13c-.359 0-.849.294-.849.653v21.89c0 .033.229.393.36.556l1.535 1.96a.68.68 0 0 0 .523.262.682.682 0 0 0 .522-.262l1.046-1.306 1.045 1.306a.682.682 0 0 0 .523.262.682.682 0 0 0 .523-.262l1.045-1.306 1.046 1.306c.261.327.784.327 1.013 0l1.045-1.306 1.046 1.306c.261.327.784.327 1.013 0l1.045-1.306 1.046 1.306c.13.164.326.262.522.262a.682.682 0 0 0 .523-.262l1.046-1.306 1.045 1.306c.262.327.784.327 1.013 0l1.536-1.96c.13-.163.359-.85.359-.882V13.653c0-.359-.49-.653-.85-.653H16.85z" fill="#5C8098" fill-rule="evenodd"/></svg>