<svg xmlns="http://www.w3.org/2000/svg" viewBox="0 0 52 52"><path d="M23.1 21.6c-.2.2-.4.5-.4.8 0 .3.1.6.4.8.2.2.6.4 1.1.5v-2.5c-.5 0-.9.1-1.1.4zm3.3 4.6c-.3-.2-.6-.4-1.1-.5v2.5c.5-.1.9-.2 1.1-.4.2-.2.4-.5.4-.8 0-.4-.1-.6-.4-.8zm0 0c-.3-.2-.6-.4-1.1-.5v2.5c.5-.1.9-.2 1.1-.4.2-.2.4-.5.4-.8 0-.4-.1-.6-.4-.8zm-3.7-3.8c0 .3.1.6.4.8.2.2.6.4 1.1.5v-2.5c-.5.1-.8.2-1.1.5-.3.1-.4.4-.4.7zm3.7 3.8c-.3-.2-.6-.4-1.1-.5v2.5c.5-.1.9-.2 1.1-.4.2-.2.4-.5.4-.8 0-.4-.1-.6-.4-.8zm-3.7-3.8c0 .3.1.6.4.8.2.2.6.4 1.1.5v-2.5c-.5.1-.8.2-1.1.5-.3.1-.4.4-.4.7zm14.9 12.1l-3.8-3.8c1.2-1.8 1.8-3.8 1.8-6 0-2.9-1.1-5.6-3.2-7.7-2.1-2.1-4.8-3.2-7.7-3.2-2.9 0-5.6 1.1-7.7 3.2-2.1 2.1-3.2 4.8-3.2 7.7 0 2.9 1.1 5.6 3.2 7.7 2.1 2.1 4.8 3.2 7.7 3.2 2.2 0 4.2-.6 6-1.8l3.8 3.8c.4.4 1 .6 1.6.6s1.1-.2 1.6-.6c.4-.4.6-1 .6-1.6s-.3-1.1-.7-1.5zm-9.8-5.7c-.6.5-1.4.9-2.5 1v1.6h-1.2v-1.6c-.7 0-1.4-.2-2-.4s-1.1-.5-1.5-.8l.6-1.4c.4.3.8.5 1.3.7.5.2 1 .3 1.6.4v-2.9c-.7-.2-1.2-.3-1.7-.5s-.8-.5-1.1-.9c-.3-.4-.5-.9-.5-1.5 0-.8.3-1.4.8-2 .6-.5 1.4-.9 2.4-1v-1.6h1.2v1.6c.5 0 1.1.1 1.6.3.5.2 1 .4 1.3.6l-.6 1.4c-.7-.4-1.5-.7-2.3-.8v3c.7.2 1.3.3 1.7.5.5.2.8.5 1.1.8.3.4.5.9.5 1.5.1.8-.2 1.4-.7 2z" fill="#5c8098"/></svg>