<svg xmlns="http://www.w3.org/2000/svg" viewBox="0 0 52 52"><path d="M35.3 13.4H16.7c-.5 0-.8.4-.8.8v20.9c0 .5.2 1 .5 1.5l1.4 1.7c.2.3.7.3 1 0l1.1-1.3 1.1 1.3c.2.3.7.3 1 0l1.1-1.3 1.1 1.3c.2.3.7.3 1 0L26 37l1.1 1.3c.2.3.7.3 1 0l1.1-1.3 1.1 1.3c.2.3.7.3 1 0l1.1-1.3 1.1 1.3c.2.3.7.3 1 0l1.4-1.8c.3-.4.5-.9.5-1.4V14.2c-.2-.4-.6-.8-1.1-.8zM20.2 18h11.7c.4 0 .7.3.7.7 0 .4-.3.7-.7.7H20.2c-.4 0-.7-.3-.7-.7 0-.4.3-.7.7-.7zm5.1 13.3h-5.2c-.4 0-.7-.3-.7-.7 0-.4.3-.7.7-.7h5.2c.4 0 .7.3.7.7 0 .4-.3.7-.7.7zm0-4h-5.2c-.4 0-.7-.3-.7-.7 0-.4.3-.7.7-.7h5.2c.4 0 .7.3.7.7 0 .4-.3.7-.7.7zm-5.1-4c-.4 0-.7-.3-.7-.7 0-.4.3-.7.7-.7h11.7c.4 0 .7.3.7.7 0 .4-.3.7-.7.7H20.2zm11.9 7.5c-.3.3-.8.5-1.4.6v.9H30v-.9c-.4 0-.8-.1-1.1-.2-.4-.1-.6-.3-.9-.5l.4-.8c.2.2.4.3.7.4.3.1.6.2.9.2v-1.6c-.4-.1-.7-.2-1-.3-.3-.1-.5-.3-.7-.5-.2-.2-.3-.5-.3-.9s.2-.8.5-1.1c.3-.3.8-.5 1.4-.6v-.9h.7v.9c.3 0 .6.1.9.2.3.1.5.2.8.3l-.3.8c-.4-.2-.9-.4-1.3-.4V28c.4.1.7.2 1 .3.3.1.5.3.7.5.2.2.3.5.3.9-.1.4-.2.8-.6 1.1zm-.8-1.5c-.1-.1-.4-.2-.6-.3v1.5c.3 0 .5-.1.6-.3.1-.1.2-.3.2-.5.1-.1 0-.3-.2-.4zm-2.1-2.2c0 .2.1.3.2.4.1.1.3.2.6.3v-1.5c-.3 0-.5.1-.6.3-.1.2-.2.3-.2.5z" fill="#5c8098"/></svg>