<svg width="52" height="52" xmlns="http://www.w3.org/2000/svg" xmlns:xlink="http://www.w3.org/1999/xlink"><defs><path id="a" d="M0 0h15.347v21.135H0z"/></defs><g fill="none" fill-rule="evenodd"><path d="M18 34.12l.25-.045-.001-.075-.249.12z" fill="#000"/><path d="M27.892 17.783a2.892 2.892 0 1 0 0-5.783 2.892 2.892 0 0 0 0 5.783" fill="#5C8098"/><g transform="translate(18 18.182)"><mask id="b" fill="#fff"><use xlink:href="#a"/></mask><path d="M3.043 14.875c.23.09.397.197.5.325.102.133.15.282.15.453a.81.81 0 0 1-.156.474c-.102.144-.263.256-.478.34a1.979 1.979 0 0 1-.511.113v-1.85c.236.061.4.108.495.145m-1.914-1.369a.624.624 0 0 1-.215-.49c0-.23.102-.426.306-.586.13-.101.307-.17.532-.208v1.556c-.318-.092-.526-.183-.623-.272m2.59-11.049V7.07a2.517 2.517 0 0 0-1.257.54c-.44.362-.71.873-.71 1.438v2.523c-.22.029-.425.082-.618.162a1.48 1.48 0 0 0-.699.549 1.4 1.4 0 0 0-.242.783c0 .256.065.485.194.687.129.208.328.378.591.517.166.084.422.171.774.265v1.99a2.031 2.031 0 0 1-.29-.098c-.253-.112-.44-.255-.559-.431-.124-.176-.199-.405-.231-.682L0 15.374c.011.371.113.695.306.987.188.293.457.512.796.656.19.08.408.14.65.176v3.547c0 .219.178.395.398.395.22 0 .398-.176.398-.395v-3.51a2.46 2.46 0 0 0 .887-.208c.312-.144.554-.341.726-.602.166-.256.252-.533.252-.826 0-.298-.075-.56-.23-.783-.157-.224-.393-.41-.716-.56-.184-.082-.49-.175-.919-.279v-1.757c.254.037.459.118.613.242.215.175.344.442.381.788l.705-.053a1.662 1.662 0 0 0-.274-.869 1.607 1.607 0 0 0-.726-.58 2.52 2.52 0 0 0-.699-.176v-2.52c0-.325.161-.618.425-.836.2-.168.456-.289.747-.344v.205c0 .549.451.996 1.005.996.554 0 1.005-.447 1.005-.996V2.457c0-.127.175-.213.447-.27v17.701c0 .687.564 1.247 1.257 1.247.694 0 1.258-.56 1.258-1.247v-7.681a3.39 3.39 0 0 0 1.678.002v7.679c0 .687.564 1.247 1.257 1.247.694 0 1.258-.56 1.258-1.247V9.251a3.41 3.41 0 0 0 .011-.268v-5.53c0-.063-.002-.126-.005-.188V2.188c.271.056.446.142.446.27v5.614c0 .549.452.996 1.005.996.554 0 1.005-.447 1.005-.996V2.457c0-3.276-11.627-3.276-11.627 0" fill="#5C8098" mask="url(#b)"/></g></g></svg>