<svg width="16" height="14" xmlns="http://www.w3.org/2000/svg">
  <path d="M15.555.246a6.46 6.46 0 0 1-2.085.816A3.237 3.237 0 0 0 11.075 0C9.263 0 7.794 1.507 7.794 3.365c0 .264.028.52.084.766-2.727-.14-5.145-1.479-6.764-3.517A3.426 3.426 0 0 0 .67 2.308c0 1.167.579 2.197 1.46 2.8a3.23 3.23 0 0 1-1.488-.42v.042c0 1.631 1.132 2.992 2.634 3.3a3.203 3.203 0 0 1-1.482.059c.417 1.336 1.628 2.31 3.065 2.335A6.481 6.481 0 0 1 0 11.82a9.137 9.137 0 0 0 5.03 1.511c6.038 0 9.338-5.127 9.338-9.574 0-.146-.003-.293-.008-.436a6.727 6.727 0 0 0 1.636-1.742 6.399 6.399 0 0 1-1.884.53A3.357 3.357 0 0 0 15.555.246" fill="currentColor" fill-rule="evenodd"/>
</svg>
