<svg width="52" height="52" xmlns="http://www.w3.org/2000/svg"><g fill="#5C8098" fill-rule="evenodd"><path d="M37 17.306c0-.888-.736-1.615-1.636-1.615H23.27a.553.553 0 0 1-.387-.156l-2.09-2.061A1.646 1.646 0 0 0 19.639 13h-5.002c-.905 0-1.636.727-1.636 1.615V20h24v-2.694zm-4.364 7.344c1.623 0 3.126.49 4.364 1.32V21H13v10.435C13 32.3 13.73 33 14.636 33h10.451A6.938 6.938 0 0 1 25 31.956c0-4.028 3.425-7.305 7.636-7.305"/><path d="M35.76 33.044h-5.212l1.252 1.252a.542.542 0 1 1-.766.766l-2.176-2.176a.542.542 0 0 1 0-.767l2.176-2.176a.542.542 0 0 1 .766.766l-1.252 1.252h5.212a.542.542 0 1 1 0 1.083M32.5 26c-3.586 0-6.5 2.92-6.5 6.5 0 3.586 2.914 6.5 6.5 6.5s6.5-2.914 6.5-6.5c0-3.58-2.914-6.5-6.5-6.5"/></g></svg>